<?xml version="1.0" encoding="iso-8859-1"?>
<!-- Generator: Adobe Illustrator 19.0.0, SVG Export Plug-In . SVG Version: 6.00 Build 0)  -->
<svg version="1.1" id="Capa_1" xmlns="http://www.w3.org/2000/svg" xmlns:xlink="http://www.w3.org/1999/xlink" x="0px" y="0px"
	 viewBox="0 0 508 508" style="enable-background:new 0 0 508 508;" xml:space="preserve">
<circle style="fill:#F8B64C;" cx="233.1" cy="233" r="233"/>
<circle style="fill:#FFD15C;" cx="233.1" cy="233" r="199"/>
<circle style="fill:#F8B64C;" cx="233.1" cy="233" r="160.8"/>
<path style="fill:#FFD15C;" d="M223.9,294.7V240c-17-4.9-29.6-12.2-37.5-22.1S174.5,196,174.5,182c0-14.3,4.5-26.2,13.5-35.9
	s21-15.3,35.9-16.8v-12.9h18.9v12.9c13.8,1.7,24.8,6.4,33,14.2s13.4,18.2,15.7,31.2l-33,4.3c-2-10.3-7.2-17.2-15.7-20.9v51
	c20.9,5.7,35.1,13,42.7,22s11.4,20.6,11.4,34.6c0,15.7-4.8,29-14.3,39.8s-22.8,17.4-39.7,19.8v24.4H224V326
	c-15-1.8-27.3-7.4-36.7-16.8s-15.4-22.7-18-39.8l34.1-3.7c1.4,7,4,13,7.8,18S219.2,292.4,223.9,294.7z M223.9,157.7
	c-5.1,1.7-9.2,4.7-12.3,8.9c-3,4.2-4.6,8.8-4.6,13.8c0,4.6,1.4,8.9,4.2,12.9s7,7.2,12.7,9.6L223.9,157.7L223.9,157.7z M242.9,296.5
	c6.5-1.2,11.8-4.2,15.9-9.1c4.1-4.8,6.1-10.5,6.1-17c0-5.8-1.7-10.9-5.2-15.1c-3.4-4.2-9.1-7.5-16.9-9.7v50.9H242.9z"/>
<polygon style="fill:#40596B;" points="451.3,390.7 491.1,350.9 311.4,311.4 350.8,491.1 390.6,451.3 447.3,508 507.9,447.3 "/>
<g>
</g>
<g>
</g>
<g>
</g>
<g>
</g>
<g>
</g>
<g>
</g>
<g>
</g>
<g>
</g>
<g>
</g>
<g>
</g>
<g>
</g>
<g>
</g>
<g>
</g>
<g>
</g>
<g>
</g>
</svg>
