<?xml version="1.0" encoding="iso-8859-1"?>
<!-- Generator: Adobe Illustrator 19.0.0, SVG Export Plug-In . SVG Version: 6.00 Build 0)  -->
<svg version="1.1" id="Capa_1" xmlns="http://www.w3.org/2000/svg" xmlns:xlink="http://www.w3.org/1999/xlink" x="0px" y="0px"
	 viewBox="0 0 512 512" style="enable-background:new 0 0 512 512;" xml:space="preserve">
<g>
	<path style="fill:#FF738D;" d="M505.247,332.438l-17.265,25.473l-97.552-55.244l7.398-13.046v-67.24l-7.398-13.046l97.482-55.204
		l17.175,25.033c9.137,13.316,9.187,30.551,0.13,43.917l-0.27,0.4c-2.099,3.099-2.079,7.078,0.05,10.147
		c4.659,6.758,6.978,14.536,6.948,22.304c-0.03,7.558-2.279,15.106-6.758,21.724l-0.29,0.43c-2.089,3.079-2.079,7.048,0.01,10.117
		l0.27,0.4C514.253,301.907,514.273,319.112,505.247,332.438z"/>
	<path style="fill:#FF738D;" d="M114.179,289.62l7.388,13.046L24.016,357.91L6.751,332.438c-9.027-13.326-8.997-30.531,0.07-43.837
		l0.27-0.4c2.099-3.069,2.099-7.038,0.02-10.107l-0.3-0.45c-4.479-6.608-6.728-14.166-6.758-21.714
		c-0.03-7.768,2.289-15.535,6.958-22.294c2.119-3.079,2.139-7.058,0.04-10.157l-0.27-0.4c-9.057-13.366-9.007-30.601,0.13-43.917
		l17.175-25.033l97.482,55.204l-7.388,13.046V289.62z"/>
</g>
<g>
	<path style="fill:#FF3B62;" d="M114.179,289.62l7.388,13.046L24.016,357.91L6.751,332.438c-9.027-13.326-8.997-30.531,0.07-43.837
		l0.27-0.4c2.099-3.069,2.099-7.038,0.02-10.107l-0.3-0.45c-4.479-6.608-6.728-14.166-6.758-21.714h114.127V289.62z"/>
	<path style="fill:#FF3B62;" d="M505.247,332.438l-17.265,25.473l-97.552-55.244l7.398-13.046v-33.69h114.117
		c-0.03,7.558-2.279,15.106-6.758,21.724l-0.29,0.43c-2.089,3.079-2.079,7.048,0.01,10.117l0.27,0.4
		C514.253,301.907,514.273,319.112,505.247,332.438z"/>
</g>
<path style="fill:#77DE00;" d="M412.813,255.93V256c0,8.108-0.62,16.075-1.809,23.853c-0.8,5.228-1.859,10.377-3.179,15.436
	c-1.28,4.979-2.809,9.867-4.569,14.646c-22.034,59.983-79.727,102.88-147.257,102.88c-67.52,0-125.224-42.898-147.257-102.88
	c-1.759-4.779-3.289-9.667-4.569-14.646c-1.32-5.059-2.379-10.207-3.179-15.436c-1.19-7.778-1.809-15.745-1.809-23.853v-0.07
	c0-8.088,0.62-16.025,1.809-23.783c0.8-5.228,1.859-10.377,3.179-15.436c1.28-4.979,2.809-9.867,4.569-14.646
	c17.585-47.856,57.863-84.835,107.719-97.832c12.636-3.299,25.882-5.049,39.538-5.049c22.843,0,44.567,4.909,64.161,13.736
	c38.319,17.245,68.52,49.456,83.096,89.144c1.759,4.779,3.289,9.667,4.569,14.646c1.32,5.059,2.379,10.207,3.179,15.436
	C412.194,239.905,412.813,247.842,412.813,255.93z"/>
<path style="fill:#2EBC00;" d="M412.813,255.93V256c0,8.108-0.62,16.075-1.809,23.853c-0.8,5.228-1.859,10.377-3.179,15.436
	c-1.28,4.979-2.809,9.867-4.569,14.646c-22.034,59.983-79.727,102.88-147.257,102.88c-67.52,0-125.224-42.898-147.257-102.88
	c-1.759-4.779-3.289-9.667-4.569-14.646c-1.32-5.059-2.379-10.207-3.179-15.436c-1.19-7.778-1.809-15.745-1.809-23.853v-0.07
	L412.813,255.93L412.813,255.93z"/>
<path style="fill:#B7DFF7;" d="M380.693,255.93c-1.62,11.317-4.639,22.503-9.097,33.36c-17.335,42.318-55.994,73.039-100.891,80.177
	c-6.448,1.02-12.846,1.53-19.154,1.53c-33.33,0-64.011-14.136-86.195-40.258c-17.525-20.634-25.842-47.986-24.233-74.808h30.131
	c-1.61,19.844,4.259,40.438,16.955,55.394c19.734,23.233,47.356,33.36,77.787,28.522c34.63-5.498,64.451-29.231,77.847-61.922
	c2.939-7.178,5.079-14.536,6.428-21.994L380.693,255.93L380.693,255.93z"/>
<path style="fill:#C9E7F8;" d="M382.002,241.514c-0.18,4.819-0.62,9.627-1.31,14.416c-1.62,11.317-4.639,22.503-9.097,33.36
	c-17.335,42.318-55.994,73.039-100.891,80.177c-6.448,1.02-12.846,1.53-19.154,1.53c-33.33,0-64.011-14.136-86.195-40.258
	c-17.525-20.634-25.842-47.986-24.233-74.808c0.9-15.046,4.939-29.931,12.226-43.357c18.974-34.96,54.914-53.874,91.553-48.186
	c20.724,3.219,40.068,15.765,51.725,33.56c10.877,16.585,14.186,35.9,9.347,54.384c-0.32,1.22-0.67,2.419-1.06,3.599
	c-5.568,16.935-18.145,30.431-33.51,35.66c-20.314,6.928-43.347-1.839-52.425-19.954l26.802-13.436
	c2.309,4.579,10.047,7.008,15.955,5.009c3.629-1.24,6.998-3.819,9.727-7.278c2.459-3.139,4.399-6.988,5.498-11.207
	c2.659-10.167,0.74-20.934-5.418-30.331c-7.088-10.817-18.765-18.435-31.241-20.364c-23.953-3.719-47.746,9.177-60.602,32.85
	c-4.839,8.917-7.628,18.885-8.448,29.052c-1.61,19.844,4.259,40.438,16.955,55.394c19.734,23.233,47.356,33.36,77.787,28.522
	c34.63-5.498,64.451-29.231,77.847-61.922c2.939-7.178,5.079-14.536,6.428-21.994c5.388-29.491-1.47-60.582-19.934-88.064
	c-7.368-10.977-16.145-20.734-26.002-29.112c-12.096-10.297-25.842-18.515-40.668-24.373c-14.836-5.858-30.771-9.337-47.206-10.147
	c12.636-3.299,25.882-5.049,39.538-5.049c22.843,0,44.567,4.909,64.161,13.736c13.396,10.777,25.253,23.603,35.07,38.219
	c2.239,3.329,4.329,6.698,6.298,10.117C376.123,186.67,383.052,214.262,382.002,241.514z"/>
<path style="fill:#B7DFF7;" d="M218.98,271.635l26.802-13.436c2.309,4.579,10.047,7.008,15.955,5.009
	c3.629-1.24,6.998-3.819,9.727-7.278h33.45c-5.568,16.935-18.145,30.431-33.51,35.66C251.09,298.518,228.057,289.75,218.98,271.635z
	"/>
<g>
</g>
<g>
</g>
<g>
</g>
<g>
</g>
<g>
</g>
<g>
</g>
<g>
</g>
<g>
</g>
<g>
</g>
<g>
</g>
<g>
</g>
<g>
</g>
<g>
</g>
<g>
</g>
<g>
</g>
</svg>
