<?xml version="1.0" encoding="iso-8859-1"?>
<!-- Generator: Adobe Illustrator 19.0.0, SVG Export Plug-In . SVG Version: 6.00 Build 0)  -->
<svg version="1.1" id="Capa_1" xmlns="http://www.w3.org/2000/svg" xmlns:xlink="http://www.w3.org/1999/xlink" x="0px" y="0px"
	 viewBox="0 0 512 512" style="enable-background:new 0 0 512 512;" xml:space="preserve">
<path style="fill:#F72F84;" d="M512,286.906c0-86.209-69.886-156.095-156.095-156.095H256l-20.016,117.423L256,333.755h92.813
	l60.157-20.016l60.159,20.016H512V286.906z"/>
<path style="fill:#FF61A8;" d="M218.509,130.811l-45.812,72.717H92.456C41.394,203.528,0,244.922,0,295.984v37.771h42.871
	l60.159-20.016l60.158,20.016H256V130.811H218.509z"/>
<path style="fill:#6F627E;" d="M103.03,381.189c26.198,0,47.435-21.237,47.435-47.435l-47.435-20.016l-47.435,20.016
	C55.595,359.952,76.833,381.189,103.03,381.189z"/>
<path style="fill:#453A4C;" d="M408.971,381.189c26.197,0,47.435-21.237,47.435-47.435l-47.435-20.016l-47.436,20.016
	C361.535,359.952,382.772,381.189,408.971,381.189z"/>
<path style="fill:#F7AACB;" d="M103.03,266.583c-33.225,0-60.159,26.934-60.159,60.159v7.014h120.317v-7.014
	C163.188,293.517,136.254,266.583,103.03,266.583z"/>
<path style="fill:#FF61A8;" d="M408.971,266.583c-33.225,0-60.159,26.934-60.159,60.159v7.014h120.317v-7.014
	C469.129,293.517,442.195,266.583,408.971,266.583z"/>
<g>
	<path style="fill:#00D9F7;" d="M411.59,171.005c-17.479-8.428-36.214-12.702-55.685-12.702h-41.246v78.004h105.416v-61.211
		L411.59,171.005z"/>
	<polygon style="fill:#00D9F7;" points="256,236.308 302.134,236.308 302.134,158.303 256,158.303 235.984,197.305 	"/>
</g>
<polygon style="fill:#A5EFF7;" points="233.682,158.303 184.539,236.308 256,236.308 256,158.303 "/>
<g>
</g>
<g>
</g>
<g>
</g>
<g>
</g>
<g>
</g>
<g>
</g>
<g>
</g>
<g>
</g>
<g>
</g>
<g>
</g>
<g>
</g>
<g>
</g>
<g>
</g>
<g>
</g>
<g>
</g>
</svg>
