<?xml version="1.0" encoding="iso-8859-1"?>
<!-- Generator: Adobe Illustrator 19.0.0, SVG Export Plug-In . SVG Version: 6.00 Build 0)  -->
<svg version="1.1" id="Capa_1" xmlns="http://www.w3.org/2000/svg" xmlns:xlink="http://www.w3.org/1999/xlink" x="0px" y="0px"
	 viewBox="0 0 511.992 511.992" style="enable-background:new 0 0 511.992 511.992;" xml:space="preserve">
<rect x="-40.066" y="363.99" transform="matrix(-0.7071 0.7071 -0.7071 -0.7071 495.0908 552.9)" style="fill:#DECCBC;" width="346.204" height="29.993"/>
<rect x="-18.14" y="369.908" transform="matrix(-0.7071 0.7071 -0.7071 -0.7071 514.7888 541.5809)" style="fill:#C7AC91;" width="326.738" height="14.997"/>
<path style="fill:#FF738D;" d="M465.252,272.66c-0.53,0.53-1.054,1.054-1.591,1.577c-22.502,21.894-49.939,35.828-78.705,41.788
	c-10.767,2.227-21.703,3.351-32.647,3.351c-0.82,0-1.655-0.014-2.467-0.021c-30.053-0.46-59.978-9.318-85.938-26.596
	c-8.66-5.748-16.896-12.456-24.532-20.092c-0.856-0.856-1.69-1.718-2.509-2.58c-21.625-22.601-35.313-50.031-41.06-78.755
	c-2.319-11.58-3.365-23.358-3.103-35.115c0.65-30.159,9.784-60.176,27.387-86.122c5.578-8.222,12.004-16.034,19.286-23.315
	c1.188-1.202,2.396-2.368,3.627-3.513c22.248-20.919,49.488-34.769,78.974-40.402c9.883-1.895,20.035-2.856,30.336-2.863
	c1.626,0,3.259,0.021,4.878,0.085c29.254,0.863,57.143,9.551,81.286,25.083c9.565,6.144,18.536,13.376,26.779,21.618l0.622,0.622
	c22.092,22.332,36.238,49.601,42.439,78.268c2.439,11.206,3.648,22.637,3.648,34.047c0,0.368,0.007,0.714-0.014,1.075
	c-0.184,30.074-8.801,60.112-25.847,86.207C480.169,256.103,473.219,264.692,465.252,272.66z"/>
<path style="fill:#FF3B62;" d="M465.252,272.66c-0.53,0.53-1.054,1.054-1.591,1.577c-22.502,21.894-49.939,35.828-78.705,41.788
	c-10.767,2.227-21.703,3.351-32.647,3.351c-0.82,0-1.655-0.014-2.467-0.021c-30.053-0.46-59.978-9.318-85.938-26.596
	c-8.66-5.748-16.896-12.456-24.532-20.092l225.88-225.88l0.622,0.622c22.092,22.332,36.238,49.601,42.439,78.267
	c2.439,11.206,3.648,22.637,3.648,34.047c0,0.368,0.007,0.714-0.014,1.075c-0.184,30.074-8.801,60.112-25.847,86.207
	C480.169,256.103,473.219,264.692,465.252,272.66z"/>
<path style="fill:#FFDAA8;" d="M352.217,199.341c-14.097,57.617,23.075,105.464,32.739,116.683
	c-10.767,2.227-21.703,3.351-32.647,3.351c-0.82,0-1.655-0.014-2.467-0.021c-6.25-9.191-13.298-21.216-19.081-35.426
	c-13.171-32.386-15.327-65.012-6.596-96.055c0.071-0.269,0.148-0.545,0.226-0.82c-16.62,9.721-30.124,23.407-40.382,40.975
	c-2.637,4.489-5.048,9.247-7.253,14.252c-9.763,22.177-12.251,42.92-12.852,50.476c-8.66-5.748-16.896-12.456-24.532-20.092
	c-0.856-0.856-1.69-1.718-2.509-2.58c2.164-10.958,5.826-24.56,11.975-38.798c13.828-32.039,35.531-56.415,63.733-71.961
	c-23.216-5.939-47.366-4.114-72.124,5.529c-22.396,8.71-38.741,21.463-44.645,26.475c-2.319-11.58-3.365-23.358-3.103-35.115
	c9.261-6.193,21.406-13.192,35.778-18.883c32.789-13.008,65.747-14.79,96.967-5.515c-12.025-21.131-30.428-37.356-54.987-48.413
	c-22.099-9.954-42.82-12.633-50.37-13.312c5.578-8.222,12.004-16.034,19.286-23.315c1.188-1.202,2.396-2.368,3.627-3.513
	c10.937,2.27,24.503,6.038,38.699,12.315c32.011,14.153,56.252,36.16,71.537,64.608c6.13-23.153,4.51-47.295-4.906-72.138
	c-8.667-22.891-21.604-39.533-26.355-45.188c9.883-1.895,20.035-2.856,30.336-2.863c1.626,0,3.259,0.021,4.878,0.085
	c6.172,9.353,13.142,21.668,18.777,36.238c12.343,31.954,14.111,63.966,5.451,94.301c-0.021,0.064-0.035,0.135-0.057,0.198
	c14.938-9.537,25.981-21.64,34.139-34.281c18.932-29.325,22.368-61.534,22.976-71.374c9.565,6.144,18.536,13.376,26.779,21.618
	l0.622,0.622c-1.959,10.993-5.38,24.624-11.269,38.939c-13.354,32.499-34.839,57.363-63.026,73.39
	c23.443,5.656,47.684,3.428,72.435-6.688c22.389-9.169,38.593-22.347,44.298-27.373c2.439,11.206,3.648,22.637,3.648,34.047
	c0,0.368,0.007,0.714-0.014,1.075c-9.148,6.377-21.202,13.595-35.49,19.555c-19.774,8.25-39.689,12.371-59.306,12.364
	c-12.506,0.007-24.906-1.676-37.058-5.02c12.392,20.651,30.95,36.351,55.489,46.892c22.184,9.53,42.877,11.855,50.519,12.414
	c-5.932,9.098-12.881,17.688-20.849,25.656c-0.53,0.53-1.054,1.054-1.591,1.577c-10.951-2.072-24.574-5.599-38.84-11.623
	C392.612,249.025,368.002,227.471,352.217,199.341z"/>
<g>
	<path style="fill:#FFC373;" d="M276.756,242.282c-9.763,22.177-12.251,42.92-12.852,50.476
		c-8.66-5.748-16.896-12.456-24.532-20.092l44.638-44.638C281.372,232.519,278.961,237.276,276.756,242.282z"/>
	<path style="fill:#FFC373;" d="M352.217,199.341c-14.097,57.617,23.075,105.464,32.739,116.683
		c-10.767,2.227-21.703,3.351-32.647,3.351c-0.82,0-1.655-0.014-2.467-0.021c-6.25-9.191-13.298-21.216-19.081-35.426
		c-13.171-32.386-15.327-65.012-6.596-96.055l57.25-57.25c-0.021,0.064-0.035,0.135-0.057,0.198
		c14.938-9.537,25.981-21.64,34.139-34.281l49.756-49.756l0.622,0.622c-1.959,10.993-5.38,24.624-11.269,38.939
		c-13.354,32.499-34.839,57.363-63.026,73.39c23.443,5.656,47.684,3.428,72.435-6.688c22.389-9.169,38.593-22.347,44.298-27.373
		c2.439,11.206,3.648,22.637,3.648,34.047c0,0.368,0.007,0.714-0.014,1.075c-9.148,6.377-21.202,13.595-35.49,19.555
		c-19.774,8.25-39.689,12.371-59.306,12.364c-12.506,0.007-24.906-1.676-37.058-5.02c12.392,20.651,30.95,36.351,55.489,46.892
		c22.184,9.53,42.877,11.855,50.519,12.414c-5.932,9.098-12.881,17.688-20.849,25.656c-0.53,0.53-1.054,1.054-1.591,1.577
		c-10.951-2.072-24.574-5.599-38.84-11.623C392.612,249.025,368.002,227.471,352.217,199.341z"/>
</g>
<g>
</g>
<g>
</g>
<g>
</g>
<g>
</g>
<g>
</g>
<g>
</g>
<g>
</g>
<g>
</g>
<g>
</g>
<g>
</g>
<g>
</g>
<g>
</g>
<g>
</g>
<g>
</g>
<g>
</g>
</svg>
