<svg id="Layer_3_copy" xmlns="http://www.w3.org/2000/svg" viewBox="0 0 100 100" width="100" height="100">
    <style>
        .st0{fill:#f2f2f2;stroke:#f2f2f2;stroke-width:.03;stroke-miterlimit:10}.st1{fill:#fff}.st2{fill:#f2efe9;stroke:#f2efe9;stroke-width:.03;stroke-miterlimit:10}.st3{fill:#dd3900;stroke:#dd3900}.st3,.st4{stroke-width:.03;stroke-miterlimit:10}.st4{fill:#e8e3da;stroke:#e8e3da}.st5{fill:#d6d1c9;stroke:#d6d1c9}.st5,.st6{stroke-width:.03;stroke-miterlimit:10}.st6{fill:#9b958c;stroke:#9b958c}
    </style>
    <g id="XMLID_2_">
        <path class="st0" d="M90.26 26.42c.53 0 .97 1.14.97 2.54 0 1.4-.44 2.53-.97 2.53s-.96-1.13-.96-2.53.43-2.54.96-2.54z"/>
        <circle class="st1" cx="90.06" cy="5.96" r="1.05"/>
        <path class="st0" d="M78.56 42.16c.53 0 .96 1.14.96 2.54 0 1.4-.43 2.53-.96 2.53s-.96-1.13-.96-2.53.43-2.54.96-2.54z"/>
        <circle class="st1" cx="76.75" cy="21.7" r="1.05"/>
        <path class="st0" d="M66.82 57.03c.53 0 .96 1.13.96 2.53s-.43 2.54-.96 2.54-.96-1.14-.96-2.54c0-1.4.43-2.53.96-2.53z"/>
        <path class="st1" d="M66.61 35.52c.58 0 1.05.47 1.05 1.04 0 .58-.47 1.05-1.05 1.05a1.046 1.046 0 0 1 0-2.09z"/>
        <path class="st0" d="M63.62 26.42c.53 0 .96 1.14.96 2.54 0 1.4-.43 2.53-.96 2.53s-.96-1.13-.96-2.53.43-2.54.96-2.54z"/>
        <path class="st1" d="M63.42 4.91c.57 0 1.04.47 1.04 1.05s-.47 1.05-1.04 1.05a1.05 1.05 0 0 1 0-2.1z"/>
        <path class="st0" d="M50.32 42.16c.53 0 .96 1.14.96 2.54 0 .63-.09 1.2-.23 1.64-.35-.05-.7-.07-1.05-.07-.14 0-.29.01-.43.02-.14-.44-.22-.99-.22-1.59 0-1.4.43-2.54.97-2.54zm-.03 28.68c.54 0 .97 1.14.97 2.54 0 1.4-.43 2.53-.97 2.53-.53 0-.96-1.13-.96-2.53s.43-2.54.96-2.54z"/>
        <circle class="st1" cx="50.11" cy="21.7" r="1.05"/>
        <circle class="st1" cx="50.09" cy="50.38" r="1.05"/>
        <path class="st0" d="M36.98 26.42c.53 0 .96 1.14.96 2.54 0 1.4-.43 2.53-.96 2.53s-.96-1.13-.96-2.53.43-2.54.96-2.54z"/>
        <circle class="st1" cx="36.77" cy="5.96" r="1.05"/>
        <path class="st0" d="M33.77 57.03c.53 0 .96 1.13.96 2.53s-.43 2.54-.96 2.54-.96-1.14-.96-2.54c0-1.4.43-2.53.96-2.53z"/>
        <path class="st1" d="M33.56 35.52c.58 0 1.05.47 1.05 1.04a1.05 1.05 0 0 1-2.1 0c0-.57.47-1.04 1.05-1.04z"/>
        <circle class="st1" cx="23.36" cy="21.7" r="1.05"/>
        <path class="st0" d="M22.07 42.16c.53 0 .96 1.14.96 2.54 0 1.4-.43 2.53-.96 2.53s-.96-1.13-.96-2.53.43-2.54.96-2.54z"/>
        <path class="st2" d="M93.99 4.55c-.27-.37-.6-.7-1.01-.95-.85-.54-1.96-.78-2.99-.77-1.06.02-2.12.32-2.98.88-.41.26-.78.59-1.07.97-.05 1.16.05 5.3 4.12 5.3 3.16 0 5.02-2.94 3.93-5.43zm-3.93 2.46a1.05 1.05 0 1 1 0-2.1 1.05 1.05 0 0 1 0 2.1zM79.65 19.34c-.85-.54-1.95-.78-2.99-.77-1.05.02-2.12.32-2.98.88-.41.26-.77.59-1.07.97-.05 1.16.05 5.3 4.12 5.3 3.17 0 5.02-2.94 3.94-5.43-.28-.37-.61-.7-1.02-.95zm-2.9 3.41a1.05 1.05 0 1 1 0-2.1 1.05 1.05 0 0 1 0 2.1zM69.54 34.2c-.85-.53-1.96-.78-2.99-.77a5.78 5.78 0 0 0-2.99.89c-.4.26-.77.58-1.06.97-.05 1.16.05 5.29 4.12 5.29 3.16 0 5.02-2.94 3.93-5.42a3.7 3.7 0 0 0-1.01-.96zm-2.93 3.41a1.046 1.046 0 1 1 1.05-1.05c0 .58-.47 1.05-1.05 1.05zm.74-33.06c-.27-.37-.61-.7-1.01-.95-.85-.54-1.96-.78-2.99-.77-1.06.02-2.12.32-2.99.88-.4.26-.77.59-1.06.97-.05 1.16.05 5.3 4.12 5.3 3.16 0 5.02-2.94 3.93-5.43zm-4.98 1.41c0-.58.47-1.05 1.05-1.05.57 0 1.04.47 1.04 1.05 0 .58-.47 1.05-1.04 1.05-.58 0-1.05-.47-1.05-1.05zm-9.34 13.38c-.85-.54-1.96-.78-2.99-.77-1.06.02-2.12.32-2.98.88-.41.26-.77.59-1.07.97-.05 1.16.05 5.3 4.12 5.3 3.17 0 5.02-2.94 3.94-5.43-.28-.37-.61-.7-1.02-.95zm-2.92 3.41a1.05 1.05 0 1 1 0-2.1 1.05 1.05 0 0 1 0 2.1zm2.9 25.27c-.77-.49-1.75-.73-2.69-.76-.1-.01-.2-.01-.3-.01-1.06.02-2.12.32-2.98.88-.41.27-.77.59-1.07.98-.05 1.15.05 5.29 4.12 5.29 3.16 0 5.02-2.94 3.93-5.43-.27-.37-.6-.7-1.01-.95zm-2.92 3.41a1.05 1.05 0 1 1 0-2.1 1.05 1.05 0 0 1 0 2.1zM39.7 3.6c-.86-.54-1.96-.78-3-.77-1.05.02-2.12.32-2.98.88-.4.26-.77.59-1.06.97-.05 1.16.05 5.3 4.12 5.3 3.16 0 5.02-2.94 3.93-5.43-.27-.37-.61-.7-1.01-.95zm-2.93 3.41a1.05 1.05 0 1 1 0-2.1 1.05 1.05 0 0 1 0 2.1zm-.29 27.19c-.85-.53-1.95-.78-2.99-.77-1.05.02-2.12.33-2.98.89-.41.26-.77.58-1.07.97-.05 1.16.05 5.29 4.12 5.29 3.17 0 5.02-2.94 3.94-5.42-.28-.38-.61-.7-1.02-.96zm-2.92 3.41c-.58 0-1.05-.47-1.05-1.05 0-.57.47-1.04 1.05-1.04s1.05.47 1.05 1.04c0 .58-.47 1.05-1.05 1.05zm-7.25-18.27c-.85-.54-1.96-.78-2.99-.77-1.06.02-2.12.32-2.99.88-.4.26-.77.59-1.06.97-.05 1.16.05 5.3 4.12 5.3 3.16 0 5.02-2.94 3.93-5.43-.27-.37-.61-.7-1.01-.95zm-2.95 3.41a1.05 1.05 0 1 1 0-2.1 1.05 1.05 0 0 1 0 2.1zM13.06 3.6c-.86-.54-1.96-.78-3-.77-1.05.02-2.12.32-2.98.88-.41.26-.77.59-1.06.97-.06 1.16.05 5.3 4.11 5.3 3.17 0 5.02-2.94 3.94-5.43-.27-.37-.61-.7-1.01-.95zm-2.93 3.41a1.05 1.05 0 1 1 0-2.1 1.05 1.05 0 0 1 0 2.1z"/>
        <path class="st3" d="M93.16 19.44c-.06-.37-.09-.75-.09-1.12-.1.05-.21.1-.32.15-.73.32-1.75.48-2.76.51-1.02-.01-2.04-.18-2.77-.47a1.75 1.75 0 0 1-.34-.15c-.01.36-.04.73-.1 1.08-.06.36-.13.71-.23 1.06 0 0 .06.06.21.15s.41.18.72.28c.65.19 1.57.32 2.5.3.93.02 1.85-.12 2.49-.31.33-.09.57-.21.71-.3.06-.04.1-.06.15-.11.01-.01.03-.03.05-.03-.1-.34-.17-.68-.22-1.04zM79.74 34.06c-.1.05-.21.1-.32.15-.73.32-1.74.48-2.76.51-1.01-.01-2.04-.18-2.77-.47-.12-.04-.23-.09-.33-.15-.01.36-.04.73-.1 1.08-.07.36-.14.71-.24 1.06v.01s.06.05.22.14c.15.09.4.18.72.28.64.19 1.57.32 2.49.3.93.02 1.86-.12 2.5-.31.32-.09.56-.21.71-.3.06-.04.1-.06.15-.11.01-.01.02-.03.04-.03a8.7 8.7 0 0 1-.21-1.04c-.06-.37-.1-.75-.1-1.12zm-10.1 15.02c-.01-.05-.01-.11-.01-.16a5.286 5.286 0 0 1-.84.33.16.16 0 0 1-.09.03c-.28.09-.59.15-.91.19-.4.06-.82.1-1.24.11-1.02-.01-2.04-.17-2.77-.47-.13-.04-.24-.09-.34-.15-.01.37-.04.73-.1 1.09-.06.35-.13.71-.23 1.05 0 0 .06.06.21.16.15.09.41.18.72.28.65.18 1.57.31 2.5.29.38.01.76-.01 1.13-.05.06-.01.13-.01.2-.03a6.73 6.73 0 0 0 .81-.13c.08-.02.16-.04.23-.06l.12-.03c.33-.09.57-.21.71-.31.06-.04.1-.06.15-.11.01-.01.02-.03.04-.03-.09-.33-.16-.68-.21-1.03-.05-.33-.08-.64-.08-.97zm-3.81-28.16c.33-.09.57-.21.71-.3.06-.04.1-.06.15-.11.01-.01.02-.03.04-.03a8.7 8.7 0 0 1-.21-1.04c-.06-.37-.09-.75-.09-1.12-.1.05-.21.1-.33.15-.73.32-1.74.48-2.75.51-1.02-.01-2.04-.18-2.77-.47-.13-.04-.24-.09-.34-.15-.01.36-.04.73-.1 1.08-.06.36-.13.71-.23 1.06 0 0 .06.06.21.15s.41.18.72.28c.65.19 1.57.32 2.5.3.93.02 1.85-.12 2.49-.31zM53.12 34.06c-.1.05-.21.1-.32.15-.73.32-1.75.48-2.76.51-1.02-.01-2.04-.18-2.77-.47-.12-.04-.23-.09-.33-.15-.01.36-.05.73-.11 1.08-.06.36-.13.71-.23 1.06v.01s.06.05.21.14c.16.09.41.18.72.28.65.19 1.58.32 2.5.3.93.02 1.86-.12 2.49-.31.33-.09.57-.21.71-.3.07-.04.11-.06.16-.11.01-.01.02-.03.04-.03-.09-.34-.17-.68-.22-1.04-.06-.37-.09-.75-.09-1.12zm-.02 28.68c-.1.05-.21.1-.32.15-.73.33-1.75.48-2.76.51-1.02-.01-2.04-.17-2.77-.47-.12-.04-.23-.09-.34-.15-.01.36-.04.73-.1 1.08-.06.36-.13.71-.23 1.06 0 0 .06.06.21.15s.41.18.72.29c.65.18 1.58.31 2.5.29.93.02 1.85-.12 2.49-.3.33-.1.57-.22.71-.31.06-.04.1-.06.16-.11.01-.01.02-.03.04-.03-.1-.34-.17-.68-.22-1.04-.06-.37-.09-.75-.09-1.12zM36.57 48.92c-.1.05-.21.1-.32.15-.73.33-1.74.48-2.76.51-.47 0-.94-.04-1.39-.11-.29-.05-.57-.1-.83-.18h-.02c-.19-.05-.37-.11-.53-.18-.12-.04-.23-.09-.33-.15 0 .09-.01.17-.01.25-.02.28-.04.56-.09.84-.07.35-.14.71-.24 1.05v.01s.06.05.22.15c.15.09.4.18.72.28.08.02.16.04.25.06.01.01.03.01.05.01.04.02.08.02.13.04.23.04.49.08.76.11.01.01.03.01.04.01.4.05.83.07 1.26.06.93.02 1.86-.12 2.5-.3.32-.09.56-.21.71-.31.06-.04.1-.06.15-.11.01-.01.02-.03.04-.03-.09-.33-.16-.68-.21-1.03-.05-.38-.09-.75-.1-1.13zm3.22-30.6c-.1.05-.22.1-.33.15-.73.32-1.74.48-2.76.51-1.01-.01-2.03-.18-2.76-.47-.13-.04-.24-.09-.34-.15-.01.36-.04.73-.1 1.08-.06.36-.13.71-.23 1.06 0 0 .06.06.21.15s.4.18.72.28c.65.19 1.57.32 2.49.3.94.02 1.86-.12 2.5-.31.32-.09.57-.21.71-.3.06-.04.1-.06.15-.11.01-.01.02-.03.04-.03a8.7 8.7 0 0 1-.21-1.04c-.06-.37-.09-.75-.09-1.12zM26.4 34.06c-.1.05-.21.1-.32.15-.74.32-1.75.48-2.76.51-1.02-.01-2.04-.18-2.77-.47a1.75 1.75 0 0 1-.34-.15c-.01.36-.04.73-.1 1.08-.06.36-.13.71-.23 1.06v.01s.06.05.21.14c.15.09.41.18.72.28.65.19 1.57.32 2.5.3.93.02 1.85-.12 2.49-.31.33-.09.57-.21.71-.3.06-.04.1-.06.15-.11.01-.01.02-.03.04-.03a8.7 8.7 0 0 1-.21-1.04c-.06-.37-.09-.75-.09-1.12zM13.15 18.32c-.1.05-.22.1-.33.15-.73.32-1.74.48-2.76.51-1.01-.01-2.04-.18-2.77-.47-.12-.04-.23-.09-.33-.15-.01.36-.04.73-.1 1.08-.06.36-.13.71-.24 1.06 0 0 .06.06.22.15.15.09.4.18.72.28.65.19 1.57.32 2.49.3.94.02 1.86-.12 2.5-.31.32-.09.57-.21.71-.3.06-.04.1-.06.15-.11.01-.01.02-.03.04-.03a8.7 8.7 0 0 1-.21-1.04c-.06-.37-.09-.75-.09-1.12z"/>
        <path class="st0" d="M10.34 26.42c.53 0 .96 1.14.96 2.54 0 1.4-.43 2.53-.96 2.53s-.96-1.13-.96-2.53.43-2.54.96-2.54z"/>
        <circle class="st1" cx="10.13" cy="5.96" r="1.05"/>
        <path class="st4" d="M97.76 32.28c-.37-2.22-1.06-4.37-2.04-6.39-.73-1.5-1.6-3.01-2.14-4.68-.2.15-.49.32-.83.46-.73.33-1.75.48-2.76.5-1.02 0-2.04-.16-2.77-.46-.38-.14-.67-.32-.86-.47h-.01c-.55 1.66-1.4 3.17-2.12 4.66-1.32 2.67-2.06 5.56-2.3 8.51.5 2.81 2.3 9.67 7.99 9.67 5.03 0 7.54-4.8 8.14-9.04-.05-.92-.15-1.84-.3-2.76zm-7.5-.79c-.53 0-.96-1.13-.96-2.53s.43-2.54.96-2.54.97 1.14.97 2.54c0 1.4-.44 2.53-.97 2.53zm-3.37-13.97c.16.07.36.14.59.21.65.18 1.57.31 2.5.29.93.02 1.85-.12 2.49-.3.26-.07.47-.16.61-.24.08-1.71.55-3.38 1-4.97.32-1.1.64-2.16.78-3.25.13-1.09.13-2.19-.16-3.21a4.6 4.6 0 0 0-.71-1.5c1.09 2.49-.77 5.43-3.93 5.43-4.07 0-4.17-4.14-4.12-5.3-.33.43-.6.92-.76 1.43-.68 2 .08 4.22.71 6.39.47 1.59.94 3.28 1 5.02zm-2.46 30.5c-.36-2.22-1.05-4.37-2.04-6.39l-.12-.24c-.38-.76-.78-1.53-1.16-2.32v-.01c-.32-.68-.62-1.38-.86-2.11-.2.15-.49.32-.83.46-.73.33-1.74.48-2.76.5-1.01 0-2.04-.16-2.77-.46a3.34 3.34 0 0 1-.86-.47h-.01c-.17.5-.36.99-.57 1.47.01 1.71-.44 3.4-.92 4.93-.48 1.64-.94 3.3-1 4.94-.02.53 0 1.07.07 1.6.29 2.17 1.45 4.14 2.45 6.21.51 1.06.94 2.16 1.29 3.28.67.26 1.42.41 2.25.41 4.69 0 7.2-4.17 7.99-8.17.07-.29.12-.58.16-.87-.03-.4-.06-.79-.1-1.19-.06-.52-.12-1.05-.21-1.57zm-5.87-.79c-.53 0-.96-1.13-.96-2.53s.43-2.54.96-2.54.96 1.14.96 2.54c0 1.4-.43 2.53-.96 2.53zm-5.28 11.65c-.29-.81-.62-1.6-1-2.38-.73-1.5-1.61-3.01-2.14-4.69-.21.16-.49.33-.84.47-.06.03-.12.05-.18.07-.18.07-.38.13-.59.18-.09.03-.18.05-.27.06-.19.05-.38.08-.58.11-.21.02-.44.05-.66.06-.16.01-.31.02-.47.02-1.02 0-2.04-.17-2.77-.46a3.13 3.13 0 0 1-.87-.48h-.01c-.17.52-.37 1.03-.6 1.53-.1.24-.21.48-.32.72-.39.83-.82 1.63-1.2 2.42-1.31 2.67-2.06 5.56-2.29 8.51.5 2.81 2.29 9.67 7.98 9.67 3.54 0 5.83-2.36 7.08-5.24.11-.23.2-.46.29-.7.38-1.01.63-2.07.78-3.1-.05-.92-.15-1.85-.3-2.76a23.86 23.86 0 0 0-1.04-4.01zm-6.46 3.22c-.53 0-.96-1.14-.96-2.54 0-1.4.43-2.53.96-2.53s.96 1.13.96 2.53-.43 2.54-.96 2.54zm6.75-28.84c.15.07.35.14.59.21.64.18 1.57.31 2.49.29.93.02 1.86-.12 2.5-.3.25-.07.46-.16.6-.24.09-1.71.55-3.38 1-4.97.32-1.1.65-2.16.78-3.25.13-1.09.13-2.19-.15-3.21-.15-.54-.39-1.05-.71-1.5 1.08 2.49-.77 5.43-3.94 5.43-4.07 0-4.17-4.14-4.12-5.3-.33.43-.59.92-.76 1.43-.68 2 .08 4.22.71 6.39.47 1.59.95 3.28 1.01 5.02zm-2.31 3.4c-.03-.1-.06-.2-.1-.3a4 4 0 0 0-.61-1.2c1.09 2.48-.77 5.42-3.93 5.42-4.07 0-4.17-4.13-4.12-5.29-.34.43-.6.91-.76 1.43-.68 2 .08 4.22.71 6.39.09.31.18.63.27.95.36 1.3.68 2.67.73 4.06.15.07.36.14.59.21.65.19 1.57.32 2.5.3.47.01.93-.02 1.36-.08.33-.04.65-.1.92-.18.08-.01.14-.03.21-.05l.09-.03c.21-.06.4-.14.52-.2.04-.81.16-1.61.33-2.4.01-.03.01-.05.02-.07.18-.86.41-1.69.64-2.5.06-.21.12-.41.18-.61.15-.5.28-.98.39-1.47.09-.39.16-.78.21-1.18.07-.51.1-1.03.09-1.54-.01-.24-.02-.48-.06-.71.01-.01 0-.02 0-.03-.03-.32-.09-.62-.18-.92z"/>
        <path class="st4" d="M61.66 43.88l-.15-.49c-.33-1.08-.67-2.21-.88-3.35-.23-1.18-.24-2.45.14-3.64s1.19-2.27 2.25-2.93c1.05-.68 2.28-1 3.51-1.02 1.22 0 2.45.26 3.54.94.53.33.97.77 1.32 1.27-.05-.79-.14-1.59-.27-2.38-.37-2.22-1.06-4.37-2.04-6.39-.73-1.5-1.61-3.01-2.14-4.68-.21.15-.49.32-.84.46-.73.33-1.74.48-2.75.5-1.02 0-2.04-.16-2.77-.46-.38-.14-.67-.32-.87-.47h-.01c-.54 1.66-1.4 3.17-2.12 4.66-1.31 2.67-2.05 5.56-2.29 8.51.45 2.53 1.94 8.32 6.37 9.47zm1.96-17.46c.53 0 .96 1.14.96 2.54 0 1.4-.43 2.53-.96 2.53s-.96-1.13-.96-2.53.43-2.54.96-2.54zm-3.37-8.9c.15.07.36.14.59.21.65.18 1.57.31 2.5.29.93.02 1.85-.12 2.49-.3.25-.07.47-.16.61-.24.08-1.71.55-3.38.99-4.97.33-1.1.65-2.16.78-3.25.14-1.09.14-2.19-.15-3.21a4.6 4.6 0 0 0-.71-1.5c1.09 2.49-.77 5.43-3.93 5.43-4.07 0-4.17-4.14-4.12-5.3-.34.43-.6.92-.76 1.43-.68 2 .08 4.22.71 6.39.46 1.59.94 3.28 1 5.02zm-2.44 30.5c-.37-2.22-1.06-4.37-2.04-6.39l-.15-.3c-.38-.76-.78-1.53-1.15-2.32-.32-.66-.61-1.35-.84-2.06-.2.15-.49.32-.83.46-.73.33-1.75.48-2.76.5-1.02 0-2.04-.16-2.77-.46-.38-.14-.67-.32-.86-.47h-.01c-.26.76-.57 1.49-.91 2.2-.35.76-.74 1.49-1.09 2.22l-.12.24c-1.23 2.48-1.95 5.15-2.23 7.89-.03.2-.04.41-.06.62.05.31.12.66.21 1.05.42 1.84 1.26 4.44 2.87 6.3-.02-.1-.05-.19-.08-.29-.34-1.09-.67-2.21-.89-3.36-.23-1.17-.24-2.44.15-3.63a5.34 5.34 0 0 1 2.24-2.93c.93-.6 2-.92 3.08-1-.14-.44-.22-.99-.22-1.59 0-1.4.43-2.54.97-2.54.53 0 .96 1.14.96 2.54 0 .63-.09 1.2-.23 1.64.87.11 1.71.38 2.49.87 1.08.67 1.81 1.82 2.12 3.01.63 2.4.01 4.84-.66 6.98-.07.23-.13.46-.2.69 1.67-1.58 2.69-3.91 3.16-6.2.06-.31.11-.61.15-.91-.02-.37-.05-.75-.09-1.12-.05-.55-.12-1.09-.21-1.64zm-2.06 22.3c-.29-.6-.61-1.21-.91-1.82-.11-.22-.23-.45-.33-.68-.34-.71-.66-1.43-.9-2.19-.2.15-.49.32-.83.47-.73.32-1.75.47-2.76.49-1.02 0-2.04-.16-2.77-.45-.38-.15-.67-.33-.86-.48h-.01c-.23.69-.51 1.35-.81 1.99-.12.27-.25.53-.38.79-.31.64-.63 1.27-.93 1.89-1.32 2.66-2.06 5.55-2.3 8.51.5 2.81 2.3 9.66 7.99 9.66 5.03 0 7.54-4.79 8.14-9.03-.05-.93-.15-1.85-.3-2.76-.37-2.23-1.06-4.38-2.04-6.39zm-5.46 5.59c-.53 0-.96-1.13-.96-2.53s.43-2.54.96-2.54c.54 0 .97 1.14.97 2.54 0 1.4-.43 2.53-.97 2.53zm-3.34-42.65c.15.07.35.14.58.21.65.18 1.58.31 2.5.29.93.02 1.86-.12 2.49-.3.26-.07.47-.16.61-.24.08-1.71.55-3.38 1-4.97.32-1.1.65-2.16.78-3.25.13-1.09.13-2.19-.15-3.21-.16-.54-.39-1.05-.71-1.5 1.08 2.49-.77 5.43-3.94 5.43-4.07 0-4.17-4.14-4.12-5.3-.33.43-.6.92-.76 1.43-.68 2 .08 4.22.71 6.39.47 1.59.94 3.28 1.01 5.02z"/>
        <path class="st4" d="M45.21 50.54c-.68 1.99.08 4.22.71 6.39.17.58.35 1.18.5 1.79.26 1.04.46 2.12.5 3.22.16.07.36.14.59.21.65.18 1.58.31 2.5.29.93.02 1.85-.12 2.49-.3.26-.07.47-.16.61-.23.05-1.05.24-2.09.49-3.1.16-.63.34-1.26.51-1.87.32-1.11.65-2.16.78-3.26.13-1.09.13-2.19-.15-3.21-.16-.54-.39-1.05-.72-1.5 1.09 2.49-.77 5.43-3.93 5.43-4.07 0-4.17-4.14-4.12-5.29-.33.42-.6.91-.76 1.43zm-5.99 5.96c-.38-.78-.8-1.56-1.18-2.37-.12-.23-.23-.47-.34-.71-.23-.52-.44-1.06-.62-1.61-.2.16-.48.33-.83.47-.73.32-1.74.48-2.76.5h-.19c-.36-.01-.73-.04-1.08-.09a5.78 5.78 0 0 1-.79-.15c-.13-.03-.26-.06-.37-.11-.12-.03-.23-.07-.34-.11-.37-.14-.67-.32-.86-.48h-.01c-.55 1.67-1.4 3.18-2.12 4.67-.39.78-.72 1.58-1 2.39a23.27 23.27 0 0 0-1.29 6.12c.16.93.47 2.31 1.01 3.74.09.22.19.45.29.68 1.15 2.65 3.18 5.25 6.68 5.25 5.03 0 7.55-4.8 8.15-9.04-.06-.92-.16-1.85-.31-2.76-.36-2.22-1.05-4.37-2.04-6.39zm-5.45 5.6c-.53 0-.96-1.14-.96-2.54 0-1.4.43-2.53.96-2.53s.96 1.13.96 2.53-.43 2.54-.96 2.54zm-3.81-28.63c1.06-.68 2.28-1 3.51-1.02 1.23 0 2.46.26 3.54.94 1.09.67 1.82 1.83 2.12 3.01.63 2.4.01 4.84-.66 6.98l-.15.51c3.91-.94 5.93-5.11 6.46-8.85-.05-.92-.15-1.84-.31-2.76-.36-2.22-1.05-4.37-2.03-6.39-.73-1.5-1.61-3.01-2.14-4.68-.21.15-.49.32-.84.46-.73.33-1.74.48-2.76.5-1.01 0-2.03-.16-2.76-.46-.38-.14-.67-.32-.87-.47h-.01c-.54 1.66-1.4 3.17-2.12 4.66-1.32 2.67-2.06 5.56-2.29 8.51.01.06.02.13.04.2.36-.45.79-.84 1.27-1.14zm7.02-7.05c.53 0 .96 1.14.96 2.54 0 1.4-.43 2.53-.96 2.53s-.96-1.13-.96-2.53.43-2.54.96-2.54zm-3.37-8.9c.15.07.36.14.59.21.65.18 1.57.31 2.49.29.94.02 1.86-.12 2.5-.3.25-.07.47-.16.61-.24.08-1.71.55-3.38.99-4.97.33-1.1.65-2.16.78-3.25.14-1.09.14-2.19-.15-3.21a4.6 4.6 0 0 0-.71-1.5c1.09 2.49-.77 5.43-3.93 5.43-4.07 0-4.17-4.14-4.12-5.3-.34.43-.6.92-.76 1.43-.68 2 .08 4.22.71 6.39.46 1.59.94 3.28 1 5.02z"/>
        <path class="st4" d="M29.22 42.52c.01.02.01.05.02.07l.15.52c.27.89.54 1.82.73 2.77.15.74.25 1.48.28 2.24.13.06.31.12.51.18.03.01.05.02.08.03.05.01.1.03.15.04.25.07.54.13.85.17.47.07.98.1 1.49.09.93.02 1.86-.12 2.5-.31.25-.07.46-.16.6-.23.07-1.38.39-2.74.74-4.04.09-.31.17-.62.26-.93.32-1.11.65-2.16.78-3.26.13-1.08.13-2.19-.15-3.2a4.61 4.61 0 0 0-.71-1.5c1.08 2.48-.77 5.42-3.94 5.42-4.07 0-4.17-4.13-4.12-5.29a5.1 5.1 0 0 0-.45.69v.01a4.706 4.706 0 0 0-.41 1.09c-.11.42-.16.86-.17 1.3-.01.93.19 1.89.44 2.86.12.43.24.85.37 1.28zm-2.31 13.6c1-2.08 2.13-4.05 2.45-6.21.08-.52.11-1.03.09-1.55-.03-1.65-.48-3.31-.99-4.97-.33-1.08-.67-2.21-.88-3.35-.12-.57-.18-1.17-.16-1.76-.19-.43-.37-.87-.51-1.33-.21.15-.49.32-.83.46-.74.33-1.75.48-2.76.5-1.02 0-2.04-.16-2.77-.46-.38-.14-.67-.32-.87-.47h-.01c-.23.68-.5 1.34-.8 1.98-.35.75-.72 1.47-1.07 2.19-.09.16-.17.33-.25.49-1.27 2.58-2 5.36-2.26 8.21l-.03.3c.06.35.14.75.25 1.2.75 3.2 2.74 8.47 7.74 8.47.86 0 1.65-.14 2.36-.4.35-1.14.79-2.24 1.3-3.3zm-4.84-8.89c-.53 0-.96-1.13-.96-2.53s.43-2.54.96-2.54.96 1.14.96 2.54c0 1.4-.43 2.53-.96 2.53zm-1.85-13.97c.15.07.36.14.59.21.65.18 1.57.31 2.5.29.93.02 1.85-.12 2.49-.3.25-.07.47-.16.61-.24.08-1.71.55-3.38.99-4.97.33-1.1.65-2.16.79-3.25.13-1.09.13-2.19-.16-3.21a4.6 4.6 0 0 0-.71-1.5c1.09 2.49-.77 5.43-3.93 5.43-4.07 0-4.17-4.14-4.12-5.3-.34.43-.6.92-.76 1.43-.68 2 .08 4.22.71 6.39.46 1.59.94 3.28 1 5.02zm-2.39-.98c-.36-2.22-1.05-4.37-2.04-6.39-.73-1.5-1.6-3.01-2.14-4.68-.2.15-.48.32-.83.46-.73.33-1.74.48-2.76.5-1.01 0-2.04-.16-2.77-.46a3.34 3.34 0 0 1-.86-.47h-.01c-.55 1.66-1.4 3.17-2.12 4.66-1.32 2.67-2.06 5.56-2.29 8.51.5 2.81 2.29 9.67 7.98 9.67 5.03 0 7.55-4.8 8.15-9.04-.05-.92-.16-1.84-.31-2.76zm-7.49-.79c-.53 0-.96-1.13-.96-2.53s.43-2.54.96-2.54.96 1.14.96 2.54c0 1.4-.43 2.53-.96 2.53zM6.97 17.52c.15.07.35.14.59.21.65.18 1.57.31 2.49.29.94.02 1.86-.12 2.5-.3.25-.07.46-.16.61-.24.08-1.71.54-3.38.99-4.97.33-1.1.65-2.16.78-3.25.13-1.09.13-2.19-.15-3.21-.15-.54-.39-1.05-.71-1.5 1.08 2.49-.77 5.43-3.94 5.43-4.06 0-4.17-4.14-4.11-5.3-.34.43-.6.92-.77 1.43-.67 2 .09 4.22.71 6.39.47 1.59.95 3.28 1.01 5.02z"/>
        <path class="st5" d="M84.58 51.65c-.79 4-3.3 8.17-7.99 8.17-.83 0-1.58-.15-2.25-.41.34 1.1.61 2.22.79 3.35.34 2.08.4 4.21.25 6.32.43.06.87.08 1.3.09.21.02.42 0 .64 0 .22 0 .43-.02.64-.04.41-.03.83-.1 1.23-.18.39-.1.78-.23 1.12-.43.16-.1.32-.21.46-.33.11-.11.24-.29.26-.37h.11c-.01-.31.13-.56.23-.83l.3-.79.58-1.6c.38-1.08.73-2.15 1.05-3.24.63-2.18 1.2-4.38 1.37-6.61.08-.86.11-1.73.11-2.6 0-.46-.02-.91-.04-1.37-.04.29-.09.58-.16.87zm13.48-16.61c-.6 4.24-3.11 9.04-8.14 9.04-5.69 0-7.49-6.86-7.99-9.67-.11 1.46-.11 2.92.01 4.37.39.82.82 1.65 1.22 2.49 1.02 2.09 1.72 4.33 2.08 6.62.23 1.36.33 2.75.34 4.13.07.09.2.23.32.33.15.12.31.22.49.32.35.2.74.34 1.13.45.79.22 1.65.3 2.49.31.21.02.41 0 .64 0 .22 0 .42-.02.64-.04.4-.03.83-.1 1.22-.18.4-.1.78-.23 1.13-.43.16-.1.31-.21.46-.33.11-.11.24-.29.26-.37h.11c-.01-.31.12-.56.22-.83l.31-.79.58-1.6c.37-1.08.73-2.15 1.05-3.24.63-2.18 1.2-4.38 1.37-6.61.11-1.32.13-2.65.06-3.97zM73.84 68.75c-.09.24-.18.47-.29.7-1.25 2.88-3.54 5.24-7.08 5.24-5.69 0-7.48-6.86-7.98-9.67-.12 1.52-.11 3.06.02 4.58.17 2.26.73 4.44 1.36 6.62.65 2.15 1.4 4.29 2.23 6.37.06.09.22.25.36.36.15.13.31.23.48.33.36.19.74.33 1.14.44.79.23 1.64.31 2.49.32.21.02.41 0 .63 0 .23 0 .43-.02.64-.04.41-.03.84-.1 1.23-.18.4-.11.78-.24 1.13-.43.16-.1.31-.21.45-.33.12-.12.25-.3.27-.37h.11c-.01-.31.12-.57.22-.83l.31-.79.57-1.61a76.1 76.1 0 0 0 1.06-3.23c.62-2.15 1.18-4.31 1.36-6.51 0-.03.01-.07.01-.1.02-.22.04-.44.04-.67.07-1.1.08-2.2.02-3.3-.15 1.03-.4 2.09-.78 3.1zM57.96 51.69c-.47 2.29-1.49 4.62-3.16 6.2-.4 1.41-.74 2.84-.8 4.25-.02.53 0 1.06.08 1.59.13.98.43 1.92.83 2.85l.14-.38.58-1.6c.37-1.08.73-2.15 1.05-3.24.63-2.18 1.2-4.38 1.37-6.61.07-.86.1-1.72.1-2.58 0-.46-.02-.93-.04-1.39-.04.3-.09.6-.15.91zm-1.42-10.42c1.02 2.09 1.72 4.33 2.08 6.62.23 1.37.33 2.77.34 4.17.08.09.2.21.3.29.15.12.31.22.48.32.36.2.75.34 1.14.45.16.04.32.08.48.11.49-1.08.88-2.17 1.06-3.32.08-.52.11-1.03.09-1.55-.03-1.49-.4-2.98-.85-4.48-4.43-1.15-5.92-6.94-6.37-9.47-.11 1.44-.11 2.89 0 4.32.4.84.84 1.68 1.25 2.54zM38.62 53.32c.2-.03.41-.07.61-.11.4-.1.78-.23 1.13-.43.16-.1.31-.21.45-.33.08-.08.18-.2.23-.29 0-1.43.11-2.87.34-4.28.36-2.29 1.07-4.54 2.08-6.62.43-.89.88-1.77 1.29-2.65.08-1.19.09-2.38.03-3.57-.53 3.74-2.55 7.91-6.46 8.85-.43 1.47-.79 2.96-.84 4.43-.02.53 0 1.07.07 1.6.15 1.18.57 2.29 1.07 3.4zM49.95 88.5c-5.69 0-7.49-6.85-7.99-9.66-.12 1.52-.11 3.06.02 4.58.18 2.25.73 4.43 1.36 6.61.65 2.16 1.4 4.3 2.24 6.37.06.1.21.26.35.37.15.12.31.22.49.32.35.2.74.34 1.13.45.79.22 1.65.31 2.49.32.21.02.41 0 .64 0 .22 0 .42-.02.64-.05.4-.03.83-.1 1.22-.18.4-.1.79-.23 1.13-.42.16-.11.31-.22.46-.34.11-.11.24-.29.26-.36h.11c-.01-.32.12-.57.22-.84l.31-.79.58-1.6c.37-1.07.73-2.15 1.05-3.24.63-2.18 1.2-4.38 1.37-6.61.11-1.32.13-2.65.06-3.96-.6 4.24-3.11 9.03-8.14 9.03zm-7.96-38.35c-.05.59-.08 1.19-.08 1.78-.02.94.01 1.88.1 2.81.17 2.25.73 4.43 1.35 6.61.52 1.71 1.1 3.41 1.74 5.08.36-.88.65-1.78.79-2.71.08-.52.11-1.02.09-1.54-.03-1.55-.44-3.12-.9-4.67l-.01-.01c-1.61-1.86-2.45-4.46-2.87-6.3-.09-.39-.16-.74-.21-1.05zm-8.57 24.54c-3.5 0-5.53-2.6-6.68-5.25-.1-.23-.2-.46-.29-.68a20.93 20.93 0 0 1-1.01-3.74 26.84 26.84 0 0 0-.02 4.01c.01.19.02.38.04.57 0 .05.01.11.02.16.18 2.2.72 4.33 1.34 6.46.65 2.15 1.4 4.29 2.23 6.37.06.09.21.25.35.36.16.13.32.23.49.33.36.19.74.33 1.14.44.79.23 1.64.31 2.48.32.21.02.42 0 .64 0 .22 0 .43-.02.64-.04.41-.03.83-.1 1.23-.18.39-.11.78-.24 1.12-.43.17-.1.32-.21.46-.33.11-.12.24-.3.26-.37h.11c-.01-.31.13-.57.23-.83l.3-.79.58-1.61a76.1 76.1 0 0 0 1.06-3.23c.62-2.18 1.19-4.38 1.36-6.61.12-1.32.14-2.65.07-3.97-.6 4.24-3.12 9.04-8.15 9.04zm-4.77-40.28c-.01.09-.01.17-.01.26.02-.02.03-.04.05-.06-.02-.07-.03-.14-.04-.2zm-3.04 25.01c-.71.26-1.5.4-2.36.4-5 0-6.99-5.27-7.74-8.47-.11-.45-.19-.85-.25-1.2-.05.66-.08 1.32-.08 1.98-.01.87.03 1.74.1 2.61.17 2.25.73 4.43 1.36 6.61.65 2.15 1.4 4.29 2.23 6.37.06.09.22.26.36.37.15.12.31.22.49.32.35.2.74.34 1.13.45.79.22 1.64.3 2.49.31.21.02.41 0 .64 0 .21 0 .4-.02.6-.04-.16-2.12-.1-4.27.25-6.38.18-1.12.44-2.24.78-3.33zM18.12 38.4c.07-1.12.08-2.24.02-3.36-.6 4.24-3.12 9.04-8.15 9.04-5.69 0-7.48-6.86-7.98-9.67-.12 1.53-.11 3.07.02 4.59.17 2.25.73 4.43 1.36 6.61.65 2.15 1.4 4.29 2.23 6.37.06.09.21.26.35.37.16.12.32.22.49.32.36.2.74.34 1.14.45.79.22 1.64.3 2.48.31.22.02.42 0 .64 0 .23 0 .43-.02.64-.04.41-.03.83-.1 1.23-.18.39-.1.78-.23 1.12-.43.17-.1.32-.21.46-.33.05-.05.11-.12.15-.19-.01-1.46.1-2.93.33-4.38.37-2.29 1.08-4.54 2.08-6.62.47-.97.96-1.91 1.39-2.86z"/>
        <path class="st6" d="M98.57 32.15c-.37-2.29-1.07-4.53-2.08-6.62-.99-2.07-2.16-4.05-2.45-6.22-.07-.53-.09-1.06-.07-1.59.06-1.65.52-3.31 1-4.94.67-2.14 1.29-4.59.66-6.98-.31-1.19-1.04-2.34-2.12-3.01-1.09-.68-2.32-.95-3.54-.95-1.23.02-2.46.35-3.51 1.03a5.34 5.34 0 0 0-2.24 2.93c-.39 1.19-.38 2.45-.15 3.63.22 1.15.55 2.27.89 3.36.5 1.65.96 3.32.99 4.97.02.52-.01 1.02-.09 1.54-.33 2.16-1.45 4.14-2.46 6.22-1 2.08-1.71 4.33-2.08 6.62-.22 1.39-.33 2.8-.33 4.21a9.68 9.68 0 0 1-.27-1.3c-.07-.53-.09-1.06-.07-1.59.06-1.65.51-3.31.99-4.94.67-2.14 1.29-4.59.66-6.98-.3-1.19-1.03-2.34-2.12-3.01-1.08-.68-2.31-.95-3.54-.95-1.23.02-2.45.35-3.51 1.03a5.385 5.385 0 0 0-2.24 2.93c-.39 1.19-.38 2.45-.14 3.63.21 1.15.54 2.27.88 3.36.51 1.65.96 3.32.99 4.97.02.52-.01 1.02-.09 1.54-.06.41-.15.81-.27 1.2-.01-1.37-.11-2.74-.33-4.09-.37-2.29-1.07-4.53-2.08-6.62-1-2.07-2.16-4.05-2.45-6.22-.07-.53-.09-1.06-.07-1.59.06-1.65.52-3.31 1-4.94.67-2.14 1.28-4.59.66-6.98-.31-1.19-1.04-2.34-2.12-3.01-1.09-.68-2.32-.95-3.54-.95-1.23.02-2.46.35-3.51 1.03-1.06.66-1.87 1.73-2.25 2.93-.38 1.19-.37 2.45-.14 3.63.22 1.15.55 2.27.88 3.36.51 1.65.97 3.32 1 4.97.02.52-.01 1.02-.09 1.54-.33 2.16-1.45 4.14-2.46 6.22-1 2.08-1.71 4.33-2.08 6.62a27.43 27.43 0 0 0-.33 4.15c-.11-.41-.2-.82-.25-1.24-.07-.53-.09-1.06-.07-1.59.06-1.65.51-3.31.99-4.94.67-2.14 1.29-4.59.66-6.98-.31-1.19-1.04-2.34-2.12-3.01-1.09-.68-2.31-.95-3.54-.95-1.23.02-2.46.35-3.51 1.03a5.34 5.34 0 0 0-2.24 2.93c-.39 1.19-.38 2.45-.14 3.63.21 1.15.54 2.27.88 3.36.51 1.65.96 3.32.99 4.97.02.52-.01 1.02-.09 1.54-.06.43-.16.85-.29 1.27 0-1.39-.11-2.79-.33-4.16-.37-2.29-1.07-4.53-2.08-6.62-1-2.07-2.16-4.05-2.45-6.22-.07-.53-.09-1.06-.07-1.59.06-1.65.52-3.31.99-4.94.67-2.14 1.29-4.59.66-6.98-.3-1.19-1.03-2.34-2.12-3.01-1.08-.68-2.31-.95-3.54-.95-1.22.02-2.45.35-3.51 1.03-1.05.66-1.86 1.73-2.24 2.93-.38 1.19-.37 2.45-.14 3.63.21 1.15.55 2.27.88 3.36.51 1.65.97 3.32 1 4.97.02.52-.01 1.02-.09 1.54-.33 2.16-1.45 4.14-2.46 6.22-1 2.08-1.71 4.33-2.08 6.62-.23 1.42-.33 2.86-.33 4.29-.01.02-.01.04-.01.06-.16-.47-.26-.95-.33-1.44-.07-.53-.09-1.06-.07-1.59.06-1.65.52-3.31 1-4.94.67-2.14 1.28-4.59.66-6.98-.31-1.19-1.04-2.34-2.12-3.01-1.09-.68-2.32-.95-3.54-.95-1.23.02-2.46.35-3.51 1.03-1.06.66-1.87 1.73-2.25 2.93-.38 1.19-.37 2.45-.14 3.63.22 1.15.55 2.27.88 3.36.51 1.65.97 3.32 1 4.97.02.52-.01 1.02-.09 1.54-.05.34-.12.67-.22 1-.01-1.3-.12-2.61-.33-3.89-.36-2.29-1.06-4.53-2.08-6.62-.99-2.07-2.16-4.05-2.44-6.22-.07-.53-.09-1.06-.07-1.59.06-1.65.52-3.31.99-4.94.67-2.14 1.29-4.59.66-6.98-.3-1.19-1.03-2.34-2.12-3.01-1.08-.68-2.31-.95-3.54-.95-1.22.02-2.45.35-3.51 1.03-1.05.66-1.86 1.73-2.24 2.93-.38 1.19-.37 2.45-.14 3.63.21 1.15.55 2.27.88 3.36.51 1.65.97 3.32 1 4.97.02.52-.01 1.02-.1 1.54-.32 2.16-1.45 4.14-2.45 6.22-1 2.08-1.71 4.33-2.08 6.62-.38 2.29-.42 4.64-.21 6.93.19 2.31.78 4.59 1.43 6.78.67 2.19 1.44 4.35 2.31 6.48l.01.03.01.01c.18.28.35.41.55.58.19.16.39.28.6.39.41.24.85.39 1.3.51.88.24 1.78.33 2.67.33.24.01.46 0 .67-.01.22 0 .45-.02.67-.04.46-.03.9-.11 1.35-.21.45-.11.89-.26 1.32-.51.09-.05.18-.11.26-.18.02.53.05 1.06.1 1.58.19 2.31.78 4.59 1.43 6.78.67 2.19 1.44 4.35 2.31 6.48l.01.03.01.01c.19.28.35.41.55.58.19.16.4.28.6.39.42.24.85.39 1.3.51.88.24 1.78.33 2.68.33.23.01.45 0 .67-.01.2 0 .42-.02.64-.04.2 2.25.78 4.45 1.41 6.58.67 2.19 1.44 4.35 2.31 6.48l.01.03.01.01c.18.29.34.42.55.58.19.16.39.29.6.4.41.23.85.38 1.29.51.89.24 1.79.33 2.68.33.23.01.46 0 .67-.01.21 0 .45-.02.67-.04.46-.03.9-.11 1.35-.21.45-.12.89-.27 1.32-.51.2-.12.4-.26.59-.44.19-.2.34-.35.46-.71l.09-.25c.1-.16.16-.34.22-.5l.31-.8.6-1.61c.39-1.08.74-2.17 1.08-3.27.64-2.2 1.23-4.44 1.43-6.76.2-2.3.16-4.64-.22-6.92-.36-2.29-1.06-4.54-2.08-6.63-.34-.71-.71-1.42-1.04-2.12l.45-.09c.45-.11.9-.26 1.32-.51.11-.07.23-.14.34-.23.02.55.05 1.09.1 1.63.2 2.31.78 4.59 1.43 6.78.6 1.97 1.29 3.92 2.07 5.85-.39.83-.81 1.66-1.22 2.5a23.626 23.626 0 0 0-2.08 6.62c-.38 2.3-.42 4.64-.22 6.93.2 2.31.78 4.59 1.43 6.78.67 2.19 1.44 4.35 2.32 6.48l.01.03.01.01c.18.28.34.42.54.58.2.16.4.28.6.39.42.24.85.39 1.3.51.88.24 1.79.34 2.68.34.23.01.45 0 .67-.01.21 0 .44-.02.67-.04.45-.04.9-.12 1.35-.22.44-.11.89-.26 1.32-.5.2-.13.4-.27.58-.44.2-.2.35-.36.47-.71l.09-.25c.09-.17.15-.34.21-.5l.32-.8.6-1.62c.38-1.07.74-2.17 1.07-3.26.65-2.2 1.24-4.44 1.43-6.77.21-2.29.17-4.63-.21-6.92-.37-2.29-1.07-4.53-2.08-6.62-.39-.82-.82-1.63-1.2-2.44.03-.08.06-.17.1-.25l.31-.8.6-1.62c.38-1.07.74-2.17 1.07-3.26.65-2.21 1.24-4.45 1.43-6.77.05-.58.09-1.17.1-1.75.14.11.3.2.45.28.42.24.85.39 1.3.51.12.03.24.06.36.08-.35.72-.72 1.45-1.08 2.19-1 2.08-1.71 4.34-2.08 6.63-.37 2.29-.41 4.63-.21 6.93.19 2.31.78 4.58 1.43 6.77.67 2.19 1.44 4.35 2.31 6.48l.01.03.01.01c.19.29.35.42.55.58.19.16.4.29.6.4.42.23.85.38 1.3.51.88.24 1.78.33 2.68.33.23.01.45 0 .66-.01.22 0 .45-.02.67-.04.46-.03.91-.11 1.35-.21.45-.12.9-.27 1.32-.51.21-.12.41-.26.59-.44.19-.2.35-.35.47-.71l.09-.25c.09-.16.15-.34.21-.5l.32-.8.59-1.61c.39-1.08.74-2.17 1.08-3.27.64-2.15 1.21-4.34 1.41-6.6.45.06.9.08 1.35.08.23.01.46 0 .67-.01.21 0 .45-.02.67-.04.46-.03.9-.11 1.35-.21.45-.11.89-.26 1.32-.51.2-.12.4-.26.59-.43.19-.21.34-.36.46-.71l.09-.26c.1-.16.16-.33.22-.49l.31-.8.6-1.62c.39-1.07.74-2.17 1.08-3.26.64-2.21 1.23-4.45 1.43-6.77.05-.58.09-1.17.1-1.76.15.12.31.21.46.29.42.24.85.39 1.3.51.88.24 1.78.33 2.68.33.23.01.45 0 .67-.01.21 0 .44-.02.67-.04.45-.03.9-.11 1.35-.21.44-.11.89-.26 1.31-.51.21-.12.41-.26.59-.43.2-.21.35-.36.47-.71l.09-.26c.09-.16.15-.33.21-.49l.32-.8.6-1.62c.38-1.07.74-2.17 1.07-3.26.65-2.21 1.24-4.45 1.43-6.77.2-2.29.16-4.64-.21-6.92zM86.78 19.44c.06-.35.09-.72.1-1.08.1.06.22.11.34.15.73.29 1.75.46 2.77.47 1.01-.03 2.03-.19 2.76-.51.11-.05.22-.1.32-.15 0 .37.03.75.09 1.12.05.36.12.7.22 1.04-.02 0-.04.02-.05.03-.05.05-.09.07-.15.11-.14.09-.38.21-.71.3-.64.19-1.56.33-2.49.31-.93.02-1.85-.11-2.5-.3-.31-.1-.57-.19-.72-.28-.15-.09-.21-.15-.21-.15.1-.35.17-.7.23-1.06zm-.89-6.94c-.63-2.17-1.39-4.39-.71-6.39.16-.51.43-1 .76-1.43.29-.38.66-.71 1.07-.97.86-.56 1.92-.86 2.98-.88 1.03-.01 2.14.23 2.99.77.41.25.74.58 1.01.95.33.45.56.96.71 1.5.29 1.02.29 2.12.16 3.21-.14 1.09-.46 2.15-.78 3.25-.45 1.59-.92 3.26-1 4.97-.14.08-.35.17-.61.24-.64.18-1.56.32-2.49.3-.93.02-1.85-.11-2.5-.29a5.54 5.54 0 0 1-.59-.21c-.06-1.74-.53-3.43-1-5.02zM73.22 36.24c.1-.35.17-.7.24-1.06.06-.35.09-.72.1-1.08.1.06.21.11.33.15.73.29 1.76.46 2.77.47 1.02-.03 2.03-.19 2.76-.51.11-.05.22-.1.32-.15 0 .37.04.75.1 1.12.05.36.12.7.21 1.04-.02 0-.03.02-.04.03-.05.05-.09.07-.15.11-.15.09-.39.21-.71.3-.64.19-1.57.33-2.5.31-.92.02-1.85-.11-2.49-.3-.32-.1-.57-.19-.72-.28-.16-.09-.22-.14-.22-.14v-.01zm-.66-8c-.63-2.17-1.39-4.39-.71-6.39.17-.51.43-1 .76-1.43.3-.38.66-.71 1.07-.97.86-.56 1.93-.86 2.98-.88 1.04-.01 2.14.23 2.99.77.41.25.74.58 1.02.95.32.45.56.96.71 1.5.28 1.02.28 2.12.15 3.21-.13 1.09-.46 2.15-.78 3.25-.45 1.59-.91 3.26-1 4.97-.14.08-.35.17-.6.24-.64.18-1.57.32-2.5.3-.92.02-1.85-.11-2.49-.29-.24-.07-.44-.14-.59-.21-.06-1.74-.54-3.43-1.01-5.02zm-3.65 23.32c-.07.02-.15.04-.23.06-.04.01-.09.02-.14.03-.21.04-.44.08-.67.1-.07.02-.14.02-.2.03-.37.04-.75.06-1.13.05-.93.02-1.85-.11-2.5-.29-.31-.1-.57-.19-.72-.28-.15-.1-.21-.16-.21-.16.1-.34.17-.7.23-1.05.06-.36.09-.72.1-1.09.1.06.21.11.34.15.73.3 1.75.46 2.77.47.42-.01.84-.05 1.24-.11.32-.04.63-.1.91-.19.03 0 .06-.01.09-.03a5.286 5.286 0 0 0 .84-.33c0 .05 0 .11.01.16 0 .33.03.64.08.97.05.35.12.7.21 1.03-.02 0-.03.02-.04.03-.05.05-.09.07-.15.11-.14.1-.38.22-.71.31l-.12.03zm-6.46-8.45c-.63-2.17-1.39-4.39-.71-6.39.16-.52.42-1 .76-1.43.29-.39.66-.71 1.06-.97a5.78 5.78 0 0 1 2.99-.89c1.03-.01 2.14.24 2.99.77.4.26.74.58 1.01.96a4 4 0 0 1 .61 1.2 4.682 4.682 0 0 1 .28 1.22c0 .01.01.02 0 .03.04.23.05.47.06.71.01.51-.02 1.03-.09 1.54-.05.4-.12.79-.21 1.18-.11.49-.24.97-.39 1.47-.06.2-.12.4-.18.61-.23.81-.46 1.64-.64 2.5-.01.02-.01.04-.02.07a14.9 14.9 0 0 0-.33 2.4c-.12.06-.31.14-.52.2l-.09.03c-.07.02-.13.04-.21.05-.27.08-.59.14-.92.18-.43.06-.89.09-1.36.08-.93.02-1.85-.11-2.5-.3a4.84 4.84 0 0 1-.59-.21c-.05-1.39-.37-2.76-.73-4.06-.09-.32-.18-.64-.27-.95zm-2.31-23.67c.06-.35.09-.72.1-1.08.1.06.21.11.34.15.73.29 1.75.46 2.77.47 1.01-.03 2.02-.19 2.75-.51.12-.05.23-.1.33-.15 0 .37.03.75.09 1.12.05.36.12.7.21 1.04-.02 0-.03.02-.04.03-.05.05-.09.07-.15.11-.14.09-.38.21-.71.3-.64.19-1.56.33-2.49.31-.93.02-1.85-.11-2.5-.3-.31-.1-.57-.19-.72-.28-.15-.09-.21-.15-.21-.15.1-.35.17-.7.23-1.06zm-.89-6.94c-.63-2.17-1.39-4.39-.71-6.39.16-.51.42-1 .76-1.43.29-.38.66-.71 1.06-.97.87-.56 1.93-.86 2.99-.88 1.03-.01 2.14.23 2.99.77.4.25.74.58 1.01.95.33.45.56.96.71 1.5.29 1.02.29 2.12.15 3.21-.13 1.09-.45 2.15-.78 3.25-.44 1.59-.91 3.26-.99 4.97-.14.08-.36.17-.61.24-.64.18-1.56.32-2.49.3-.93.02-1.85-.11-2.5-.29a4.84 4.84 0 0 1-.59-.21c-.06-1.74-.54-3.43-1-5.02zM46.6 36.24c.1-.35.17-.7.23-1.06.06-.35.1-.72.11-1.08.1.06.21.11.33.15.73.29 1.75.46 2.77.47 1.01-.03 2.03-.19 2.76-.51.11-.05.22-.1.32-.15 0 .37.03.75.09 1.12.05.36.13.7.22 1.04-.02 0-.03.02-.04.03-.05.05-.09.07-.16.11-.14.09-.38.21-.71.3-.63.19-1.56.33-2.49.31-.92.02-1.85-.11-2.5-.3-.31-.1-.56-.19-.72-.28-.15-.09-.21-.14-.21-.14v-.01zm-.66-8c-.63-2.17-1.39-4.39-.71-6.39.16-.51.43-1 .76-1.43.3-.38.66-.71 1.07-.97.86-.56 1.92-.86 2.98-.88 1.03-.01 2.14.23 2.99.77.41.25.74.58 1.02.95.32.45.55.96.71 1.5.28 1.02.28 2.12.15 3.21-.13 1.09-.46 2.15-.78 3.25-.45 1.59-.92 3.26-1 4.97-.14.08-.35.17-.61.24-.63.18-1.56.32-2.49.3-.92.02-1.85-.11-2.5-.29-.23-.07-.43-.14-.58-.21-.07-1.74-.54-3.43-1.01-5.02zm-12.44-8.8c.06-.35.09-.72.1-1.08.1.06.21.11.34.15.73.29 1.75.46 2.76.47 1.02-.03 2.03-.19 2.76-.51.11-.05.23-.1.33-.15 0 .37.03.75.09 1.12.05.36.12.7.21 1.04-.02 0-.03.02-.04.03-.05.05-.09.07-.15.11-.14.09-.39.21-.71.3-.64.19-1.56.33-2.5.31-.92.02-1.84-.11-2.49-.3-.32-.1-.57-.19-.72-.28-.15-.09-.21-.15-.21-.15.1-.35.17-.7.23-1.06zm-.89-6.94c-.63-2.17-1.39-4.39-.71-6.39.16-.51.42-1 .76-1.43.29-.38.66-.71 1.06-.97.86-.56 1.93-.86 2.98-.88 1.04-.01 2.14.23 3 .77.4.25.74.58 1.01.95.33.45.56.96.71 1.5.29 1.02.29 2.12.15 3.21-.13 1.09-.45 2.15-.78 3.25-.44 1.59-.91 3.26-.99 4.97-.14.08-.36.17-.61.24-.64.18-1.56.32-2.5.3-.92.02-1.84-.11-2.49-.29a4.84 4.84 0 0 1-.59-.21c-.06-1.74-.54-3.43-1-5.02zm-3.62 23.48c.13-.24.28-.47.45-.69.3-.39.66-.71 1.07-.97.86-.56 1.93-.87 2.98-.89 1.04-.01 2.14.24 2.99.77.41.26.74.58 1.02.96.32.44.56.95.71 1.5.28 1.01.28 2.12.15 3.2-.13 1.1-.46 2.15-.78 3.26-.09.31-.17.62-.26.93-.35 1.3-.67 2.66-.74 4.04-.14.07-.35.16-.6.23-.64.19-1.57.33-2.5.31a9.04 9.04 0 0 1-1.49-.09c-.31-.04-.6-.1-.85-.17-.05-.01-.1-.03-.15-.04-.03-.01-.05-.02-.08-.03-.2-.06-.38-.12-.51-.18-.03-.76-.13-1.5-.28-2.24-.19-.95-.46-1.88-.73-2.77l-.15-.52c-.01-.02-.01-.05-.02-.07a61.6 61.6 0 0 1-.37-1.28c-.25-.97-.45-1.93-.44-2.86.01-.44.06-.88.17-1.3.02-.12.06-.24.1-.36.08-.25.19-.5.31-.73v-.01zm3.23 15.79c-.01 0-.03 0-.04-.01-.27-.03-.53-.07-.76-.11-.05-.02-.09-.02-.13-.04-.02 0-.04 0-.05-.01-.09-.02-.17-.04-.25-.06-.32-.1-.57-.19-.72-.28-.16-.1-.22-.15-.22-.15v-.01c.1-.34.17-.7.24-1.05.05-.28.07-.56.09-.84 0-.08.01-.16.01-.25.1.06.21.11.33.15.16.07.34.13.53.18h.02c.26.08.54.13.83.18.45.07.92.11 1.39.11 1.02-.03 2.03-.18 2.76-.51.11-.05.22-.1.32-.15.01.38.05.75.1 1.13.05.35.12.7.21 1.03-.02 0-.03.02-.04.03-.05.05-.09.07-.15.11-.15.1-.39.22-.71.31-.64.18-1.57.32-2.5.3-.43.01-.86-.01-1.26-.06zM19.88 36.24c.1-.35.17-.7.23-1.06.06-.35.09-.72.1-1.08.1.06.22.11.34.15.73.29 1.75.46 2.77.47 1.01-.03 2.02-.19 2.76-.51.11-.05.22-.1.32-.15 0 .37.03.75.09 1.12.05.36.12.7.21 1.04-.02 0-.03.02-.04.03-.05.05-.09.07-.15.11-.14.09-.38.21-.71.3-.64.19-1.56.33-2.49.31-.93.02-1.85-.11-2.5-.3-.31-.1-.57-.19-.72-.28-.15-.09-.21-.14-.21-.14v-.01zm-.66-8c-.63-2.17-1.39-4.39-.71-6.39.16-.51.42-1 .76-1.43.29-.38.66-.71 1.06-.97.87-.56 1.93-.86 2.99-.88 1.03-.01 2.14.23 2.99.77.4.25.74.58 1.01.95.33.45.56.96.71 1.5.29 1.02.29 2.12.16 3.21-.14 1.09-.46 2.15-.79 3.25-.44 1.59-.91 3.26-.99 4.97-.14.08-.36.17-.61.24-.64.18-1.56.32-2.49.3-.93.02-1.85-.11-2.5-.29a4.84 4.84 0 0 1-.59-.21c-.06-1.74-.54-3.43-1-5.02zm-12.36-8.8c.06-.35.09-.72.1-1.08.1.06.21.11.33.15.73.29 1.76.46 2.77.47 1.02-.03 2.03-.19 2.76-.51.11-.05.23-.1.33-.15 0 .37.03.75.09 1.12.05.36.12.7.21 1.04-.02 0-.03.02-.04.03-.05.05-.09.07-.15.11-.14.09-.39.21-.71.3-.64.19-1.56.33-2.5.31-.92.02-1.84-.11-2.49-.3-.32-.1-.57-.19-.72-.28-.16-.09-.22-.15-.22-.15.11-.35.18-.7.24-1.06zm-.9-6.94c-.62-2.17-1.38-4.39-.71-6.39.17-.51.43-1 .77-1.43.29-.38.65-.71 1.06-.97.86-.56 1.93-.86 2.98-.88 1.04-.01 2.14.23 3 .77.4.25.74.58 1.01.95.32.45.56.96.71 1.5.28 1.02.28 2.12.15 3.21-.13 1.09-.45 2.15-.78 3.25-.45 1.59-.91 3.26-.99 4.97-.15.08-.36.17-.61.24-.64.18-1.56.32-2.5.3-.92.02-1.84-.11-2.49-.29-.24-.07-.44-.14-.59-.21-.06-1.74-.54-3.43-1.01-5.02zm8.21 39.95c-.14.12-.29.23-.46.33-.34.2-.73.33-1.12.43-.4.08-.82.15-1.23.18-.21.02-.41.04-.64.04-.22 0-.42.02-.64 0-.84-.01-1.69-.09-2.48-.31-.4-.11-.78-.25-1.14-.45-.17-.1-.33-.2-.49-.32-.14-.11-.29-.28-.35-.37-.83-2.08-1.58-4.22-2.23-6.37-.63-2.18-1.19-4.36-1.36-6.61-.13-1.52-.14-3.06-.02-4.59.23-2.95.97-5.84 2.29-8.51.72-1.49 1.57-3 2.12-4.66h.01c.19.15.49.33.86.47.73.3 1.76.46 2.77.46 1.02-.02 2.03-.17 2.76-.5.35-.14.63-.31.83-.46.54 1.67 1.41 3.18 2.14 4.68.99 2.02 1.68 4.17 2.04 6.39.15.92.26 1.84.31 2.76.06 1.12.05 2.24-.02 3.36-.43.95-.92 1.89-1.39 2.86-1 2.08-1.71 4.33-2.08 6.62-.23 1.45-.34 2.92-.33 4.38-.04.07-.1.14-.15.19zm9.81 16.72c-.23 0-.43.02-.64 0-.85-.01-1.7-.09-2.49-.31a5.03 5.03 0 0 1-1.13-.45c-.18-.1-.34-.2-.49-.32-.14-.11-.3-.28-.36-.37-.83-2.08-1.58-4.22-2.23-6.37-.63-2.18-1.19-4.36-1.36-6.61-.07-.87-.11-1.74-.1-2.61 0-.66.03-1.32.08-1.98l.03-.3c.26-2.85.99-5.63 2.26-8.21.08-.16.16-.33.25-.49.35-.72.72-1.44 1.07-2.19.3-.64.57-1.3.8-1.98h.01c.2.15.49.33.87.47.73.3 1.75.46 2.77.46 1.01-.02 2.02-.17 2.76-.5.34-.14.62-.31.83-.46.14.46.32.9.51 1.33-.02.59.04 1.19.16 1.76.21 1.14.55 2.27.88 3.35.51 1.66.96 3.32.99 4.97.02.52-.01 1.03-.09 1.55-.32 2.16-1.45 4.13-2.45 6.21a24.006 24.006 0 0 0-2.08 6.63c-.35 2.11-.41 4.26-.25 6.38-.2.02-.39.04-.6.04zM39.22 56.5c.99 2.02 1.68 4.17 2.04 6.39.15.91.25 1.84.31 2.76a27.7 27.7 0 0 1-.07 3.97c-.17 2.23-.74 4.43-1.36 6.61a76.1 76.1 0 0 1-1.06 3.23l-.58 1.61-.3.79c-.1.26-.24.52-.23.83h-.11c-.02.07-.15.25-.26.37-.14.12-.29.23-.46.33-.34.19-.73.32-1.12.43-.4.08-.82.15-1.23.18-.21.02-.42.04-.64.04-.22 0-.43.02-.64 0-.84-.01-1.69-.09-2.48-.32-.4-.11-.78-.25-1.14-.44-.17-.1-.33-.2-.49-.33-.14-.11-.29-.27-.35-.36-.83-2.08-1.58-4.22-2.23-6.37-.62-2.13-1.16-4.26-1.34-6.46a.875.875 0 0 1-.02-.16c-.02-.19-.03-.38-.04-.57-.09-1.33-.09-2.68.02-4.01.16-2.09.58-4.15 1.29-6.12.28-.81.61-1.61 1-2.39.72-1.49 1.57-3 2.12-4.67h.01c.19.16.49.34.86.48.11.04.22.08.34.11a2 2 0 0 0 .37.11 5.78 5.78 0 0 0 .79.15c.35.05.72.08 1.08.09h.19c1.02-.02 2.03-.18 2.76-.5.35-.14.63-.31.83-.47.18.55.39 1.09.62 1.61.11.24.22.48.34.71.38.81.8 1.59 1.18 2.37zm1.59-4.05c-.14.12-.29.23-.45.33-.35.2-.73.33-1.13.43-.2.04-.41.08-.61.11-.5-1.11-.92-2.22-1.07-3.4-.07-.53-.09-1.07-.07-1.6.05-1.47.41-2.96.84-4.43l.15-.51c.67-2.14 1.29-4.58.66-6.98-.3-1.18-1.03-2.34-2.12-3.01-1.08-.68-2.31-.94-3.54-.94-1.23.02-2.45.34-3.51 1.02-.48.3-.91.69-1.27 1.14-.02.02-.03.04-.05.06 0-.09 0-.17.01-.26.23-2.95.97-5.84 2.29-8.51.72-1.49 1.58-3 2.12-4.66h.01c.2.15.49.33.87.47.73.3 1.75.46 2.76.46 1.02-.02 2.03-.17 2.76-.5.35-.14.63-.31.84-.46.53 1.67 1.41 3.18 2.14 4.68.98 2.02 1.67 4.17 2.03 6.39.16.92.26 1.84.31 2.76.06 1.19.05 2.38-.03 3.57-.41.88-.86 1.76-1.29 2.65a23.626 23.626 0 0 0-2.08 6.62 26.66 26.66 0 0 0-.34 4.28c-.05.09-.15.21-.23.29zm14.94 17.87c.98 2.01 1.67 4.16 2.04 6.39.15.91.25 1.83.3 2.76.07 1.31.05 2.64-.06 3.96-.17 2.23-.74 4.43-1.37 6.61-.32 1.09-.68 2.17-1.05 3.24l-.58 1.6-.31.79c-.1.27-.23.52-.22.84h-.11c-.02.07-.15.25-.26.36-.15.12-.3.23-.46.34-.34.19-.73.32-1.13.42-.39.08-.82.15-1.22.18-.22.03-.42.05-.64.05-.23 0-.43.02-.64 0-.84-.01-1.7-.1-2.49-.32a5.03 5.03 0 0 1-1.13-.45c-.18-.1-.34-.2-.49-.32-.14-.11-.29-.27-.35-.37-.84-2.07-1.59-4.21-2.24-6.37-.63-2.18-1.18-4.36-1.36-6.61-.13-1.52-.14-3.06-.02-4.58.24-2.96.98-5.85 2.3-8.51.3-.62.62-1.25.93-1.89.13-.26.26-.52.38-.79.3-.64.58-1.3.81-1.99h.01c.19.15.48.33.86.48.73.29 1.75.45 2.77.45 1.01-.02 2.03-.17 2.76-.49.34-.15.63-.32.83-.47.24.76.56 1.48.9 2.19.1.23.22.46.33.68.3.61.62 1.22.91 1.82zm-9.83-13.39c-.63-2.17-1.39-4.4-.71-6.39.16-.52.43-1.01.76-1.43.3-.39.66-.71 1.07-.98.86-.56 1.92-.86 2.98-.88.1 0 .2 0 .3.01.94.03 1.92.27 2.69.76.41.25.74.58 1.01.95.33.45.56.96.72 1.5.28 1.02.28 2.12.15 3.21-.13 1.1-.46 2.15-.78 3.26-.17.61-.35 1.24-.51 1.87-.25 1.01-.44 2.05-.49 3.1a3.3 3.3 0 0 1-.61.23c-.64.18-1.56.32-2.49.3-.92.02-1.85-.11-2.5-.29a5.54 5.54 0 0 1-.59-.21c-.04-1.1-.24-2.18-.5-3.22-.15-.61-.33-1.21-.5-1.79zm.89 6.93c.06-.35.09-.72.1-1.08.11.06.22.11.34.15.73.3 1.75.46 2.77.47 1.01-.03 2.03-.18 2.76-.51.11-.05.22-.1.32-.15 0 .37.03.75.09 1.12.05.36.12.7.22 1.04-.02 0-.03.02-.04.03-.06.05-.1.07-.16.11-.14.09-.38.21-.71.31-.64.18-1.56.32-2.49.3-.92.02-1.85-.11-2.5-.29-.31-.11-.57-.2-.72-.29-.15-.09-.21-.15-.21-.15.1-.35.17-.7.23-1.06zm11.24-9.11c-.17 2.23-.74 4.43-1.37 6.61-.32 1.09-.68 2.16-1.05 3.24l-.58 1.6-.14.38c-.4-.93-.7-1.87-.83-2.85-.08-.53-.1-1.06-.08-1.59.06-1.41.4-2.84.8-4.25.07-.23.13-.46.2-.69.67-2.14 1.29-4.58.66-6.98-.31-1.19-1.04-2.34-2.12-3.01-.78-.49-1.62-.76-2.49-.87-.35-.05-.7-.07-1.05-.07-.14 0-.29.01-.43.02-1.08.08-2.15.4-3.08 1a5.34 5.34 0 0 0-2.24 2.93c-.39 1.19-.38 2.46-.15 3.63.22 1.15.55 2.27.89 3.36.03.1.06.19.08.29l.01.01c.46 1.55.87 3.12.9 4.67.02.52-.01 1.02-.09 1.54-.14.93-.43 1.83-.79 2.71a76.01 76.01 0 0 1-1.74-5.08c-.62-2.18-1.18-4.36-1.35-6.61-.09-.93-.12-1.87-.1-2.81 0-.59.03-1.19.08-1.78.02-.21.03-.42.06-.62.28-2.74 1-5.41 2.23-7.89l.12-.24c.35-.73.74-1.46 1.09-2.22.34-.71.65-1.44.91-2.2h.01c.19.15.48.33.86.47.73.3 1.75.46 2.77.46 1.01-.02 2.03-.17 2.76-.5.34-.14.63-.31.83-.46.23.71.52 1.4.84 2.06.37.79.77 1.56 1.15 2.32l.15.3c.98 2.02 1.67 4.17 2.04 6.39.09.55.16 1.09.21 1.64.04.37.07.75.09 1.12.02.46.04.93.04 1.39 0 .86-.03 1.72-.1 2.58zm2.83-1.63c-.39-.11-.78-.25-1.14-.45-.17-.1-.33-.2-.48-.32-.1-.08-.22-.2-.3-.29-.01-1.4-.11-2.8-.34-4.17-.36-2.29-1.06-4.53-2.08-6.62-.41-.86-.85-1.7-1.25-2.54-.11-1.43-.11-2.88 0-4.32.24-2.95.98-5.84 2.29-8.51.72-1.49 1.58-3 2.12-4.66h.01c.2.15.49.33.87.47.73.3 1.75.46 2.77.46 1.01-.02 2.02-.17 2.75-.5.35-.14.63-.31.84-.46.53 1.67 1.41 3.18 2.14 4.68.98 2.02 1.67 4.17 2.04 6.39.13.79.22 1.59.27 2.38-.35-.5-.79-.94-1.32-1.27-1.09-.68-2.32-.94-3.54-.94-1.23.02-2.46.34-3.51 1.02-1.06.66-1.87 1.74-2.25 2.93s-.37 2.46-.14 3.64c.21 1.14.55 2.27.88 3.35l.15.49c.45 1.5.82 2.99.85 4.48.02.52-.01 1.03-.09 1.55-.18 1.15-.57 2.24-1.06 3.32-.16-.03-.32-.07-.48-.11zm12.31 23.11a76.1 76.1 0 0 1-1.06 3.23l-.57 1.61-.31.79c-.1.26-.23.52-.22.83h-.11c-.02.07-.15.25-.27.37-.14.12-.29.23-.45.33-.35.19-.73.32-1.13.43-.39.08-.82.15-1.23.18-.21.02-.41.04-.64.04-.22 0-.42.02-.63 0-.85-.01-1.7-.09-2.49-.32-.4-.11-.78-.25-1.14-.44-.17-.1-.33-.2-.48-.33-.14-.11-.3-.27-.36-.36-.83-2.08-1.58-4.22-2.23-6.37-.63-2.18-1.19-4.36-1.36-6.62-.13-1.52-.14-3.06-.02-4.58.23-2.95.98-5.84 2.29-8.51.38-.79.81-1.59 1.2-2.42.11-.24.22-.48.32-.72.23-.5.43-1.01.6-1.53h.01c.2.16.49.34.87.48.73.29 1.75.46 2.77.46.16 0 .31-.01.47-.02.22-.01.45-.04.66-.06.2-.03.39-.06.58-.11.09-.01.18-.03.27-.06.21-.05.41-.11.59-.18.06-.02.12-.04.18-.07.35-.14.63-.31.84-.47.53 1.68 1.41 3.19 2.14 4.69.38.78.71 1.57 1 2.38.46 1.3.81 2.64 1.04 4.01.15.91.25 1.84.3 2.76.06 1.1.05 2.2-.02 3.3 0 .23-.02.45-.04.67 0 .03-.01.07-.01.1-.18 2.2-.74 4.36-1.36 6.51zm11.48-21.48c-.17 2.23-.74 4.43-1.37 6.61-.32 1.09-.67 2.16-1.05 3.24l-.58 1.6-.3.79c-.1.27-.24.52-.23.83h-.11c-.02.08-.15.26-.26.37-.14.12-.3.23-.46.33-.34.2-.73.33-1.12.43-.4.08-.82.15-1.23.18-.21.02-.42.04-.64.04-.22 0-.43.02-.64 0-.43-.01-.87-.03-1.3-.09.15-2.11.09-4.24-.25-6.32a24.314 24.314 0 0 0-2.08-6.63c-1-2.07-2.16-4.04-2.45-6.21-.07-.53-.09-1.07-.07-1.6.06-1.64.52-3.3 1-4.94.48-1.53.93-3.22.92-4.93.21-.48.4-.97.57-1.47h.01c.19.15.49.33.86.47.73.3 1.76.46 2.77.46 1.02-.02 2.03-.17 2.76-.5.34-.14.63-.31.83-.46.24.73.54 1.43.86 2.11v.01c.38.79.78 1.56 1.16 2.32l.12.24c.99 2.02 1.68 4.17 2.04 6.39.09.52.15 1.05.21 1.57.04.4.07.79.1 1.19.02.46.04.91.04 1.37 0 .87-.03 1.74-.11 2.6zM98 39.01c-.17 2.23-.74 4.43-1.37 6.61-.32 1.09-.68 2.16-1.05 3.24l-.58 1.6-.31.79c-.1.27-.23.52-.22.83h-.11c-.02.08-.15.26-.26.37-.15.12-.3.23-.46.33-.35.2-.73.33-1.13.43-.39.08-.82.15-1.22.18-.22.02-.42.04-.64.04-.23 0-.43.02-.64 0-.84-.01-1.7-.09-2.49-.31a5.03 5.03 0 0 1-1.13-.45c-.18-.1-.34-.2-.49-.32-.12-.1-.25-.24-.32-.33-.01-1.38-.11-2.77-.34-4.13-.36-2.29-1.06-4.53-2.08-6.62-.4-.84-.83-1.67-1.22-2.49-.12-1.45-.12-2.91-.01-4.37.24-2.95.98-5.84 2.3-8.51.72-1.49 1.57-3 2.12-4.66h.01c.19.15.48.33.86.47.73.3 1.75.46 2.77.46 1.01-.02 2.03-.17 2.76-.5.34-.14.63-.31.83-.46.54 1.67 1.41 3.18 2.14 4.68.98 2.02 1.67 4.17 2.04 6.39.15.92.25 1.84.3 2.76.07 1.32.05 2.65-.06 3.97z"/>
    </g>
</svg>