<svg id="Layer_3" xmlns="http://www.w3.org/2000/svg" viewBox="0 20 100 60" width="100" height="60">
    <style>
        .st0{fill:#b3b3b3}.st1{fill:#eddfc8}.st2{fill:#fff}.st3{fill:#999}.st4{fill:#e2c7b0;stroke:#e2c7b0}.st4,.st5{stroke-width:.03;stroke-miterlimit:10}.st5{stroke:#000}.st6{fill:#d8b99d;stroke:#d8b99d}.st6,.st7{stroke-width:.03;stroke-miterlimit:10}.st7{fill:#f9f1e5;stroke:#f9f1e5}.st8{fill:#f8ecd6;stroke:#f8ecd6}.st8,.st9{stroke-width:.03;stroke-miterlimit:10}.st9{fill:#9c7a54;stroke:#9c7a54}
    </style>
    <g id="XMLID_1_">
        <path class="st0" d="M97.36 64.8c-.71 1.01-1.16.4-.8.4.32 0 .71-.32.8-.4zm-1.4 4.86c-.71 1.01-1.16.4-.8.4.32 0 .71-.32.8-.4z"/>
        <path class="st1" d="M95.12 75.68c-.21.26-.47.35-.83.11-.12-.08-.24-.16-.35-.24.28-.02.67-.09.9-.38.33-.43 1.99-1.76.81-2.95.17.11.32.2.43.27.15.19.35.5.48.84-.08.24-.18.47-.3.67-.33.56-.72 1.12-1.12 1.65l-.02.03z"/>
        <path class="st0" d="M91.1 60.46c-.71 1.02-1.15.41-.8.41.32 0 .71-.33.8-.41zm-2.39 4.84c.31 0 .7-.32.79-.4-.71 1.01-1.15.4-.79.4zm-5.4-7.64c-.71 1.01-1.16.4-.8.4.31 0 .71-.32.8-.4z"/>
        <path class="st2" d="M79.07 50.69c-.17.12-.32.33-.43.52.01-.05.02-.09.02-.11-.05.07-.23.36-.48.77l.29-.96.01-.02c.11-.13.26-.22.37-.23.06-.02.14-.01.22.03z"/>
        <path class="st0" d="M79.24 67.11c-1.11.6-1.24-.16-.92.01.32.16.92-.01.92-.01z"/>
        <path class="st2" d="M75.99 57.03c-.11.8.14 1.33.31 1.6-.3-.19-.51-.32-.6-.38l-.41.13s-.04.02-.1.06c.33-.44.62-.87.77-1.37 0-.01.01-.02.02-.04h.01z"/>
        <path class="st0" d="M74.51 52.64c-1.11.6-1.23-.16-.91 0 .31.17.91 0 .91 0z"/>
        <path class="st2" d="M73.76 59.89l.08-.16.2.09c-.03.06-.05.12-.07.18-.03.08-.06.16-.07.22l-.01.01c-.14.16-.23.21-.3.21-.01-.02 0-.04 0-.07.04-.15.09-.32.17-.48z"/>
        <path class="st0" d="M70.34 55.68c.32.16.91-.01.91-.01-1.11.6-1.23-.16-.91.01zm.47-5.05c-1.09.58-1.22-.17-.9-.01.28.15.78.04.9.01zm-1.58-4.31c.32.16.92-.01.92-.01-1.12.61-1.24-.15-.92.01zm-2.46 2.61c-1.1.58-1.22-.17-.9 0 .28.14.78.03.9 0zm-4.28-6.3c.27.18.81.11.9.1-1.17.47-1.2-.3-.9-.1z"/>
        <path class="st1" d="M63.25 65.85c-.29-.01-.57-.19-.65-.37l-.3-.59c.61.71 1.05.55 1.05.55 1.92-.29 1.95-1.23 1.75-1.83.14.26.26.48.37.66v.02c.15.41.22.91-.1 1.24-.34.07-.67.14-1.02.2-.37.06-.83.14-1.1.12z"/>
        <path class="st0" d="M61.6 39.4c-1.17.47-1.2-.3-.91-.1.27.18.82.11.91.1z"/>
        <path class="st2" d="M62.65 47.79c.02.08.05.15.08.21-.29-.25-.39-.15-.39-.15-.38-.21-1.86 1.81-1.86 1.81-.05-.14-.02-.35.02-.51l.59-.69.78-.92.39-.29.68-.51c-.29.43-.34.76-.3 1.01v.01c.01.01.01.02.01.03zm-2.03-12.33c.15-.02.28.04.42.18-.21-.02-.43.09-.6.22.03-.04.05-.06.06-.07-.01-.01-.02 0-.04.01l-.05-.11.18-.22.01-.01h.02z"/>
        <path class="st0" d="M59.2 46.09c-1.18.46-1.22-.3-.92-.1.3.19.92.1.92.1zm-1.73-3.66c-1.18.47-1.21-.3-.92-.1.3.2.92.1.92.1z"/>
        <path class="st2" d="M54.66 40.2c-.46.52-.46.99-.39 1.27-.12-.21-.2-.38-.27-.49-.02-.05-.04-.08-.06-.11 0-.01 0-.02-.01-.03l.28-.39c.05-.03.21-.12.45-.25z"/>
        <path class="st3" d="M53.41 59.2c.15.27.62.46.73.5-1.22-.13-.91-.81-.73-.5zm.37-3.21c-1.26-.12-.94-.82-.76-.51.17.32.76.51.76.51zm-.39-3.98c-1.26-.12-.94-.82-.76-.5.17.31.76.5.76.5z"/>
        <path class="st2" d="M52.16 31.77c.03.04.05.08.07.13.01.04.01.06.08.09-.36.15-.71.3-1.08.45l-.37.16c.51-.31 1.07-.7 1.14-.97.06.04.12.09.16.14z"/>
        <path class="st4" d="M98.39 64.76a.94.94 0 0 0-.14-.34 1.13 1.13 0 0 0-.23-.22l-.06-.03-.02-.01-12.86-9.21-3.21-2.31-1.61-1.15c-.41-.27-.87-.68-1.19-.8-.17.12-.32.33-.43.52-.01 0-.01.01-.01.02-.06.19-.17.54-.33.98-.25.66-.61 1.53-1.02 2.38a29.016 29.016 0 0 1-1.29 2.43v.01c-.11.8.14 1.33.31 1.6.58.37 1.52.98 2.66 1.73.98.66 2.13 1.43 3.36 2.25 1.22.84 2.52 1.73 3.82 2.63 1.29.91 2.58 1.82 3.79 2.68 1.2.87 2.32 1.68 3.28 2.37.99.73 1.8 1.35 2.35 1.77l.35.22s.03.04.09.11l.02.02c.01 0 .01.01.01.01.02.02.04.03.06.04.15.08.33.17.48.21.05.01.09.02.13.02h.04c.04-.16.07-.31.09-.46l.01-.02v-.01l.97-4.36.49-2.19c.05-.18.09-.36.11-.49.01-.14.01-.28-.02-.4zm-14.48-6.27c-.31.5-1.18.51-1.95.03-.76-.48-1.13-1.27-.82-1.76.31-.5 1.18-.52 1.95-.04.76.48 1.13 1.27.82 1.77zm6.13 7.33c-.33.48-1.21.46-1.95-.06-.74-.51-1.07-1.32-.74-1.8.33-.48 1.2-.46 1.95.06.74.51 1.07 1.32.74 1.8zm1.47-4.62c-.3.45-1.11.44-1.8-.02-.7-.46-1.01-1.21-.71-1.66.3-.45 1.11-.44 1.8.03.7.46 1.01 1.2.71 1.65zm5.02 9.34c-.32.5-1.19.49-1.94 0-.76-.49-1.11-1.29-.79-1.78.32-.49 1.19-.49 1.95 0 .75.5 1.11 1.29.78 1.78zm1.21-4.85c-.32.44-1.13.41-1.81-.07-.68-.49-.98-1.24-.67-1.68.32-.44 1.13-.41 1.81.07.68.49.98 1.24.67 1.68z"/>
        <path class="st4" d="M79.31 67.74c-.46.33-1.25.03-1.76-.68-.52-.71-.56-1.55-.1-1.89.14-.1.31-.14.49-.13l-4.55-3.34c-.14-.1-.21-.18-.3-.29-.08-.12-.14-.25-.19-.38-.08-.27-.08-.54-.04-.79.05-.24.13-.47.24-.67l.26-.55 1.08-2.21.1.04c-.03-.21.07-.34.14-.49l.23-.43.47-.88.92-1.74.17-.31v-.01c-.13-.05-.19-.16-.26-.25l-.25-.36-.52-.72-1.02-1.44-2.06-2.88-2.05-2.88-1.03-1.43c-.18-.28-.27-.42-.42-.44-.12-.05-.37 0-.52.09l-5.4 4.06c-.29.43-.34.76-.3 1.01v.01c.29.4 1.18 1.6 2.38 3.26.72 1.03 1.57 2.23 2.48 3.51.89 1.3 1.85 2.69 2.8 4.07.94 1.4 1.87 2.79 2.75 4.1.86 1.32 1.67 2.55 2.36 3.61 1.09 1.71 1.88 2.97 2.14 3.4.03.04.05.07.06.09-.02-.02-.03-.04-.06-.07.15.87-1.58 1.69-2.27 1.99.03.04.06.07.09.1.1.08.2.12.31.14.22.04.53-.07.8-.24.33-.21.58-.42.89-.67.25-.22.51-.44.75-.66.04-.03.07-.07.11-.1 1.01-.92 2-1.88 2.96-2.86l-1.83-1.34c.37.65.36 1.35-.05 1.65zM66.76 49.6c-.48.35-1.29.04-1.82-.69s-.58-1.61-.11-1.95c.48-.35 1.29-.03 1.82.7.54.73.58 1.6.11 1.94zm1.57-3.42c-.52-.71-.56-1.55-.1-1.89.46-.33 1.25-.03 1.76.68.52.71.56 1.55.1 1.89-.46.33-1.25.03-1.76-.68zm.57 2.45c.46-.34 1.25-.04 1.76.67.52.71.57 1.56.11 1.89-.46.34-1.25.03-1.77-.68-.52-.7-.56-1.55-.1-1.88zm2.32 7.63c-.48.34-1.29.03-1.82-.7-.54-.73-.58-1.6-.11-1.95.47-.34 1.29-.03 1.82.7s.58 1.6.11 1.95zm1.46-5.62c.46-.33 1.25-.03 1.77.68.52.71.56 1.55.1 1.89-.46.33-1.25.03-1.76-.68-.52-.71-.57-1.55-.11-1.89z"/>
        <path class="st4" d="M62.72 55.12c-.62-.95-1.21-1.93-1.8-2.9l-.88-1.44-.22-.35c-.08-.11-.22-.35-.26-.53a.585.585 0 0 1-.02-.13c-.07-.09-.14-.2-.2-.31-.4-.76-.33-1.58.16-1.84.28-.15.64-.09.96.14l.75-.87.04-.04.04-.03 4.08-3.01c-.11-.06-.13-.18-.2-.28l-.19-.38-.4-.76-.79-1.53-1.58-3.05-.79-1.52-.2-.39-.07-.14c-.03-.04-.06-.08-.1-.12h-.01c-.21-.02-.43.09-.6.22h-.01c-.01 0-.02.01-.02.02-.14.14-.41.41-.79.74-.56.48-1.32 1.11-2.12 1.7-.79.58-1.61 1.13-2.24 1.52-.22.13-.41.25-.57.34-.01.01-.02.01-.03.02-.46.52-.46.99-.39 1.27.35.64.93 1.71 1.64 3.05.57 1.12 1.25 2.43 1.97 3.83.7 1.41 1.46 2.91 2.21 4.41.73 1.51 1.46 3.02 2.15 4.44.67 1.42 1.3 2.75 1.84 3.89.81 1.76 1.39 3.08 1.62 3.58v.01c.13.2.27.38.41.48l.11-.08c.2-.15.45-.41.68-.63l1.25-1.18c-.57-.81-1.13-1.62-1.68-2.44-1.27-1.89-2.53-3.79-3.75-5.71zm.67-13.49c.38.7.31 1.47-.15 1.72-.46.24-1.13-.13-1.51-.84-.37-.71-.31-1.48.15-1.72.46-.25 1.14.13 1.51.84zm-3.3-4.24c.46-.25 1.13.13 1.51.83.37.71.31 1.48-.15 1.73-.46.24-1.14-.13-1.51-.84-.38-.71-.31-1.48.15-1.72zm-4.41 4.74c-.41-.75-.33-1.58.16-1.84s1.22.14 1.62.9c.4.76.33 1.58-.16 1.84s-1.22-.14-1.62-.9zm1.77 3.67c-.4-.76-.33-1.59.16-1.85s1.22.14 1.62.9c.4.76.33 1.59-.16 1.85s-1.22-.14-1.62-.9zm-.23-9.73l.05-.02.35-.16c-.01-.02-.01-.03-.01-.05l-.01-.34-.04-.67-.07-1.28v-.01a.914.914 0 0 0-.07-.14c-.24-.09-.52-.01-.77.12.18-.07.31-.1.36-.11-.09.06-.49.32-1.07.65-.66.38-1.56.85-2.47 1.28-.92.43-1.86.81-2.57 1.08-.28.11-.53.19-.72.26-.41.33-.54.69-.58.96v.01c.09.5.29 1.79.53 3.53l.03.25c0-.02.01-.04.02-.06.06-.14.14-.27.24-.38.05-.06.07-.1.19-.18l.12-.09.5-.36 1.99-1.42 3.97-2.85.03-.02z"/>
        <path class="st1" d="M52.06 60.25v.03c-.01.58-.12 1.46-.48 1.77h-.03l-.7-.23c-.46-.15-.95-.32-1.36-.49-.03-.01-.13-.06-.14-.06a.138.138 0 0 0-.04-.03.59.59 0 0 1-.09-.18c-.07-.15-.1-.38-.11-.56v-.05c-.01-.06-.01-.13-.02-.19.21.43.47.69.47.69l1.12.32c.86.24 1.22-.79 1.34-1.29.01.09.02.17.04.24v.03z"/>
        <path class="st2" d="M49.6 37.64l-.03-.22-.75-.38c.09 0 .15-.01.15-.01s-.12-.13-.32-.27c-.01-.01-.02-.01-.03-.02.37.02.89.01 1.42-.13-.17.11-.28.18-.32.21.06-.02.22-.06.46-.14-.41.33-.54.69-.58.96zm-2.85-2.29c0 .23.11.54.53.86-.09-.02-.18-.03-.26-.04-.25-.02-.42 0-.42 0h-.35v-.13a.77.77 0 0 1 .14-.34c.08-.12.19-.22.32-.32.01-.01.03-.02.04-.03z"/>
        <path class="st3" d="M46.28 57.3c.1.29.52.54.64.61-1.18-.32-.76-.95-.64-.61zm.25-10.56c.01.05.01.09.02.14-.74-.34-.39-.79-.29-.49.04.13.15.25.27.35z"/>
        <path class="st2" d="M43.38 29.67c-.15-.08-.33-.06-.5.04-.01.01-.03.01-.05.02-.04 0-.07.02-.1.04.16-.21.25-.41.12-.53.27.06.52.31.53.4v.03z"/>
        <path class="st1" d="M41.2 58.97c.26.39.74.75 1.57.96 1.35.35 1.71-.48 1.8-1.07 0 .06.01.12.01.18v.16c-.04.56-.16 1.25-.5 1.59-.65-.18-1.31-.35-1.95-.54-.18-.06-.34-.11-.5-.18-.11-.04-.12-.05-.17-.08a.284.284 0 0 1-.1-.09.893.893 0 0 1-.14-.34 1.2 1.2 0 0 1-.02-.42v-.17z"/>
        <path class="st3" d="M40.42 39.31c-.74-.33-.39-.78-.29-.48.05.14.17.27.3.37l-.01.11zm-2.24 3.92c.1.3.54.56.65.62-1.19-.33-.77-.96-.65-.62zm-.3-7.27c.1.29.53.55.65.62-1.19-.33-.77-.96-.65-.62z"/>
        <path class="st1" d="M35.61 57.42c.87.17 1.24-.3 1.39-.75-.09.48-.28 1.1-.59 1.43-.02-.01-.04-.01-.06-.02l-.01-.01h-.03c-.57-.15-1.16-.33-1.72-.55l-.4-.18a.832.832 0 0 1-.25-.18 1.39 1.39 0 0 1-.28-.53c0-.16-.01-.33-.01-.49.28.53.85 1.07 1.96 1.28z"/>
        <path class="st2" d="M33.12 27.73c-.02.02-.08.05-.16.12.09-.18.14-.4.04-.56l.12.01.06.01c.04.01.09.03.13.05.08.04.17.12.24.21.05.05.09.11.11.17-.19-.24-.4-.13-.59.08.03-.04.04-.07.05-.09z"/>
        <path class="st3" d="M32.53 31.79c.05.16.17.3.28.41-.03.02-.05.04-.06.07-.57-.34-.3-.77-.22-.48zm-1.36 20.93c-.96-.33-.62-.96-.53-.62.09.3.44.56.53.62zM30.9 41.7c-.95-.33-.62-.95-.52-.62.09.3.44.56.52.62z"/>
        <path class="st1" d="M27.75 55.49c.97.03 1.31-.8 1.43-1.39.01.25.02.47.03.65v.06c-.1.48-.28.97-.67 1.19-.44-.02-.89-.05-1.33-.09-.56-.08-1.27-.08-1.53-.3a.802.802 0 0 1-.28-.49c-.02-.12-.02-.36-.02-.59.3.58.94.93 2.37.96z"/>
        <path class="st2" d="M24.98 26.15c.04 0 .08.02.12.04.07.04.13.12.17.23-.13.05-.28.22-.41.4.04-.08.07-.13.08-.16-.03.02-.1.08-.21.17.15-.26.22-.53.05-.67l.14-.01h.06z"/>
        <path class="st3" d="M24.88 30.71c-.69-.32-.44-.95-.37-.61.06.3.31.55.37.61zm-.49 5.32c-.03-.01-.06-.03-.09-.04v-.06c.04.05.07.08.09.1zm-.37-.62c.04.21.18.41.28.52v.06c-.57-.34-.35-.9-.28-.58zm-1.01 12c.06.3.31.55.37.61-.69-.32-.44-.95-.37-.61zm.09 3.36c.06.29.31.55.38.61-.69-.32-.44-.95-.38-.61zm-.22-6.88c.06.29.31.55.37.61-.69-.32-.44-.95-.37-.61zm-.23-4.73c.06.3.31.56.38.62-.7-.33-.45-.96-.38-.62zm-.02-5.19c-.69-.32-.44-.95-.37-.61.06.3.31.55.37.61z"/>
        <path class="st1" d="M18.65 56.31a.488.488 0 0 1-.32-.36c-.03-.11-.04-.31-.05-.53.37.49.92.4.92.4s.26 0 1.6-.06c.92-.03 1.23-1.03 1.34-1.66.02.2.03.36.04.5v.02c-.06.69-.29 1.49-.95 1.65-.57.06-1.19.07-1.79.07l-.46-.01h-.22c-.05 0-.05-.01-.11-.02z"/>
        <path class="st2" d="M17.71 26.77c.01.02.02.05.03.08-.16.07-.31.22-.45.39.13-.21.23-.4.23-.54-.02 0 .03-.01.05 0 .02 0 .04 0 .05.01.03 0 .05.02.09.06z"/>
        <path class="st3" d="M15.74 52.36c.06.29.29.54.36.62-.67-.33-.43-.96-.36-.62zm-.3-6.52c.06.29.3.54.37.62-.67-.33-.44-.95-.37-.62zm-.08-4.27c-.69-.33-.44-.95-.37-.62.06.3.31.56.37.62zm-.63-3.97c.06.29.31.55.37.61-.69-.32-.44-.95-.37-.61zm.11-2.91c-.69-.33-.44-.95-.37-.62.06.3.31.56.37.62z"/>
        <path class="st1" d="M14.2 57.17l-.52.09-2.08.36-.14.05c-.03.01-.09.01-.09-.01a.568.568 0 0 1-.13-.25c-.07-.25-.09-.61-.11-.97.4.5 1.01.6 1.01.6s.43-.05 1.66-.32c.61-.13.94-.7 1.15-1.26-.01.53-.04 1.11-.14 1.5v.01c-.07.04-.13.08-.2.11-.05.02-.11.04-.17.05l-.24.04z"/>
        <path class="st2" d="M10.57 27.91c-.14-.03-.35.02-.66.32.01-.04.02-.05.02-.05s-.02.02-.06.04c.14-.19.25-.36.27-.49l.04-.01s.06-.01.09-.01c.03.01.07.01.09.02.06.01.1.03.14.07.02.02.05.06.07.11zm-.68.34c0-.01.01-.01.02-.02l-.02.02z"/>
        <path class="st3" d="M8.73 54.09c.06.3.31.56.38.62-.7-.33-.45-.96-.38-.62zm.02-2.74c-.7-.33-.45-.96-.38-.62.06.3.31.56.38.62zm-.23-3.52c-.7-.33-.45-.96-.38-.62.06.3.31.56.38.62zm-.65-5.25c-.7-.33-.45-.95-.38-.62.06.3.31.56.38.62z"/>
        <path class="st5" d="M97.07 64.01c-.68-.48-1.49-.51-1.81-.07-.31.44-.01 1.19.67 1.68.68.48 1.49.51 1.81.07.31-.44.01-1.19-.67-1.68zm-.51 1.19c.32 0 .71-.32.8-.4-.71 1.01-1.16.4-.8.4zm-.81 3.56c-.76-.49-1.63-.49-1.95 0-.32.49.03 1.29.79 1.78.75.49 1.62.5 1.94 0 .33-.49-.03-1.28-.78-1.78zm-.59 1.3c.32 0 .71-.32.8-.4-.71 1.01-1.16.4-.8.4zM90.8 59.55c-.69-.47-1.5-.48-1.8-.03-.3.45.01 1.2.71 1.66.69.46 1.5.47 1.8.02.3-.45-.01-1.19-.71-1.65zm-.5 1.32c.32 0 .71-.33.8-.41-.71 1.02-1.15.41-.8.41zm-1 3.15c-.75-.52-1.62-.54-1.95-.06-.33.48 0 1.29.74 1.8.74.52 1.62.54 1.95.06.33-.48 0-1.29-.74-1.8zm-.59 1.28c.31 0 .7-.32.79-.4-.71 1.01-1.15.4-.79.4zm-5.62-8.58c-.77-.48-1.64-.46-1.95.04-.31.49.06 1.28.82 1.76.77.48 1.64.47 1.95-.03s-.06-1.29-.82-1.77zm-.58 1.34c.31 0 .71-.32.8-.4-.71 1.01-1.16.4-.8.4zm-3.3 7.79c-.36-.5-.85-.79-1.27-.81a.757.757 0 0 0-.49.13c-.46.34-.42 1.18.1 1.89.51.71 1.3 1.01 1.76.68.41-.3.42-1 .05-1.65-.04-.08-.09-.16-.15-.24zm-.89 1.27c.32.16.92-.01.92-.01-1.11.6-1.24-.16-.92.01zm-5.64-16.48c-.46.34-.41 1.18.11 1.89.51.71 1.3 1.01 1.76.68.46-.34.42-1.18-.1-1.89s-1.31-1.01-1.77-.68zm.92 2c.31.17.91 0 .91 0-1.11.6-1.23-.16-.91 0zm-4.31.97c-.47.35-.43 1.22.11 1.95.53.73 1.34 1.04 1.82.7.47-.35.42-1.22-.11-1.95s-1.35-1.04-1.82-.7zm1.05 2.07c.32.16.91-.01.91-.01-1.11.6-1.23-.16-.91.01zm.43-4.49c.46-.33.41-1.18-.11-1.89-.51-.71-1.3-1.01-1.76-.67-.46.33-.42 1.18.1 1.88.52.71 1.31 1.02 1.77.68zm-.86-.57c.28.15.78.04.9.01-1.09.58-1.22-.17-.9-.01zm.18-3.76c.46-.34.42-1.18-.1-1.89-.51-.71-1.3-1.01-1.76-.68-.46.34-.42 1.18.1 1.89.51.71 1.3 1.01 1.76.68zm-.86-.54c.32.16.92-.01.92-.01-1.12.61-1.24-.15-.92.01zm-4.4.64c-.47.34-.42 1.22.11 1.95s1.34 1.04 1.82.69c.47-.34.43-1.21-.11-1.94-.53-.73-1.34-1.05-1.82-.7zm1.04 1.97c.28.14.78.03.9 0-1.1.58-1.22-.17-.9 0zm-3.99-8.14c-.46.24-.52 1.01-.15 1.72.38.71 1.05 1.08 1.51.84.46-.25.53-1.02.15-1.72-.37-.71-1.05-1.09-1.51-.84zm.61 1.84c.27.18.81.11.9.1-1.17.47-1.2-.3-.9-.1zm-.89-4.41c-.38-.7-1.05-1.08-1.51-.83-.46.24-.53 1.01-.15 1.72.37.71 1.05 1.08 1.51.84.46-.25.52-1.02.15-1.73zm-.91 1.08c.27.18.82.11.91.1-1.17.47-1.2-.3-.91-.1zm-.19 9.85c0-.02.01-.04.01-.05l-.09.14.08-.09zm-1-1.53c-.49.26-.56 1.08-.16 1.84.06.11.13.22.2.31-.06-.35-.03-.65.08-.99l.02-.08.06-.07.76-.87c-.32-.23-.68-.29-.96-.14zm-.27-2.77c-.4-.76-1.13-1.16-1.62-.9-.49.26-.56 1.09-.16 1.85s1.13 1.16 1.62.9c.49-.26.56-1.09.16-1.85zm-.95 1.14c.3.19.92.1.92.1-1.18.46-1.22-.3-.92-.1zm-.79-12.51v.07c.01.01.01.01.01.02l-.01-.09zm-.03 7.71c-.4-.76-1.13-1.16-1.62-.9-.49.26-.57 1.09-.16 1.84.4.76 1.13 1.16 1.62.9s.56-1.08.16-1.84zm-.91 1.14c.3.2.92.1.92.1-1.18.47-1.21-.3-.92-.1zm-3.11 15.02c-.52.09-.84.81-.71 1.62.14.8.67 1.38 1.19 1.3.52-.09.84-.81.71-1.61-.14-.81-.67-1.39-1.19-1.31zm-.03 1.85c.15.27.62.46.73.5-1.22-.13-.91-.81-.73-.5zm.16-2.74c.52-.09.84-.81.71-1.61-.14-.81-.67-1.39-1.19-1.3-.52.08-.84.8-.7 1.61.13.8.66 1.39 1.18 1.3zm-.55-.98c.17.32.76.51.76.51-1.26-.12-.94-.82-.76-.51zm.08-2.97c.53-.08.84-.8.71-1.61-.13-.8-.66-1.39-1.19-1.3-.52.09-.83.81-.7 1.61.13.81.66 1.39 1.18 1.3zm-.47-1c.17.31.76.5.76.5-1.26-.12-.94-.82-.76-.5zm-6.08 4.05c-.53.03-.93.7-.9 1.52.03.81.49 1.46 1.02 1.44.53-.03.93-.7.9-1.52-.04-.81-.49-1.46-1.02-1.44zm-.27 1.74c.1.29.52.54.64.61-1.18-.32-.76-.95-.64-.61zm.33-9.9l-.06-.52c-.74-.34-.39-.79-.29-.49.04.13.15.25.27.35-.09-.75-.18-1.49-.26-2.24-.41.17-.71.77-.68 1.47.03.81.49 1.45 1.02 1.43zm-4.39-16c-.4.01-.7.61-.67 1.34.01.14.02.28.06.41h.01l1.35-.67c-.08-.63-.4-1.1-.75-1.08zm-2.67 6.87c.03.82.42 1.46.86 1.45h.01v-.41c-.74-.33-.39-.78-.29-.48.05.14.17.27.3.37l.02-2.4a.415.415 0 0 0-.16-.03c-.44.01-.78.69-.74 1.5zm-1.09 3.07c-.45.02-.78.7-.75 1.51.04.82.43 1.46.87 1.45.45-.02.78-.7.75-1.51-.04-.82-.42-1.46-.87-1.45zm-.28 1.89c.1.3.54.56.65.62-1.19-.33-.77-.96-.65-.62zm.03-6.26c.45-.02.78-.7.75-1.51-.03-.82-.42-1.46-.87-1.44-.44.02-.78.69-.74 1.51.03.81.42 1.46.86 1.44zm-.33-1.01c.1.29.53.55.65.62-1.19-.33-.77-.96-.65-.62zm-4.16-8.13v.03c.02.01.02.01.02.02v-.03l-.02-.07v.05zm-1.03 1.92c-.36.01-.63.69-.59 1.5.02.59.19 1.09.43 1.32.07-.1.13-.2.22-.3-.57-.34-.3-.77-.22-.48.05.16.17.3.28.41.16-.2.35-.38.58-.52.02-.15.03-.31.02-.48-.03-.82-.35-1.47-.72-1.45zm-1.95 20.33c-.36.02-.63.69-.6 1.5.04.82.36 1.47.72 1.45.36-.01.63-.68.6-1.5-.04-.81-.36-1.46-.72-1.45zm-.1 2.02c.09.3.44.56.53.62-.96-.33-.62-.96-.53-.62zm.1-10c.36-.01.63-.68.59-1.5-.03-.81-.35-1.46-.71-1.45-.37.02-.63.69-.6 1.5.03.82.36 1.47.72 1.45zm-.36-1.02c.09.3.44.56.52.62-.95-.33-.62-.95-.52-.62zm-5.74-12.62c-.27.01-.46.61-.43 1.34.03.73.27 1.32.54 1.3.01 0 .03 0 .04-.01.1-.02.19-.13.25-.3.1-.24.16-.62.14-1.03-.03-.73-.27-1.31-.54-1.3zm-.13 1.64c.06.3.31.55.37.61-.69-.32-.44-.95-.37-.61zm-.49 5.31c.04.21.18.41.28.52l-.01-1.59v-.7a.28.28 0 0 0-.19-.09c-.28.01-.48.64-.45 1.4.03.77.28 1.38.57 1.37.03 0 .06-.01.08-.03v-.3c-.57-.34-.35-.9-.28-.58zm-.76 13.51c-.3.02-.52.69-.48 1.5.03.82.3 1.47.6 1.45.3-.01.52-.68.48-1.49-.03-.82-.3-1.47-.6-1.46zm-.16 1.85c.06.29.31.55.38.61-.69-.32-.44-.95-.38-.61zm.16-2.44c.3-.01.51-.68.48-1.5-.03-.81-.3-1.46-.6-1.45s-.52.68-.49 1.5c.04.81.31 1.46.61 1.45zm-.25-.92c.06.3.31.55.37.61-.69-.32-.44-.95-.37-.61zm.13-2.56c.3-.01.51-.68.48-1.5-.04-.81-.31-1.46-.61-1.45-.3.01-.51.68-.48 1.5.04.81.31 1.46.61 1.45zm-.26-.96c.06.29.31.55.37.61-.69-.32-.44-.95-.37-.61zm.03-3.75c.3-.01.52-.68.49-1.49-.04-.82-.31-1.47-.61-1.46-.3.02-.51.69-.48 1.5.03.82.3 1.47.6 1.45zm-.26-.98c.06.3.31.56.38.62-.7-.33-.45-.96-.38-.62zm-.1-4.82c.3-.01.51-.68.48-1.5-.03-.81-.3-1.46-.6-1.45-.3.01-.52.68-.49 1.5.04.81.31 1.46.61 1.45zm-.29-.98c.06.3.31.55.37.61-.69-.32-.44-.95-.37-.61zm-1.31-6.57c.01-.02.03-.03.04-.05l-.08.07c.01-.01.02-.02.04-.02zm-4.57 5.32v.04c.01.03.02.06.03.1l-.03-.14zm-.49 18.35c-.3.01-.51.68-.48 1.5.03.81.3 1.46.6 1.45s.52-.68.49-1.5c-.04-.81-.31-1.46-.61-1.45zm-.15 1.9c.06.29.29.54.36.62-.67-.33-.43-.96-.36-.62zm-.07-5.5c.3-.01.52-.68.48-1.5-.03-.81-.3-1.46-.6-1.45s-.52.68-.48 1.5c.03.81.3 1.46.6 1.45zm-.23-1.02c.06.29.3.54.37.62-.67-.33-.44-.95-.37-.62zm.31-5.3c-.04-.82-.31-1.47-.61-1.45-.3.01-.51.68-.48 1.49.03.82.3 1.47.6 1.46.3-.02.52-.69.49-1.5zm-.76.41c.06.3.31.56.37.62-.69-.33-.44-.95-.37-.62zm-.01-2.33c.3-.01.52-.69.48-1.5-.03-.81-.3-1.47-.6-1.45-.3.01-.52.68-.48 1.49.03.82.3 1.47.6 1.46zm-.25-1.02c.06.29.31.55.37.61-.69-.32-.44-.95-.37-.61zm.01-2.52c.3-.02.51-.69.48-1.5-.03-.82-.3-1.47-.6-1.45-.3.01-.52.68-.49 1.49.04.82.31 1.47.61 1.46zm-.27-1.01c.06.3.31.56.37.62-.69-.33-.44-.95-.37-.62zm-4.64-4.45c-.27.01-.46.54-.48 1.23l.13-.13.72-.75c-.1-.22-.23-.35-.37-.35zM8.82 52.21c-.3.02-.51.69-.47 1.5.04.82.32 1.47.62 1.45.3-.02.51-.69.47-1.5-.05-.82-.32-1.46-.62-1.45zm-.09 1.88c.06.3.31.56.38.62-.7-.33-.45-.96-.38-.62zm-.43 3.94l.07-.1c-.01.01-.03.02-.04.03l-.03.07zm.35-6.29c.3-.01.51-.68.46-1.5-.04-.81-.32-1.46-.62-1.44-.3.01-.5.68-.46 1.5.04.81.32 1.46.62 1.44zm-.28-1.01c.06.3.31.56.38.62-.7-.33-.45-.96-.38-.62zm-.01-2.52c.3-.02.51-.69.47-1.51-.04-.81-.32-1.46-.62-1.44-.3.01-.51.69-.47 1.5.05.81.32 1.46.62 1.45zm-.22-1c.06.3.31.56.38.62-.7-.33-.45-.96-.38-.62zm.1-5.69c-.04-.82-.31-1.47-.61-1.46-.3.02-.51.69-.48 1.5.03.82.3 1.47.6 1.45.3-.01.52-.68.49-1.49zm-.75.44c.06.3.31.56.38.62-.7-.33-.45-.95-.38-.62z"/>
        <path class="st6" d="M95.91 72.28l-.35-.22c.17.13.32.24.43.33H96c-.06-.07-.09-.11-.09-.11zm-38.9-15.94l-2.35-4.65-2.19-4.36-2.1-4.31c.09.65.18 1.32.27 2.02l.53 4.43c.16 1.51.31 3.03.46 4.44.15 1.42.25 2.74.36 3.88.16 1.95.25 3.34.27 3.7.01.06.01.09.01.09l.08.45c.12-.02.24-.06.36-.11.19-.08.44-.21.65-.32l5.04-2.51-.45-.88-.94-1.87zm-5.09-5.13c-.13-.8.18-1.52.7-1.61.53-.09 1.06.5 1.19 1.3.13.81-.18 1.53-.71 1.61-.52.09-1.05-.49-1.18-1.3zm1.17 2.34c.52-.09 1.05.49 1.19 1.3.13.8-.19 1.52-.71 1.61-.52.09-1.05-.5-1.18-1.3-.14-.81.18-1.53.7-1.61zm.83 6.72c-.52.08-1.05-.5-1.19-1.3-.13-.81.19-1.53.71-1.62.52-.08 1.05.5 1.19 1.31.13.8-.19 1.52-.71 1.61zm-8.33-14.3c-.03-.7.27-1.3.68-1.47-.13-1.03-.24-2.05-.36-3.08l-.56-4.78-.04-.3c-.01-.14-.01-.28.01-.42.02-.21.09-.41.18-.58-.02 0-.03.01-.05.01-.12.03-.22.03-.29.03-.24.27-.35.73-.39 1.12v.02c.03.65.07 1.76.1 3.16.01 1.13.03 2.45.05 3.87.01 1.41.01 2.92.01 4.43-.02 1.51-.04 3.02-.05 4.44-.02 1.41-.08 2.74-.1 3.87-.05 1.51-.1 2.69-.14 3.3v.05c.03.57.11 1.07.27 1.21.08-.03.17-.06.26-.09.31-.13.64-.34.95-.53.65-.41 1.28-.85 1.9-1.3-.47-3.84-.95-7.69-1.41-11.53-.53.02-.99-.62-1.02-1.43zM47.57 57c.03.82-.37 1.49-.9 1.52-.53.02-.99-.63-1.02-1.44-.03-.82.37-1.49.9-1.52.53-.02.98.63 1.02 1.44zm-4.12-25.86l-.07-1.47c-.15-.08-.33-.06-.5.04-.05.05-.23.21-.49.42-.11.09-.23.19-.36.3-.54.41-1.27.94-2.03 1.43s-1.55.93-2.15 1.24c-.28.15-.51.26-.69.34-.24.29-.36.65-.43.99v.02c.04.62.11 1.74.17 3.17.04 1.11.09 2.41.14 3.8.03 1.39.07 2.87.11 4.35.01 1.48.02 2.96.04 4.35.01 1.39-.02 2.68-.02 3.79a118.8 118.8 0 0 1-.08 3.7c.05.21.12.39.22.51.05 0 .09-.01.13-.03.1-.04.12-.05.24-.13.1-.06.16-.12.26-.19l.53-.43c.63-.52 1.24-1.06 1.86-1.6l.03-9.57.06-6.45h-.01c-.44.01-.83-.63-.86-1.45-.04-.81.3-1.49.74-1.5.06 0 .11.01.16.03v-.32l.03-1.65c.04-.7.46-1.34 1.13-1.68-.04-.13-.05-.27-.06-.41-.03-.73.27-1.33.67-1.34.35-.02.67.45.75 1.08l.54-.27-.02-.3-.04-.77zm-6.1 4.39c-.04-.82.3-1.49.74-1.51.45-.02.84.62.87 1.44.03.81-.3 1.49-.75 1.51-.44.02-.83-.63-.86-1.44zm1.23 8.77c-.44.01-.83-.63-.87-1.45-.03-.81.3-1.49.75-1.51.45-.01.83.63.87 1.45.03.81-.3 1.49-.75 1.51zm-4.77-14.44l-.09-2v-.01a.488.488 0 0 1-.03-.07c-.01-.01-.01-.02-.02-.03 0 0 0-.01-.01-.01-.19-.24-.4-.13-.59.08 0 .01-.01.01-.01.02 0 0 0 .01-.01.01-.07.12-.19.32-.37.56a.11.11 0 0 1-.02.04c-.3.43-.73.97-1.19 1.48-.46.52-.96.99-1.35 1.34-.07.06-.14.12-.2.16-.01.02-.02.03-.03.04a3.9 3.9 0 0 0-.75 1.7c.03.59.08 1.65.13 2.98.02 1.06.06 2.31.09 3.64l.06 4.16c0 1.42 0 2.84-.01 4.17 0 1.33-.04 2.58-.05 3.64-.03 1.37-.07 2.44-.1 3.03v.07c.05.47.13.91.28 1.14.02 0 .03 0 .05-.01a.57.57 0 0 0 .21-.13c.03-.03.07-.07.09-.1l.12-.15.95-1.27 1.68-2.22c-.12-4.55-.26-9.1-.35-13.64l-.1-4.54c-.03-.41.08-.96.32-1.34.01-.01.01-.02.02-.03-.24-.23-.41-.73-.43-1.32-.04-.81.23-1.49.59-1.5.37-.02.69.63.72 1.45.01.17 0 .33-.02.48.02-.02.05-.03.07-.05l.41-.24-.02-.49-.04-1.04zm-3.19 9.29c.36-.01.68.64.71 1.45.04.82-.23 1.49-.59 1.5-.36.02-.69-.63-.72-1.45-.03-.81.23-1.48.6-1.5zm.24 13.88c-.36.02-.68-.63-.72-1.45-.03-.81.24-1.48.6-1.5.36-.01.68.64.72 1.45.03.82-.24 1.49-.6 1.5zm-5.47-26.1c-.02-.21-.05-.34-.1-.48 0-.01-.01-.02-.02-.03-.13.05-.28.22-.41.4-.02.04-.05.08-.07.12-.04.05-.07.1-.1.15-.03.06-.07.12-.11.18v.01c-.03.04-.05.08-.07.11l-.02.04c-.3.45-.71 1.03-1.17 1.58-.45.56-.94 1.07-1.33 1.45l-.03.03c-.02.01-.04.04-.06.06-.17.18-.52.63-.61 1.29v.03c.06.61.15 1.76.25 3.24.07 1.12.15 2.43.24 3.82.07 1.4.14 2.89.21 4.39.05 1.49.11 2.98.15 4.38.05 1.4.06 2.71.09 3.83.02 1.34.02 2.42.02 3.07v.03c.03.31.08.82.08 1.22.04-.04.06-.08.07-.1l.02-.06v-.01l.98-2.45.48-1.23.25-.61.12-.31c.04-.09.07-.2.19-.26l-.07-5.59-.06-7.26-.01-1.68c-.02.02-.05.03-.08.03-.29.01-.54-.6-.57-1.37-.03-.76.17-1.39.45-1.4.06 0 .13.03.19.09l-.01-1.13a2.5 2.5 0 0 1 .51-1.42c-.01.01-.03.01-.04.01-.27.02-.51-.57-.54-1.3-.03-.73.16-1.33.43-1.34.27-.01.51.57.54 1.3.02.41-.04.79-.14 1.03.05-.06.11-.11.17-.17l.36-.37-.1-2.14c-.02-.39-.05-.79-.08-1.18zm-3.45 5.96c-.03-.82.19-1.49.49-1.5.3-.01.57.64.6 1.45.03.82-.18 1.49-.48 1.5s-.57-.64-.61-1.45zm.37 5.8c-.03-.81.18-1.48.48-1.5.3-.01.57.64.61 1.46.03.81-.19 1.48-.49 1.49-.3.02-.57-.63-.6-1.45zm.7 3.21c.3-.01.57.64.61 1.45.03.82-.18 1.49-.48 1.5s-.57-.64-.61-1.45c-.03-.82.18-1.49.48-1.5zm.37 9.97c-.3.02-.57-.63-.6-1.45-.04-.81.18-1.48.48-1.5.3-.01.57.64.6 1.46.04.81-.18 1.48-.48 1.49zm.36-5.04c.03.82-.18 1.49-.48 1.5-.3.01-.57-.64-.61-1.45-.03-.82.19-1.49.49-1.5s.57.64.6 1.45zm-5.92-19.54l-.01-.18c-.01-.05-.02-.09-.03-.13a.495.495 0 0 0-.04-.13c-.16.07-.31.22-.45.39 0 .01-.01.03-.03.04 0 0 0 .01-.01.02v.01c-.06.12-.19.36-.39.66-.01.01-.01.02-.01.02-.28.44-.67 1.02-1.11 1.55-.43.55-.91 1.05-1.28 1.42-.31.31-.56.52-.63.57l-.01.01a4.1 4.1 0 0 0-.51 1.36c.08.6.21 1.71.35 3.12.1 1.09.22 2.36.35 3.73.12 1.36.24 2.82.36 4.27.09 1.46.19 2.92.28 4.28.1 1.37.14 2.65.21 3.74.07 1.57.11 2.76.12 3.31v.08c.08.52.17.83.27 1.02l.99-2.23.53-1.19.27-.59.13-.3c.02-.04.03-.09.06-.13l-.24-5.13c-.23-4.92-.42-9.82-.61-14.73-.06-.23-.04-.36-.04-.54.02-.19.06-.36.12-.53.1-.33.26-.62.44-.89.19-.27.37-.49.56-.72l.57-.67a.7.7 0 0 0 .08-.1l-.17.02-.12-1.43zm-3.69 6.33c-.03-.81.19-1.48.49-1.49.3-.02.57.63.6 1.45.03.81-.18 1.48-.48 1.5-.3.01-.57-.64-.61-1.46zm.25 3.54c-.04-.81.18-1.48.48-1.49.3-.02.57.64.6 1.45.04.81-.18 1.49-.48 1.5-.3.01-.57-.64-.6-1.46zm.28 3.42c-.03-.81.18-1.48.48-1.49.3-.02.57.63.61 1.45.03.81-.19 1.48-.49 1.5-.3.01-.57-.64-.6-1.46zm.41 4.83c-.04-.82.18-1.49.48-1.5s.57.64.6 1.45c.04.82-.18 1.49-.48 1.5s-.57-.64-.6-1.45zm1.43 6.5c.03.82-.19 1.49-.49 1.5s-.57-.64-.6-1.45c-.03-.82.18-1.49.48-1.5.3-.01.57.64.61 1.45zm-5.87-23.78v-.03l-.01-.03c-.01-.04-.01-.08-.03-.11-.01-.02-.01-.04-.02-.05-.14-.03-.35.02-.66.32l-.02.02v.01l-.03.03c-.08.14-.26.43-.51.77-.37.52-.89 1.19-1.45 1.83-.55.63-1.14 1.23-1.6 1.67-.22.21-.41.38-.55.51l-.01.01c-.13.33-.25.84-.2 1.58.09.66.23 1.63.39 2.81.14 1.13.31 2.45.49 3.86.16 1.42.33 2.92.51 4.43l.44 4.44c.12 1.42.24 2.74.34 3.88.16 1.98.24 3.4.26 3.72v.01c.02.12.06.26.13.35.08-.07.16-.13.23-.2l.79-1.57.42-.82.21-.41c.09-.13.08-.31.29-.37l.04.02-.06-.71-.38-4.66-.72-9.33-.34-4.67-.18-2.35c-.02-.47.05-.92.26-1.36.1-.21.27-.45.42-.59l.27-.29c.02-.69.21-1.22.48-1.23.14 0 .27.13.37.35l.54-.57-.1-1.18-.01-.09zM7.15 41.56c-.03-.81.18-1.48.48-1.5.3-.01.57.64.61 1.46.03.81-.19 1.48-.49 1.49-.3.02-.57-.63-.6-1.45zm1.82 13.6c-.3.02-.58-.63-.62-1.45-.04-.81.17-1.48.47-1.5.3-.01.57.63.62 1.45.04.81-.17 1.48-.47 1.5zm.14-4.92c.05.82-.16 1.49-.46 1.5-.3.02-.58-.63-.62-1.44-.04-.82.16-1.49.46-1.5.3-.02.58.63.62 1.44zm-.28-3.54c.04.82-.17 1.49-.47 1.51-.3.01-.57-.64-.62-1.45-.04-.81.17-1.49.47-1.5.3-.02.58.63.62 1.44z"/>
        <path class="st1" d="M4.65 58.91c-.06.01-.2-.03-.29-.27a1.35 1.35 0 0 1-.11-.45c.27.22.57.24.57.24s.37 0 1.71-.26c.86-.18 1.08-1.54 1.12-2.48 0 .04.01.07.01.11 0 .01.01.01 0 .02.02.85.01 2.04-.06 2.67-.05.03-.1.04-.14.06-.06.01-.16.04-.21.05l-.49.07c-.67.1-1.35.17-2.03.23l-.08.01z"/>
        <path class="st7" d="M78.37 51.05l-.47.87-.77 1.43-.17.31-.94 1.74-.47.87-.24.43c-.04.08-.08.16-.13.23l-.09.19-1.07 2.21-.18.4.2.09c.08-.19.2-.39.33-.58.18-.25.4-.47.59-.63.09-.07.17-.13.23-.17.33-.44.62-.87.77-1.37-.26.43-.46.72-.51.79.02-.1.15-.52.37-1.1.25-.66.6-1.53 1.01-2.38.15-.32.31-.63.46-.94.26-.5.53-.97.75-1.35.05-.08.09-.15.14-.22l.29-.96c-.04.03-.07.09-.1.14zM59.95 35.74h-.01l-.77.36-1.53.71-.02.02-3.88 2.84-1.97 1.44-.49.36s-.06.19.28.16l.03-.03c.15-.13.36-.29.58-.41.23-.12.48-.19.68-.23.19-.05.35-.04.35-.04s-.03.05-.09.12c.43-.22.87-.49 1.22-.72.01 0 .02-.01.02-.01.15-.15.41-.4.74-.7.56-.48 1.32-1.11 2.12-1.7.79-.58 1.61-1.13 2.24-1.52.24-.15.45-.27.62-.37.04-.02.08-.04.11-.06.01 0 .01 0 .01-.01l.22-.26-.06-.14c-.13.06-.27.13-.4.19zm-4.13-1.94c.31-.11.57-.2.78-.27h.01c.01-.01.03-.01.04-.01.25-.13.53-.21.77-.12-.11-.2-.29-.39-.47-.45l-1.14-.38-1.14-.38a1.43 1.43 0 0 0-.42 0c-.16.02-.33.06-.5.11l-4.38 1.9-2.21.96-.28.12a.88.88 0 0 0-.13.07c0 .23.11.54.53.86.19.03.39.08.59.15.29.1.54.25.74.38h.01c.37.02.89.01 1.42-.13.18-.12.43-.28.74-.45.67-.37 1.56-.85 2.48-1.27.91-.44 1.85-.82 2.56-1.09zM49 33.37l1.86-.77c.51-.31 1.07-.7 1.14-.97-.04-.03-.09-.06-.14-.09-.11-.06-.28-.13-.43-.18-.15-.05-.32-.09-.49-.14-.65-.17-1.32-.31-2-.43-.26-.01-.58.02-.85.09-.13.04-.27.09-.38.14l-.44.23-1.76.92-2.68 1.4-.74.38L42 34l-.02.01s-.33.46.25.82h.07c.27.01.62.05.96.14.3.08.58.19.8.3.3-.02.78-.07 1.26-.16l.01-.01c.15-.15.38-.32.63-.44.14-.07.28-.13.42-.17.04-.03.08-.05.12-.07l.28-.12 2.22-.93zm-6.31-3.58c.01 0 .03-.01.04-.02.16-.21.25-.41.12-.53-.34-.1-.68-.15-1.05-.21-.37-.04-.74-.08-1.11-.11-.35-.04-.63.01-.95.11-.31.1-.58.29-.92.49l-.97.59-1.95 1.17-1.32.79-.63.37c-.13.07-.25.17-.35.29.07.12.26.24.65.33.23 0 .5.01.77.06.35.05.69.16.94.26.04.02.08.04.11.05.3-.03.72-.08 1.11-.15h.01c.14-.12.31-.26.51-.41.54-.42 1.27-.95 2.03-1.43.76-.49 1.54-.94 2.15-1.25.32-.17.6-.3.78-.38.01-.01.02-.01.03-.02zm-10.18-2.53l-1.96-.12h-.01l-.08-.02c-.03 0-.17-.01-.26 0-.1.01-.2.04-.3.08-.2.07-.38.2-.54.37l-1.13 1.25c-.77.83-1.56 1.64-2.34 2.46h-.01l-.03.03s-.16.36.26.63c.07-.01.16-.03.25-.04.3-.04.69-.07 1.08-.04.39.02.77.1 1.06.18l.1.03c.31-.13.73-.33 1.07-.63.06-.1.15-.23.24-.36.3-.42.72-.97 1.19-1.48.46-.52.96-.99 1.35-1.34.21-.18.39-.32.51-.41.09-.18.14-.4.04-.56l-.49-.03zm-8.34-1.04l-1.2.09-.62.02c-.19 0-.33.02-.5.06-.31.08-.64.23-.9.4-.76.85-1.5 1.72-2.23 2.59l-.55.66c-.18.22-.37.46-.51.66 0 0 0 .01-.01.03-.02.11-.04.46.44.6.04-.02.1-.03.15-.05.29-.08.69-.15 1.08-.17a5.478 5.478 0 0 1 1.3.07c.32-.09.61-.23.87-.43.07-.13.17-.29.29-.47.29-.45.7-1.03 1.16-1.58.45-.56.95-1.07 1.33-1.45.18-.17.33-.31.45-.4.01-.01.01-.02.01-.02.15-.26.22-.53.05-.67l-.61.06zm-9.01.87l-.58.09c-.15.03-.32.08-.46.14-.15.07-.29.15-.41.24a.58.58 0 0 0-.16.15l-.2.21-2.92 3.11-.28.3-.4.43-.01.01c0 .15.06.34.3.45.06-.03.14-.05.22-.08.02-.01.04-.01.06-.02.29-.08.67-.16 1.05-.2.41-.05.82-.04 1.13-.01.17.02.31.04.4.06.2-.11.55-.34 1.11-.79l.01-.01c.06-.11.13-.24.22-.38.28-.45.68-1.02 1.11-1.56.44-.54.91-1.05 1.29-1.42.32-.31.58-.52.64-.57 0 .01-.01.02-.02.04.02-.01.03-.03.03-.04.13-.21.23-.4.23-.54l-.05.01-2.31.38zm-5.3 1.14l.01-.01c.14-.19.25-.36.27-.49l-2.24.26c-.38.05-.72.09-1.04.18-.17.04-.32.1-.45.16-.07.03-.13.07-.18.11-.04.01-.1.11-.06.03l-.08.12-2.82 3.07c-.45.51-.94 1.04-1.31 1.54-.07.1-.12.2-.16.3.1.06.27.1.51.11.02-.01.04-.01.07-.02.29-.09.68-.18 1.08-.21.31-.03.62-.03.89 0 .8-.19 1.21-.43 1.49-.65.01 0 .01-.01.01-.02.08-.1.15-.21.24-.33.37-.52.88-1.19 1.44-1.82.55-.64 1.15-1.24 1.61-1.68.31-.3.56-.51.69-.62l.03-.03z"/>
        <path class="st8" d="M96.7 72.69c-.04 0-.08-.01-.13-.02-.15-.04-.33-.13-.48-.21.1.08.17.13.21.17-.05-.03-.12-.08-.22-.14.15.19.35.5.48.84.02-.05.04-.11.06-.17.04-.15.09-.31.12-.46v-.01h-.04zm-1.08-.5c-.59-.37-1.49-.95-2.58-1.67-.98-.65-2.13-1.42-3.36-2.25-1.22-.84-2.52-1.73-3.82-2.62-1.29-.92-2.58-1.83-3.79-2.69-1.2-.87-2.31-1.68-3.27-2.37-.98-.72-1.79-1.33-2.34-1.76l-.01-.01c-.38-.28-.64-.48-.75-.57l-.41.13s-.02.17-.11.4c-.08.22-.22.5-.4.75-.18.25-.4.48-.58.63-.19.15-.34.23-.34.23s.01-.06.03-.16c-.14.16-.23.21-.3.21-.02.14-.01.26.02.36.02.06.05.11.09.16.03.05.1.11.1.11h.01l.03.02 10.89 7.89 5.46 3.92 2.74 1.95c.34.24.67.47 1.01.7.28-.02.67-.09.9-.38.33-.43 1.99-1.76.81-2.95l-.03-.03zM65.7 64.68c-.01 0-.01-.01-.01-.01a.3.3 0 0 0-.06-.11c-.02-.04-.05-.07-.06-.12-.01 0-.01-.01-.01-.01-.03-.04-.06-.09-.09-.14.15.41.22.91-.1 1.24l.13-.03.03-.01c.17-.07.35-.17.52-.29.02-.01.04-.03.06-.04-.14-.1-.28-.28-.41-.48zm6.99-1.73c-.89-1.3-1.85-2.69-2.8-4.07-.94-1.4-1.87-2.79-2.75-4.1-.86-1.32-1.67-2.55-2.36-3.61-.84-1.31-1.49-2.35-1.87-2.96-.02-.03-.03-.05-.04-.07-.09-.15-.17-.26-.22-.35.02.08.05.15.08.21-.29-.25-.39-.15-.39-.15-.38-.21-1.86 1.81-1.86 1.81.03.09.04.1.12.23l.24.37.07.12.84 1.33 1.81 2.88c1.21 1.92 2.44 3.82 3.7 5.71 2.52 3.77 5.14 7.48 7.84 11.13l.03.04.02.06c.03.05.07.12.13.19.69-.3 2.42-1.12 2.27-1.99-.28-.39-1.17-1.59-2.38-3.26-.72-1.03-1.57-2.24-2.48-3.52zm-12.34-27.4l.06.14.18-.22c-.06 0-.14.04-.24.08zm.11.25l-.05-.11-.22.26c.13-.06.22-.12.27-.15zm-8.2 25.69c-.03-.17-.1-.6-.2-1.21-.01.58-.12 1.46-.48 1.77.12.02.36.04.54.02.08-.01.15-.02.23-.04l-.08-.45s0-.03-.01-.09zm12.83 2.09c-.34-.62-.77-1.42-1.27-2.37-.57-1.12-1.25-2.42-1.97-3.82-.7-1.41-1.46-2.91-2.21-4.41-.73-1.51-1.46-3.02-2.15-4.44-.67-1.42-1.3-2.75-1.83-3.89-.86-1.87-1.47-3.23-1.66-3.67-.03-.05-.05-.09-.06-.11 0-.01 0-.02-.01-.03l.28-.39c.02-.02.06-.07.12-.13-.35.23-.79.5-1.22.72l-.01.01c-.03.04-.07.1-.12.15-.14.15-.34.32-.58.44-.23.12-.49.19-.69.22-.21.02-.36-.02-.36-.02l.21-.21c-.34.03-.28-.16-.28-.16l-.11.08-.04.04c-.03.04-.06.09-.08.14-.05.11-.06.22-.04.34.01.06.04.15.05.19l.13.27 4.34 8.73 2.12 4.28 1.03 2.07 1.19 2.4 2.18 4.38.25.5c.61.71 1.05.55 1.05.55 1.92-.29 1.95-1.23 1.75-1.83 0-.01-.01-.02-.01-.03zm-13.07-3.61c-.09-.59-.2-1.32-.31-2.15-.15-1.13-.34-2.45-.51-3.86-.17-1.41-.35-2.92-.53-4.43-.16-1.51-.31-3.02-.46-4.44-.13-1.42-.26-2.74-.36-3.88-.12-1.42-.2-2.54-.24-3.19-.01-.1-.02-.19-.02-.27a8.22 8.22 0 0 0-.02-.33l-.75-.38c-.07 0-.16-.01-.27-.02-.24-.02-.55-.08-.85-.19-.3-.1-.58-.26-.78-.4-.2-.13-.32-.26-.32-.26h-.35v.05l.04.3.58 4.78c.16 1.28.32 2.56.46 3.84.06.39.1.78.15 1.18.55 4.64 1.07 9.28 1.61 13.94.21.43.47.69.47.69l1.12.32c.86.24 1.22-.79 1.34-1.29v-.01zm-7.4.08c0-.06-.02-.36-.04-.85-.04.56-.16 1.25-.5 1.59.07.01.13.03.2.05l.09.03c.01 0 .09.02.13.02.06 0 .14 0 .21-.01l.2-.03c-.16-.14-.24-.64-.27-1.21-.01.23-.02.37-.02.41zm-.56-24.78c.04.02.07.03.1.05.24.13.39.25.39.25s-.19.04-.46.03c-.27-.01-.62-.05-.96-.15-.34-.09-.66-.23-.9-.35-.24-.13-.39-.25-.39-.25s.16-.02.39-.02c-.58-.36-.25-.82-.25-.82-.29.15-.56.51-.56.89l-.02 1.58-.01 3.23-.04 6.46-.11 9.87-.04 2.93c.26.39.74.75 1.57.96 1.35.35 1.71-.48 1.8-1.07-.02-.65-.05-1.53-.07-2.57-.02-1.14-.06-2.46-.06-3.87 0-1.42 0-2.93-.01-4.44l.06-4.43c.04-1.42.07-2.74.1-3.87.06-2.05.14-3.48.16-3.74.01.08.01.27.02.56.04-.39.15-.85.39-1.12h-.08s.09-.13.24-.27c-.48.09-.96.14-1.26.16zm-6.98 22.28c0-.13-.03-.46-.05-.95v-.05h-.01v-.02c-.03-.64-.08-1.54-.13-2.61-.04-1.11-.11-2.41-.14-3.79-.03-1.39-.07-2.87-.1-4.35-.02-1.49-.03-2.97-.04-4.36 0-1.38.01-2.68.01-3.79.01-.97.03-1.8.04-2.43 0-.07 0-.16.01-.26.01-.65.03-1.02.03-1.02l.03.51c.07-.34.19-.7.43-.99-.16.08-.27.13-.31.14.04-.04.15-.15.33-.3-.39.07-.81.12-1.11.15.19.09.3.16.3.16s-.19.05-.46.07c-.27.02-.63.01-.97-.05a4.82 4.82 0 0 1-.94-.27c-.25-.1-.41-.21-.41-.21s.19-.05.46-.06c.06-.01.13-.01.2-.01-.39-.09-.58-.21-.65-.33-.11.11-.2.23-.27.35-.15.27-.2.49-.19.84l.13 4.55c.12 4.59.2 9.19.29 13.79.04 1.3.06 2.58.09 3.88.28.53.85 1.07 1.96 1.28.87.17 1.24-.3 1.39-.75-.09.48-.28 1.1-.59 1.43.15.04.34.07.5.07.15 0 .28-.01.4-.05-.1-.12-.17-.3-.22-.51 0-.02 0-.04-.01-.06zm-7.84-2.29c-.01-.07-.02-.22-.03-.45-.1.48-.28.97-.67 1.19l.46.03h.05l.04.01c.04.01.16.02.25.01.07-.01.14-.02.2-.05-.15-.23-.23-.67-.28-1.14-.01.19-.01.33-.02.4zm.43-23.82c-.34.3-.76.5-1.07.63.22.06.37.14.37.14s-.2.07-.49.11a5.207 5.207 0 0 1-2.13-.14c-.29-.08-.48-.17-.48-.17s.09-.03.24-.07c-.42-.27-.26-.63-.26-.63-.34.3-.62.79-.62 1.22l.02 1.8.04 3.63.05 7.26.03 7.26.01 1.82v.23c.3.58.94.93 2.37.96.97.03 1.31-.8 1.43-1.39v-.01c-.03-.61-.06-1.4-.1-2.33-.03-1.06-.09-2.3-.1-3.63l-.06-4.17c0-1.42.01-2.84.01-4.17.02-1.33.04-2.57.06-3.64.04-2.13.12-3.55.12-3.55l.03.57c.09-.5.3-1.12.75-1.7-.23.18-.39.3-.44.33.02-.04.1-.18.22-.36zm-7.43 23.83s-.03-.23-.06-.65c-.06.69-.29 1.49-.95 1.65.32-.03.55-.07.77-.17.14-.05.27-.16.33-.25 0-.4-.05-.91-.08-1.22-.01.41-.01.64-.01.64z"/>
        <path class="st8" d="M22.14 54.1c-.05-.64-.12-1.52-.19-2.56-.07-1.12-.17-2.42-.24-3.82-.07-1.4-.14-2.89-.21-4.38-.05-1.5-.1-2.99-.15-4.39-.03-1.4-.06-2.71-.08-3.83-.04-1.77-.02-3.08-.02-3.55.01.06.02.15.04.27.09-.66.44-1.11.61-1.29-.29.28-.51.45-.57.5.02-.04.07-.14.16-.3-.26.2-.55.34-.87.43.19.04.3.08.3.08s-.19.09-.49.17c-.29.07-.68.15-1.08.17-.39.03-.79 0-1.09-.04-.3-.04-.51-.11-.51-.11s.13-.06.34-.12c-.48-.14-.46-.49-.44-.6-.14.21-.25.42-.32.63-.03.12-.06.23-.06.33-.02.09 0 .24 0 .22l.03.15c.23 4.92.46 9.84.65 14.77l.29 7.38.03.93c.01.09.01.19.01.28.37.49.92.4.92.4s.26 0 1.6-.06c.92-.03 1.23-1.03 1.34-1.66zm-7.15 1.57c-.01-.03-.01-.11-.03-.22-.01-.01-.01-.01 0-.02v-.01c-.01-.01-.01-.03-.01-.05v-.02c-.07-.55-.21-1.73-.37-3.29-.11-1.09-.25-2.36-.36-3.72-.11-1.37-.23-2.82-.35-4.28-.1-1.46-.2-2.91-.29-4.28-.07-1.37-.14-2.64-.2-3.74-.09-2.01-.12-3.4-.13-3.62.01.06.03.23.06.48.05-.29.17-.77.51-1.36l.01-.01c.02-.05.08-.17.18-.35-.56.45-.91.68-1.11.79l.12.03s-.19.1-.49.19-.7.19-1.11.23c-.41.04-.82.03-1.13 0-.04 0-.07-.01-.11-.02-.25-.02-.41-.06-.41-.06s.1-.05.27-.12c-.24-.11-.3-.3-.3-.45-.11.11-.17.18-.23.29l-.03.06c-.13.26-.18.6-.16.91l.19 2.32.38 4.66.72 9.33.34 4.67.17 2.33c0 .03.01.07.01.1.4.5 1.01.6 1.01.6s.43-.05 1.66-.32c.61-.13.94-.7 1.15-1.26-.01.53-.04 1.11-.14 1.5.04-.02.09-.06.13-.1.09-.07.18-.18.24-.27l.02-.02.05-.12c-.1-.19-.19-.5-.27-1.02.01.12.01.2.01.24zm-7.02 2.2s0-.02-.01-.07c-.01-.08-.02-.15-.03-.21-.05-.33-.15-.95-.27-1.77.02.85.01 2.04-.06 2.67.01-.01.02-.01.03-.02.16-.08.32-.19.47-.31a.82.82 0 0 1-.13-.35v.06zm-.54-3.76c-.15-1.13-.31-2.45-.49-3.86-.16-1.42-.34-2.93-.51-4.43l-.44-4.44c-.12-1.42-.24-2.74-.34-3.88-.18-2.27-.26-3.79-.26-3.79s.05.34.15.95c-.05-.74.07-1.25.2-1.58l-.24.19s.12-.21.34-.54c-.28.22-.69.46-1.49.65.07 0 .14 0 .2.01.3.04.5.1.5.1s-.19.1-.48.18c-.29.09-.68.18-1.07.21s-.79.02-1.09-.02c-.3-.03-.5-.09-.5-.09s.16-.08.4-.16c-.24-.01-.41-.05-.51-.11-.19.41-.23.86-.13 1.39l.96 8.3.91 8.31.45 4.16.21 2.08c.02.16.03.31.05.45.27.22.57.24.57.24s.37 0 1.71-.26c.86-.18 1.08-1.54 1.12-2.48-.07-.47-.14-1-.22-1.58z"/>
        <path class="st9" d="M96.03 72.42s0-.01-.01-.01l-.02-.02h-.01c-.11-.09-.26-.2-.43-.33-.55-.42-1.36-1.04-2.35-1.77-.96-.69-2.08-1.5-3.28-2.37-1.21-.86-2.5-1.77-3.79-2.68-1.3-.9-2.6-1.79-3.82-2.63-1.23-.82-2.38-1.59-3.36-2.25-1.14-.75-2.08-1.36-2.66-1.73-.3-.19-.51-.32-.6-.38.11.09.37.29.75.57l.01.01c.55.43 1.36 1.04 2.34 1.76.96.69 2.07 1.5 3.27 2.37 1.21.86 2.5 1.77 3.79 2.69 1.3.89 2.6 1.78 3.82 2.62 1.23.83 2.38 1.6 3.36 2.25 1.09.72 1.99 1.3 2.58 1.67l.03.03c.17.11.32.2.43.27.1.06.17.11.22.14-.04-.04-.11-.09-.21-.17a.21.21 0 0 1-.06-.04zM75.98 57.03h.01v-.01c.02-.04.05-.09.08-.14.36-.61.81-1.44 1.21-2.29.41-.85.77-1.72 1.02-2.38.16-.44.27-.79.33-.98 0-.01 0-.02.01-.02.01-.05.02-.09.02-.11-.05.07-.23.36-.48.77-.05.07-.09.14-.14.22-.22.38-.49.85-.75 1.35-.15.31-.31.62-.46.94-.41.85-.76 1.72-1.01 2.38-.22.58-.35 1-.37 1.1.05-.07.25-.36.51-.79 0-.01.01-.02.02-.04zm-1.02 1.58c-.19.16-.41.38-.59.63-.13.19-.25.39-.33.58-.03.06-.05.12-.07.18-.03.08-.06.16-.07.22l-.01.01c-.02.1-.03.16-.03.16s.15-.08.34-.23c.18-.15.4-.38.58-.63.18-.25.32-.53.4-.75.09-.23.11-.4.11-.4s-.04.02-.1.06c-.06.04-.14.1-.23.17z"/>
        <path class="st9" d="M99.33 64.55a1.91 1.91 0 0 0-.31-.68c-.15-.19-.29-.34-.53-.49l-12.92-9.11-3.23-2.28-1.61-1.14-.81-.57c-.24-.18-.7-.48-1.2-.39-.5.11-.81.42-1.03.8l-.46.87-.42.78c-.01-.02-.02-.03-.03-.05l-.26-.36-.5-.72L75 49.76l-2.02-2.9-2.03-2.9-1.02-1.45c-.13-.2-.37-.61-.84-.73-.45-.11-.81-.02-1.18.17h-.01l-.03.02-1.96 1.44c-.02-.07-.07-.13-.1-.21l-.19-.38-.39-.77-.77-1.53-1.55-3.07-.78-1.53-.19-.38c-.05-.08-.04-.09-.13-.23a.984.984 0 0 0-.17-.22c-.25-.27-.67-.49-1.11-.44-.46.08-.64.24-.92.34l-.78.35-.51.23v-.1l-.03-.68-.05-1.35v-.05l-.01-.04c-.18-.49-.48-.9-1.01-1.12l-1.13-.4-1.14-.4c-.35-.1-.53-.08-.78-.06-.24.02-.46.07-.68.14-.2.08-.39.15-.57.23 0-.02 0-.04-.01-.06-.04-.13-.1-.24-.18-.34-.15-.2-.33-.34-.52-.44-.19-.11-.35-.17-.54-.23-.18-.07-.35-.12-.53-.17-.7-.2-1.39-.35-2.1-.49l-.02-.01h-.01c-.4-.02-.75.01-1.12.1-.18.05-.36.1-.54.19l-.44.22-1.77.89-.92.46-.03-.74-.05-1.54v-.03c-.16-.66-.63-.9-1.06-1.06-.39-.13-.79-.19-1.17-.25-.39-.06-.77-.1-1.15-.14-.41-.06-.89 0-1.29.13-.42.13-.79.37-1.1.55l-.98.57-1.97 1.14-.84.49v-.1l-.03-1.05-.05-2.09v-.07l-.02-.05c-.08-.22-.17-.37-.3-.54-.13-.16-.29-.32-.49-.43-.1-.05-.21-.1-.33-.12l-.18-.03-.12-.01-.49-.04-1.96-.16a1.42 1.42 0 0 0-.5-.02c-.18.01-.35.06-.52.12-.33.12-.62.32-.85.56l-1.17 1.24-1.3 1.34-.03-1.45c-.02-.41-.03-.81-.06-1.22a2.37 2.37 0 0 0-.13-.69c-.08-.24-.25-.52-.52-.68-.13-.08-.28-.14-.43-.16-.08-.01-.15-.02-.25-.01l-.15.01-.59.04-1.19.08-.58.02c-.21 0-.47.02-.69.08-.23.05-.44.13-.64.22a3.5 3.5 0 0 0-.6.32l-.04.03-.04.04c-.58.64-1.14 1.29-1.7 1.95l-.06-.89-.02-.18c0-.07-.01-.14-.03-.22-.02-.14-.08-.3-.17-.46a.96.96 0 0 0-.46-.38c-.1-.04-.2-.05-.3-.06-.1 0-.17 0-.3.04l.05-.02-2.32.33-.58.08c-.23.03-.44.1-.66.18-.21.09-.41.21-.6.35-.09.07-.19.15-.27.24l-.2.22-1.3 1.36-.03-.53v-.09l-.01-.07-.01-.06c-.01-.07-.02-.15-.05-.23a1.07 1.07 0 0 0-.75-.74c-.09-.02-.18-.03-.26-.04-.09 0-.16 0-.28.02l.04-.01-2.24.22c-.37.03-.78.07-1.18.17-.2.05-.41.12-.61.22-.1.05-.21.11-.31.18-.09.08-.16.11-.25.25l-.03.04-2.83 3.02c-.47.53-.94 1.02-1.41 1.63-.48.68-.59 1.61-.45 2.32l.89 8.31.95 8.31.48 4.15.25 2.07c.05.33.06.72.24 1.14.14.39.63.88 1.25.76.69-.07 1.38-.15 2.07-.26.18-.03.35-.06.54-.1.11-.02.18-.04.29-.08.11-.03.21-.08.29-.13.36-.2.64-.42.92-.69l.04-.05.03-.06.8-1.65.38-.79.04.5c.04.38.03.77.17 1.25.09.22.19.5.49.71.28.19.61.21.89.09l2.06-.39.52-.1.27-.05c.12-.03.23-.06.33-.11.21-.1.39-.23.55-.37a2 2 0 0 0 .4-.5l.02-.02.01-.02 1.01-2.4.37-.87.03.61.05.92c.03.32-.01.58.1 1.02.11.42.48.81.9.93.09.03.24.06.35.06h.71c.63-.01 1.24-.03 1.89-.1.29-.03.68-.09 1.02-.26.32-.17.66-.38.81-.87l.93-2.46.37-.97.02 1.77c.02.32-.02.55.05.99.07.38.28.78.63 1.03.32.25.79.33 1.05.36.32.04.62.07.92.09.62.06 1.22.09 1.84.11.17.03.3.03.45.01.17-.01.34-.06.51-.13.16-.08.31-.18.44-.3.07-.06.12-.12.18-.2l.11-.16.93-1.28 1.08-1.5c.04 1.11.07 2.21.1 3.32v.04l.01.03c.04.22.1.38.19.56.09.18.2.35.34.5.14.15.32.27.51.36l.45.19c.6.23 1.19.42 1.82.56l.04.01c.27.07.5.1.78.11.27-.01.56-.04.84-.16.12-.04.3-.16.38-.21l.3-.23.54-.46c.46-.4.91-.81 1.36-1.22l-.01 2.32c-.02.26-.01.46.04.7.05.23.14.48.31.69.08.11.19.21.31.29.11.07.26.14.33.16.19.07.39.14.57.19.73.22 1.45.4 2.19.56.16.06.25.06.38.07.13.01.25 0 .37-.02.24-.03.45-.1.66-.19.4-.18.72-.4 1.06-.62.54-.36 1.07-.74 1.58-1.13.03.27.07.53.1.8.01.3.06.55.17.85.06.15.14.31.29.46a1 1 0 0 0 .25.2c.1.05.12.05.2.09.51.21.96.35 1.45.51l.71.23c.38.08.61.07.91.04.29-.03.58-.1.84-.21.27-.13.46-.24.69-.35l5-2.62.34.68 2.21 4.36.55 1.09c.3.56.85.78 1.36.82.54.01.88-.09 1.31-.16.41-.08.81-.17 1.22-.27l.03-.01.02-.01c.35-.15.64-.32.93-.55.3-.25.49-.47.73-.7l1.13-1.12c1.9 2.72 3.85 5.41 5.83 8.07l.01.01c.11.22.24.37.42.53.2.17.46.3.74.33.56.07 1.01-.15 1.38-.39.32-.21.67-.5.96-.75.3-.26.59-.52.87-.79a77.67 77.67 0 0 0 3.01-3.01l2.45 1.8 5.44 3.96 2.72 1.97c.46.32.94.68 1.4.98.28.19.69.34 1.12.27.43-.08.74-.29.99-.62.43-.57.82-1.12 1.2-1.74.2-.34.34-.69.45-1.04.11-.36.19-.69.26-1.08l.96-4.33.48-2.18c.04-.18.09-.36.12-.6.01-.23.01-.47-.04-.71zm-89.29-9.76c-.21.06-.2.24-.29.37l-.21.41-.42.82-.79 1.57c.01-.01.03-.02.04-.03l-.07.1.03-.07c-.07.07-.15.13-.23.2-.15.12-.31.23-.47.31-.01.01-.02.01-.03.02-.05.03-.1.04-.14.06-.06.01-.16.04-.21.05l-.49.07c-.67.1-1.35.17-2.03.23l-.08.01c-.06.01-.2-.03-.29-.27a1.35 1.35 0 0 1-.11-.45c-.02-.14-.03-.29-.05-.45l-.21-2.08-.45-4.16-.91-8.31-.96-8.3c-.1-.53-.06-.98.13-1.39.04-.1.09-.2.16-.3.37-.5.86-1.03 1.31-1.54l2.82-3.07.08-.12c-.04.08.02-.02.06-.03.05-.04.11-.08.18-.11.13-.06.28-.12.45-.16.32-.09.66-.13 1.04-.18l2.24-.26.04-.01s.06-.01.09-.01c.03.01.07.01.09.02.06.01.1.03.14.07.02.02.05.06.07.11.01.01.01.03.02.05.02.03.02.07.03.11l.01.03v.03l.01.09.1 1.18-.54.57-.72.75-.13.13-.27.29c-.15.14-.32.38-.42.59-.21.44-.28.89-.26 1.36l.18 2.35.34 4.67.72 9.33.38 4.66.06.71-.04-.02zm7.13-2.65l-.13.3-.27.59-.53 1.19-.99 2.23-.05.12-.02.02c-.06.09-.15.2-.24.27-.04.04-.09.08-.13.1v.01c-.07.04-.13.08-.2.11-.05.02-.11.04-.17.05l-.24.04-.52.09-2.08.36-.14.05c-.03.01-.09.01-.09-.01a.568.568 0 0 1-.13-.25c-.07-.25-.09-.61-.11-.97 0-.03-.01-.07-.01-.1l-.17-2.33-.34-4.67-.72-9.33-.38-4.66-.19-2.32c-.02-.31.03-.65.16-.91l.03-.06c.06-.11.12-.18.23-.29l.01-.01.4-.43.28-.3 2.92-3.11.2-.21c.04-.06.09-.1.16-.15.12-.09.26-.17.41-.24.14-.06.31-.11.46-.14l.58-.09 2.31-.38.05-.01c-.02 0 .03-.01.05 0 .02 0 .04 0 .05.01.03 0 .05.02.09.06.01.02.02.05.03.08.02.04.03.08.04.13.01.04.02.08.03.13l.01.18.12 1.43.17-.02a.7.7 0 0 1-.08.1l-.57.67c-.19.23-.37.45-.56.72-.18.27-.34.56-.44.89-.06.17-.1.34-.12.53 0 .18-.02.31.04.54v-.04l.03.14c-.01-.04-.02-.07-.03-.1.19 4.91.38 9.81.61 14.73l.24 5.13c-.03.04-.04.09-.06.13zm7.87-21.35c-.06.17-.15.28-.25.3-.3.4-.49.88-.51 1.42l.01 1.13v.7l.01 1.59c.04.05.07.08.09.1-.03-.01-.06-.03-.09-.04v.3l.01 1.68.06 7.26.07 5.59c-.12.06-.15.17-.19.26l-.12.31-.25.61-.48 1.23-.98 2.45v.01l-.02.06c-.01.02-.03.06-.07.1-.06.09-.19.2-.33.25-.22.1-.45.14-.77.17-.57.06-1.19.07-1.79.07l-.46-.01h-.22c-.05 0-.05-.01-.11-.02a.488.488 0 0 1-.32-.36c-.03-.11-.04-.31-.05-.53 0-.09 0-.19-.01-.28l-.03-.93-.29-7.38c-.19-4.93-.42-9.85-.65-14.77l-.03-.15c0 .02-.02-.13 0-.22 0-.1.03-.21.06-.33.07-.21.18-.42.32-.63.01-.02.01-.03.01-.03.14-.2.33-.44.51-.66l.55-.66c.73-.87 1.47-1.74 2.23-2.59-.02 0-.03.01-.04.02l.08-.07c-.01.02-.03.03-.04.05.26-.17.59-.32.9-.4.17-.04.31-.06.5-.06l.62-.02 1.2-.09.61-.06.14-.01h.06c.04 0 .08.02.12.04.07.04.13.12.17.23.01.01.02.02.02.03.05.14.08.27.1.48.03.39.06.79.08 1.18l.1 2.14-.36.37c-.06.06-.12.11-.17.17zm7.77 1.41c-.03.02-.05.04-.06.07-.09.1-.15.2-.22.3-.01.01-.01.02-.02.03-.24.38-.35.93-.32 1.34l.1 4.54c.09 4.54.23 9.09.35 13.64l-1.68 2.22-.95 1.27-.12.15c-.02.03-.06.07-.09.1a.57.57 0 0 1-.21.13c-.02.01-.03.01-.05.01-.06.03-.13.04-.2.05-.09.01-.21 0-.25-.01l-.04-.01H29l-.46-.03c-.44-.02-.89-.05-1.33-.09-.56-.08-1.27-.08-1.53-.3a.802.802 0 0 1-.28-.49c-.02-.12-.02-.36-.02-.59v-.23l-.01-1.82-.03-7.26-.05-7.26-.04-3.63-.02-1.8c0-.43.28-.92.62-1.22l.03-.03h.01c.78-.82 1.57-1.63 2.34-2.46l1.13-1.25c.16-.17.34-.3.54-.37.1-.04.2-.07.3-.08.09-.01.23 0 .26 0l.08.02h.01l1.96.12.49.03.12.01.06.01c.04.01.09.03.13.05.08.04.17.12.24.21.05.05.09.11.11.17.01 0 .01.01.01.01.01.01.01.02.02.03.01.03.02.05.03.07v-.07l.02.07v.03c0-.01 0-.01-.02-.02l.09 2 .04 1.04.02.49-.41.24c-.02.02-.05.03-.07.05-.23.14-.42.32-.58.52zm7.67 2.63l-.03 1.65v.32l-.02 2.4-.01.11v.41l-.06 6.45-.03 9.57c-.62.54-1.23 1.08-1.86 1.6l-.53.43c-.1.07-.16.13-.26.19-.12.08-.14.09-.24.13-.04.02-.08.03-.13.03-.12.04-.25.05-.4.05-.16 0-.35-.03-.5-.07-.02-.01-.04-.01-.06-.02l-.01-.01h-.03c-.57-.15-1.16-.33-1.72-.55l-.4-.18a.832.832 0 0 1-.25-.18 1.39 1.39 0 0 1-.28-.53c0-.16-.01-.33-.01-.49-.03-1.3-.05-2.58-.09-3.88-.09-4.6-.17-9.2-.29-13.79l-.13-4.55c-.01-.35.04-.57.19-.84.07-.12.16-.24.27-.35.1-.12.22-.22.35-.29l.63-.37 1.32-.79 1.95-1.17.97-.59c.34-.2.61-.39.92-.49.32-.1.6-.15.95-.11.37.03.74.07 1.11.11.37.06.71.11 1.05.21.27.06.52.31.53.4v.03l.07 1.47.04.77.02.3-.54.27-1.35.67h-.01c-.67.34-1.09.98-1.13 1.68zm5.64 25.4c-.31.19-.64.4-.95.53-.09.03-.18.06-.26.09l-.2.03c-.07.01-.15.01-.21.01-.04 0-.12-.02-.13-.02l-.09-.03c-.07-.02-.13-.04-.2-.05-.65-.18-1.31-.35-1.95-.54-.18-.06-.34-.11-.5-.18-.11-.04-.12-.05-.17-.08a.284.284 0 0 1-.1-.09.893.893 0 0 1-.14-.34 1.2 1.2 0 0 1-.02-.42v-.17l.04-2.93.11-9.87.04-6.46.01-3.23.02-1.58c0-.38.27-.74.56-.89L42 34l.09-.05.74-.38 2.68-1.4 1.76-.92.44-.23c.11-.05.25-.1.38-.14.27-.07.59-.1.85-.09.68.12 1.35.26 2 .43.17.05.34.09.49.14.15.05.32.12.43.18.05.03.1.06.14.09.06.04.12.09.16.14.03.04.05.08.07.13.01.04.01.06.08.09-.36.15-.71.3-1.08.45l-.37.16-1.86.77-2.22.93-.28.12c-.04.02-.08.04-.12.07-.14.04-.28.1-.42.17-.25.12-.48.29-.63.44l-.01.01c-.15.14-.24.27-.24.27h.08c.07 0 .17 0 .29-.03.02 0 .03-.01.05-.01-.09.17-.16.37-.18.58-.02.14-.02.28-.01.42l.04.3.56 4.78c.12 1.03.23 2.05.36 3.08.08.75.17 1.49.26 2.24.01.05.01.09.02.14l.06.52c.46 3.84.94 7.69 1.41 11.53-.62.45-1.25.89-1.9 1.3zm7.24 1.37c-.21.11-.46.24-.65.32-.12.05-.24.09-.36.11-.08.02-.15.03-.23.04-.18.02-.42 0-.54-.02h-.03l-.7-.23c-.46-.15-.95-.32-1.36-.49-.03-.01-.13-.06-.14-.06a.138.138 0 0 0-.04-.03.59.59 0 0 1-.09-.18c-.07-.15-.1-.38-.11-.56v-.05c-.01-.06-.01-.13-.02-.19-.54-4.66-1.06-9.3-1.61-13.94-.05-.4-.09-.79-.15-1.18-.14-1.28-.3-2.56-.46-3.84l-.58-4.78-.04-.3v-.18a.77.77 0 0 1 .14-.34c.08-.12.19-.22.32-.32.01-.01.03-.02.04-.03.05-.03.1-.06.13-.07l.28-.12 2.21-.96 4.38-1.9c.17-.05.34-.09.5-.11.14-.03.38-.01.42 0l1.14.38 1.14.38c.18.06.36.25.47.45.03.05.05.09.07.14v-.06l.01.09c0-.01 0-.01-.01-.02l.07 1.28.04.67.01.34c0 .02 0 .03.01.05l-.35.16-.05.02-.03.02-3.97 2.85-1.99 1.42-.5.36-.12.09c-.12.08-.14.12-.19.18-.1.11-.18.24-.24.38-.01.02-.02.04-.02.06l-.03-.25c-.24-1.74-.44-3.03-.53-3.53v-.01l-.03-.22s.01.11.02.33c0 .08.01.17.02.27.04.65.12 1.77.24 3.19.1 1.14.23 2.46.36 3.88.15 1.42.3 2.93.46 4.44.18 1.51.36 3.02.53 4.43.17 1.41.36 2.73.51 3.86.11.83.22 1.56.31 2.15v.01c.01.09.02.17.04.24v.06c.1.61.17 1.04.2 1.21-.02-.36-.11-1.75-.27-3.7-.11-1.14-.21-2.46-.36-3.88-.15-1.41-.3-2.93-.46-4.44l-.53-4.43c-.09-.7-.18-1.37-.27-2.02l2.1 4.31 2.19 4.36 2.35 4.65.94 1.87.45.88-5.04 2.51zm13.54 2.85c-.23.22-.48.48-.68.63l-.11.08c-.02.01-.04.03-.06.04-.17.12-.35.22-.52.29l-.03.01-.13.03c-.34.07-.67.14-1.02.2-.37.06-.83.14-1.1.12-.29-.01-.57-.19-.65-.37l-.3-.59-.25-.5-2.18-4.38-1.19-2.4-1.03-2.07-2.12-4.28-4.34-8.73-.13-.27c-.01-.04-.04-.13-.05-.19a.566.566 0 0 1 .04-.34c.02-.05.05-.1.08-.14l.04-.04.11-.08.49-.36 1.97-1.44 3.88-2.84.02-.02 1.53-.71.77-.36h.01c.13-.06.27-.13.4-.19.1-.04.18-.08.24-.08l.01-.01h.02c.15-.02.28.04.42.18h.01c.04.04.07.08.1.12l.07.14.2.39.79 1.52 1.58 3.05.79 1.53.4.76.19.38c.07.1.09.22.2.28l-4.08 3.01-.04.03-.04.04-.75.87-.76.87-.06.07-.02.08c-.11.34-.14.64-.08.99 0 .04.01.09.02.13.04.18.18.42.26.53l.22.35.88 1.44c.59.97 1.18 1.95 1.8 2.9 1.22 1.92 2.48 3.82 3.75 5.71.55.82 1.11 1.63 1.68 2.44l-1.25 1.18zm11.33 5.84c-.04.03-.07.07-.11.1-.24.22-.5.44-.75.66-.31.25-.56.46-.89.67-.27.17-.58.28-.8.24a.666.666 0 0 1-.31-.14c-.03-.03-.06-.06-.09-.1-.06-.07-.1-.14-.13-.19l-.02-.06-.03-.04c-2.7-3.65-5.32-7.36-7.84-11.13-1.26-1.89-2.49-3.79-3.7-5.71l-1.81-2.88-.84-1.33-.07-.12-.24-.37c-.08-.13-.09-.14-.12-.23-.05-.14-.02-.35.02-.51l-.08.09.09-.14c0 .01-.01.03-.01.05l.59-.69.78-.92.39-.29.68-.51 5.4-4.06c.15-.09.4-.14.52-.09.15.02.24.16.42.44l1.03 1.43 2.05 2.88 2.06 2.88 1.02 1.44.52.72.25.36c.07.09.13.2.26.25V53l-.17.31-.92 1.74-.47.88-.23.43c-.07.15-.17.28-.14.49l-.1-.04-1.08 2.21-.26.55c-.11.2-.19.43-.24.67-.04.25-.04.52.04.79.05.13.11.26.19.38.09.11.16.19.3.29l4.55 3.34c.42.02.91.31 1.27.81.06.08.11.16.15.24l1.83 1.34c-.96.98-1.95 1.94-2.96 2.86zm20.07-4.64l-.49 2.19-.97 4.36v.01l-.01.02c-.02.15-.05.3-.09.46v.01c-.03.15-.08.31-.12.46-.02.06-.04.12-.06.17-.08.24-.18.47-.3.67-.33.56-.72 1.12-1.12 1.65l-.02.03c-.21.26-.47.35-.83.11-.12-.08-.24-.16-.35-.24-.34-.23-.67-.46-1.01-.7l-2.74-1.95-5.46-3.92-10.89-7.89-.03-.02h-.01s-.07-.06-.1-.11a.507.507 0 0 1-.09-.16.836.836 0 0 1-.02-.36c-.01-.02 0-.04 0-.07.04-.15.09-.32.17-.48l.08-.16.18-.4 1.07-2.21.09-.19c.05-.07.09-.15.13-.23l.24-.43.47-.87.94-1.74.17-.31.77-1.43.47-.87c.03-.05.06-.11.1-.14l.01-.02c.11-.13.26-.22.37-.23.06-.02.14-.01.22.03.32.12.78.53 1.19.8l1.61 1.15 3.21 2.31 12.86 9.21.02.01.06.03c.04.03.17.13.23.22.07.1.11.21.14.34.03.12.03.26.02.4-.02.13-.06.31-.11.49z"/>
        <path class="st9" d="M75.41 66.31c-.69-1.06-1.5-2.29-2.36-3.61-.88-1.31-1.81-2.7-2.75-4.1-.95-1.38-1.91-2.77-2.8-4.07-.91-1.28-1.76-2.48-2.48-3.51-1.2-1.66-2.09-2.86-2.38-3.26.01.01.01.02.01.03.05.09.13.2.22.35.01.02.02.04.04.07.38.61 1.03 1.65 1.87 2.96.69 1.06 1.5 2.29 2.36 3.61.88 1.31 1.81 2.7 2.75 4.1.95 1.38 1.91 2.77 2.8 4.07.91 1.28 1.76 2.49 2.48 3.52 1.21 1.67 2.1 2.87 2.38 3.26.03.03.04.05.06.07a.678.678 0 0 0-.06-.09c-.26-.43-1.05-1.69-2.14-3.4zM54.69 40.18c.16-.09.35-.21.57-.34.63-.39 1.45-.94 2.24-1.52.8-.59 1.56-1.22 2.12-1.7.38-.33.65-.6.79-.74 0-.01.01-.02.02-.02h.01c.03-.04.05-.06.06-.07-.01-.01-.02 0-.04.01-.05.03-.14.09-.27.15 0 .01 0 .01-.01.01-.03.02-.07.04-.11.06-.17.1-.38.22-.62.37-.63.39-1.45.94-2.24 1.52-.8.59-1.56 1.22-2.12 1.7-.33.3-.59.55-.74.7 0 0-.01.01-.02.01-.06.06-.1.11-.12.13.05-.03.21-.12.45-.25.01-.01.02-.01.03-.02zm7.55 17.02c-.69-1.42-1.42-2.93-2.15-4.44-.75-1.5-1.51-3-2.21-4.41-.72-1.4-1.4-2.71-1.97-3.83-.71-1.34-1.29-2.41-1.64-3.05-.12-.21-.2-.38-.27-.49.19.44.8 1.8 1.66 3.67.53 1.14 1.16 2.47 1.83 3.89.69 1.42 1.42 2.93 2.15 4.44.75 1.5 1.51 3 2.21 4.41.72 1.4 1.4 2.7 1.97 3.82.5.95.93 1.75 1.27 2.37 0 .01.01.02.01.03.14.26.26.48.37.66v.02c.03.05.06.1.09.14 0 0 0 .01.01.01.01.05.04.08.06.12a.3.3 0 0 1 .06.11s0 .01.01.01v-.01c-.23-.5-.81-1.82-1.62-3.58-.54-1.14-1.17-2.47-1.84-3.89zm-9.39-16.24c-.2.04-.45.11-.68.23-.22.12-.43.28-.58.41l-.03.03-.21.21s.15.04.36.02c.2-.03.46-.1.69-.22.24-.12.44-.29.58-.44.05-.05.09-.11.12-.15l.01-.01c.06-.07.09-.12.09-.12s-.16-.01-.35.04zm-1.95-4.54c.71-.27 1.65-.65 2.57-1.08.91-.43 1.81-.9 2.47-1.28.58-.33.98-.59 1.07-.65-.05.01-.18.04-.36.11-.01 0-.03 0-.04.01h-.01c-.21.07-.47.16-.78.27-.71.27-1.65.65-2.56 1.09-.92.42-1.81.9-2.48 1.27-.31.17-.56.33-.74.45-.17.11-.28.18-.32.21.06-.02.22-.06.46-.14.19-.07.44-.15.72-.26zm-2.28.32h-.01c-.2-.13-.45-.28-.74-.38-.2-.07-.4-.12-.59-.15-.09-.02-.18-.03-.26-.04-.25-.02-.42 0-.42 0s.12.13.32.26c.2.14.48.3.78.4.3.11.61.17.85.19.11.01.2.02.27.02.09 0 .15-.01.15-.01s-.12-.13-.32-.27c-.01-.01-.02-.01-.03-.02zm-3.75 2.94c-.03-1.4-.07-2.51-.1-3.16v-.02c-.01-.29-.01-.48-.02-.56-.02.26-.1 1.69-.16 3.74-.03 1.13-.06 2.45-.1 3.87l-.06 4.43c.01 1.51.01 3.02.01 4.44 0 1.41.04 2.73.06 3.87.02 1.04.05 1.92.07 2.57 0 .06.01.12.01.18v.16c.02.49.04.79.04.85 0-.04.01-.18.02-.41v-.05c.04-.61.09-1.79.14-3.3.02-1.13.08-2.46.1-3.87.01-1.42.03-2.93.05-4.44 0-1.51 0-3.02-.01-4.43-.02-1.42-.04-2.74-.05-3.87zm-.71-4.36c-.03-.02-.06-.03-.1-.05-.22-.11-.5-.22-.8-.3-.34-.09-.69-.13-.96-.14h-.07c-.23 0-.39.02-.39.02s.15.12.39.25c.24.12.56.26.9.35.34.1.69.14.96.15.27.01.46-.03.46-.03s-.15-.12-.39-.25zm-1.77-5.19c.26-.21.44-.37.49-.42-.01.01-.03.01-.05.02-.04 0-.07.02-.1.04v.01c-.01 0-.02.01-.04.01-.01.01-.02.01-.03.02-.18.08-.46.21-.78.38-.61.31-1.39.76-2.15 1.25-.76.48-1.49 1.01-2.03 1.43-.2.15-.37.29-.51.41h-.01c-.18.15-.29.26-.33.3.04-.01.15-.06.31-.14.18-.08.41-.19.69-.34.6-.31 1.39-.75 2.15-1.24s1.49-1.02 2.03-1.43c.13-.11.25-.21.36-.3zm-5.24 15.64c-.04-1.48-.08-2.96-.11-4.35-.05-1.39-.1-2.69-.14-3.8-.06-1.43-.13-2.55-.17-3.17v-.02l-.03-.51s-.02.37-.03 1.02c-.01.1-.01.19-.01.26-.01.63-.03 1.46-.04 2.43 0 1.11-.01 2.41-.01 3.79.01 1.39.02 2.87.04 4.36.03 1.48.07 2.96.1 4.35.03 1.38.1 2.68.14 3.79.05 1.07.1 1.97.13 2.61v.02h.01v.05c.02.49.05.82.05.95.01.02.01.04.01.06.01-.15.06-1.59.08-3.7 0-1.11.03-2.4.02-3.79-.02-1.39-.03-2.87-.04-4.35zm-1.19-12.39c-.25-.1-.59-.21-.94-.26-.27-.05-.54-.06-.77-.06-.07 0-.14 0-.2.01-.27.01-.46.06-.46.06s.16.11.41.21c.25.1.59.21.94.27.34.06.7.07.97.05.27-.02.46-.07.46-.07s-.11-.07-.3-.16a.974.974 0 0 1-.11-.05zm-3.51-5.12c-.39.35-.89.82-1.35 1.34-.47.51-.89 1.06-1.19 1.48-.09.13-.18.26-.24.36-.12.18-.2.32-.22.36.05-.03.21-.15.44-.33.01-.01.02-.02.03-.04.06-.04.13-.1.2-.16.39-.35.89-.82 1.35-1.34.46-.51.89-1.05 1.19-1.48 0 0 .01-.01.02-.04.18-.24.3-.44.37-.56.01 0 .01-.01.01-.01 0-.01.01-.01.01-.02.03-.04.04-.07.05-.09-.02.02-.08.05-.16.12-.12.09-.3.23-.51.41zm-3.18 7.89c-.05-1.33-.1-2.39-.13-2.98l-.03-.57s-.08 1.42-.12 3.55c-.02 1.07-.04 2.31-.06 3.64 0 1.33-.01 2.75-.01 4.17l.06 4.17c.01 1.33.07 2.57.1 3.63.04.93.07 1.72.1 2.33v.01c.01.25.02.47.03.65v.06c.01.23.02.38.03.45.01-.07.01-.21.02-.4v-.07c.03-.59.07-1.66.1-3.03.01-1.06.05-2.31.05-3.64.01-1.33.01-2.75.01-4.17l-.06-4.16c-.03-1.33-.07-2.58-.09-3.64zm-.67-4.08l-.1-.03a5.307 5.307 0 0 0-2.14-.14c-.09.01-.18.03-.25.04-.15.04-.24.07-.24.07s.19.09.48.17a5.207 5.207 0 0 0 2.13.14c.29-.04.49-.11.49-.11s-.15-.08-.37-.14zm-3.88-5.22c-.12.09-.27.23-.45.4-.38.38-.88.89-1.33 1.45-.46.55-.87 1.13-1.16 1.58-.12.18-.22.34-.29.47-.09.16-.14.26-.16.3.06-.05.28-.22.57-.5.02-.02.04-.05.06-.06l.03-.03c.39-.38.88-.89 1.33-1.45.46-.55.87-1.13 1.17-1.58l.02-.04c.02-.03.04-.07.07-.11v-.01c.04-.06.08-.12.11-.18.03-.05.06-.1.1-.15.02-.04.05-.08.07-.12.04-.08.07-.13.08-.16-.03.02-.1.08-.21.17 0 0 0 .01-.01.02zM22.14 47.7c-.04-1.4-.1-2.89-.15-4.38-.07-1.5-.14-2.99-.21-4.39-.09-1.39-.17-2.7-.24-3.82-.1-1.48-.19-2.63-.25-3.24v-.03c-.02-.12-.03-.21-.04-.27 0 .47-.02 1.78.02 3.55.02 1.12.05 2.43.08 3.83.05 1.4.1 2.89.15 4.39.07 1.49.14 2.98.21 4.38.07 1.4.17 2.7.24 3.82.07 1.04.14 1.92.19 2.56.02.2.03.36.04.5v.02c.03.42.06.65.06.65s0-.23.01-.64v-.03c0-.65 0-1.73-.02-3.07-.03-1.12-.04-2.43-.09-3.83zm-1.72-16.55c-.3-.04-.7-.07-1.1-.04-.39.02-.79.09-1.08.17-.05.02-.11.03-.15.05-.21.06-.34.12-.34.12s.21.07.51.11c.3.04.7.07 1.09.04.4-.02.79-.1 1.08-.17.3-.08.49-.17.49-.17s-.11-.04-.3-.08c-.06-.01-.12-.02-.2-.03zm-5.44 24.22v-.02c-.01-.55-.05-1.74-.12-3.31-.07-1.09-.11-2.37-.21-3.74-.09-1.36-.19-2.82-.28-4.28-.12-1.45-.24-2.91-.36-4.27-.13-1.37-.25-2.64-.35-3.73-.14-1.41-.27-2.52-.35-3.12-.03-.25-.05-.42-.06-.48.01.22.04 1.61.13 3.62.06 1.1.13 2.37.2 3.74.09 1.37.19 2.82.29 4.28.12 1.46.24 2.91.35 4.28.11 1.36.25 2.63.36 3.72.16 1.56.3 2.74.37 3.29v.02c0 .02 0 .04.01.05v.01c-.01.01-.01.01 0 .02.02.11.02.19.03.22 0-.04 0-.12-.01-.24v-.06zm1.88-27.4c.2-.3.33-.54.39-.66v-.01c.01-.01.01-.02.01-.02.01-.02.02-.03.02-.04-.06.05-.32.26-.64.57-.38.37-.85.88-1.29 1.42-.43.54-.83 1.11-1.11 1.56-.09.14-.16.27-.22.38l-.01.01c-.1.18-.16.3-.18.35.07-.05.32-.26.63-.57.37-.37.85-.87 1.28-1.42.44-.53.83-1.11 1.11-1.55 0 0 0-.01.01-.02zm-4.36 3.94a5.37 5.37 0 0 0-1.13.01c-.38.04-.76.12-1.05.2-.02.01-.04.01-.06.02-.08.03-.16.05-.22.08-.17.07-.27.12-.27.12s.16.04.41.06c.04.01.07.02.11.02.31.03.72.04 1.13 0 .41-.04.81-.14 1.11-.23.3-.09.49-.19.49-.19l-.12-.03a4.5 4.5 0 0 0-.4-.06zm-2.64-3.62l.03-.03v-.01c0-.01.01-.01.02-.02.01-.04.02-.05.02-.05s-.02.02-.06.04l-.01.01-.03.03c-.13.11-.38.32-.69.62-.46.44-1.06 1.04-1.61 1.68-.56.63-1.07 1.3-1.44 1.82-.09.12-.16.23-.24.33 0 .01 0 .02-.01.02-.22.33-.34.54-.34.54l.24-.19.01-.01c.14-.13.33-.3.55-.51.46-.44 1.05-1.04 1.6-1.67.56-.64 1.08-1.31 1.45-1.83.25-.34.43-.63.51-.77zM7.37 50.2l-.44-4.44c-.18-1.51-.35-3.01-.51-4.43-.18-1.41-.35-2.73-.49-3.86-.16-1.18-.3-2.15-.39-2.81-.1-.61-.15-.95-.15-.95s.08 1.52.26 3.79c.1 1.14.22 2.46.34 3.88l.44 4.44c.17 1.5.35 3.01.51 4.43.18 1.41.34 2.73.49 3.86.08.58.15 1.11.22 1.58 0 .04.01.07.01.11 0 .01.01.01 0 .02.12.82.22 1.44.27 1.77.01.06.02.13.03.21.01.05.01.07.01.07v-.07c-.02-.32-.1-1.74-.26-3.72-.1-1.14-.22-2.46-.34-3.88zM4.35 33.38c-.27-.03-.58-.03-.89 0-.4.03-.79.12-1.08.21-.03.01-.05.01-.07.02-.24.08-.4.16-.4.16s.2.06.5.09c.3.04.7.05 1.09.02.39-.03.78-.12 1.07-.21.29-.08.48-.18.48-.18s-.2-.06-.5-.1c-.06-.01-.13-.01-.2-.01z"/>
    </g>
</svg>