<svg id="Layer_5" xmlns="http://www.w3.org/2000/svg" viewBox="0 0 100 100" width="100" height="100">
    <style>
        .st0{fill:#e086ea;stroke:#e086ea;stroke-width:.04}.st0,.st1{stroke-miterlimit:10}.st1{fill:#efaff9;stroke:#efaff9}.st1,.st2{stroke-width:.04}.st2{fill:#c374ce;stroke:#c374ce}.st2,.st3{stroke-miterlimit:10}.st3{fill:#dd3900;stroke:#dd3900}.st3,.st4{stroke-width:.04}.st4{fill:#92549b;stroke:#92549b}.st4,.st5{stroke-miterlimit:10}.st5{fill:#6252c1;stroke:#6252c1}.st5,.st6{stroke-width:.04}.st6{fill:#c62b02;stroke:#c62b02}.st6,.st7{stroke-miterlimit:10}.st7{fill:#f96e4e;stroke:#f96e4e}.st7,.st8{stroke-width:.04}.st8{fill:#7f74e2;stroke:#7f74e2}.st8,.st9{stroke-miterlimit:10}.st9{fill:#504eaf;stroke:#504eaf}.st9,.st10{stroke-width:.04}.st10{fill:#932305;stroke:#932305}.st10,.st11{stroke-miterlimit:10}.st11{fill:#bbef9a;stroke:#bbef9a}.st11,.st12{stroke-width:.04}.st12{fill:#393277;stroke:#393277}.st12,.st13{stroke-miterlimit:10}.st13{fill:#f9e8a0;stroke:#f9e8a0}.st13,.st14{stroke-width:.04}.st14{fill:#e2be27;stroke:#e2be27}.st14,.st15{stroke-miterlimit:10}.st15{fill:#13a853;stroke:#13a853}.st15,.st16{stroke-width:.04}.st16{fill:#a4d385;stroke:#a4d385}.st16,.st17{stroke-miterlimit:10}.st17{fill:#d6f4c3;stroke:#d6f4c3}.st17,.st18{stroke-width:.04}.st18{fill:#26d16b;stroke:#26d16b}.st18,.st19{stroke-miterlimit:10}.st19{fill:#aa8f1b;stroke:#aa8f1b}.st19,.st20{stroke-width:.04}.st20{fill:#139949;stroke:#139949}.st20,.st21{stroke-miterlimit:10}.st21{fill:#5c8e3c;stroke:#5c8e3c}.st21,.st22{stroke-width:.04}.st22{fill:#3b75ea;stroke:#3b75ea}.st22,.st23{stroke-miterlimit:10}.st23{fill:#fcd329;stroke:#fcd329}.st23,.st24{stroke-width:.04}.st24{fill:#ffaaa4;stroke:#ffaaa4}.st24,.st25{stroke-miterlimit:10}.st25{fill:#0a7736;stroke:#0a7736}.st25,.st26{stroke-width:.04}.st26{fill:#f7bcbc;stroke:#f7bcbc}.st26,.st27{stroke-miterlimit:10}.st27{fill:#e59593;stroke:#e59593}.st27,.st28{stroke-width:.04}.st28{fill:#3876c1;stroke:#3876c1}.st28,.st29{stroke-miterlimit:10}.st29{fill:#6ea4f9;stroke:#6ea4f9}.st29,.st30{stroke-width:.04}.st30{fill:#ba1cc6;stroke:#ba1cc6}.st30,.st31{stroke-miterlimit:10}.st31{fill:#2a57a0;stroke:#2a57a0}.st31,.st32{stroke-width:.04}.st32{fill:#ad6361;stroke:#ad6361}.st32,.st33{stroke-miterlimit:10}.st33{fill:#e66ff7;stroke:#e66ff7}.st33,.st34{stroke-width:.04}.st34{fill:#ff9a15;stroke:#ff9a15}.st34,.st35{stroke-miterlimit:10}.st35{fill:#a31bb2;stroke:#a31bb2}.st35,.st36{stroke-width:.04}.st36{fill:#4887d3;stroke:#4887d3}.st36,.st37{stroke-miterlimit:10}.st37{fill:#e28413;stroke:#e28413}.st37,.st38{stroke-width:.04}.st38{fill:#7b1287;stroke:#7b1287}.st38,.st39{stroke-miterlimit:10}.st39{fill:#9cc6f7;stroke:#9cc6f7;stroke-width:.02}.st40{fill:#2f5289;stroke:#2f5289}.st40,.st41{stroke-width:.04;stroke-miterlimit:10}.st41{fill:#f9b869;stroke:#f9b869}.st42{fill:#619cf2;stroke:#619cf2}.st42,.st43{stroke-width:.04;stroke-miterlimit:10}.st43{fill:#aa6511;stroke:#aa6511}
    </style>
    <g id="XMLID_1_">
        <path class="st0" d="M97.922 60.62c.01-.322 0-.614-.043-.862-.09-.474.04-.755 0-.744-.03-.054-.08-.28-.19-.68a4.058 4.058 0 0 0-.26-.818 6.937 6.937 0 0 0-.44-1.078 10.253 10.253 0 0 0-1.73-2.577 10.178 10.178 0 0 0-3.18-2.37 8.41 8.41 0 0 0-1.856-.66 8.138 8.138 0 0 0-1.25-.2 9.516 9.516 0 0 0-1.36-.06 8.284 8.284 0 0 0-1.36.184c-.355.076-.71.173-1.067.29a9.1 9.1 0 0 0-2.404 1.25c-1.467 1.036-2.654 2.59-3.354 4.38-.39.883-.584 1.843-.714 2.802-.13.99-.076 1.92.053 2.977l.097.518c.01 0 .02-.01.03-.01a16.585 16.585 0 0 1-.117-.69c-.17-1.51-.053-3.137.486-4.56.505-1.445 1.4-2.75 2.564-3.634a6.214 6.214 0 0 1 3.935-1.327.86.86 0 0 1 .16.01c.41.01.8.075 1.175.16a7.02 7.02 0 0 1 2.782 1.403 8.5 8.5 0 0 1 1.09 1.09c.215.246.398.505.57.753.518.79.873 1.544 1.09 2.18s.333 1.154.387 1.52l.096.54-.054.01c.022 0 .097.183.108.54a8.95 8.95 0 0 1 0 1.573c-.03.67-.18 1.49-.482 2.384a8.44 8.44 0 0 1-1.56 2.74s2.49 1.37 5.81-2.33c.076-.18.15-.365.226-.54.453-1.11.636-2.153.712-3.005a6.84 6.84 0 0 0 .033-1.144zm-3.677 3.68s1.456-6.027-2.05-9.564c.325.172 5.382 3.202 2.05 9.564z"/>
        <path class="st1" d="M92.196 54.733c3.504 3.537 2.05 9.564 2.05 9.564 3.33-6.36-1.726-9.39-2.05-9.564z"/>
        <path class="st2" d="M91.14 67.64c.766-.884 1.25-1.855 1.563-2.74.302-.894.453-1.713.485-2.382a9.39 9.39 0 0 0 0-1.574c-.01-.356-.086-.54-.108-.54l.054-.01-.097-.54c-.054-.366-.173-.883-.388-1.52s-.58-1.39-1.09-2.177a8.712 8.712 0 0 0-.57-.755 8.68 8.68 0 0 0-1.09-1.09 7.02 7.02 0 0 0-2.79-1.402 5.975 5.975 0 0 0-1.176-.16c-.054-.012-.108-.012-.16-.012a6.228 6.228 0 0 0-3.937 1.326c-1.164.884-2.06 2.19-2.566 3.634-.54 1.423-.66 3.05-.486 4.56.034.227.078.465.12.69a16.334 16.334 0 0 0 4.348-2.06c.074-.053.14-.096.214-.16l.13-.26c.215-.41.55-.766.95-.98.14-.087.29-.152.44-.184a2.02 2.02 0 0 1 .83-.075c.173.02.323.06.464.11.237.085.44.204.615.355.495.42.71.94.81 1.305.01.043.02.076.03.108.076.387.065.614.065.614l-.097.01s.064.01.085.043c.01.024 0 .056.01.11 0 .077-.01.27-.042.454-.022.096-.043.204-.075.322-.01 0-.01 0 0 .01a2.65 2.65 0 0 1-.71 1.112 2.14 2.14 0 0 1-1.047.525c-.098.01-.184.022-.314.032-1.37.937-2.933 1.67-4.55 2.23-.16.055-.323.12-.496.174-.03.01-.064.024-.107.034.216.346.464.68.733.98 1.283 1.48 2.987 2.568 4.777 3.01.884.238 1.81.346 2.663.29.4 0 .874-.084 1.327-.15.376-.075.82-.182 1.196-.3 1.574-.55 2.922-1.413 3.914-2.48a10.543 10.543 0 0 0 1.876-2.826c-3.32 3.7-5.81 2.33-5.81 2.33z"/>
        <path d="M85.91 60.038a.37.37 0 0 0-.108-.022v-.01h.01c.034 0 .077.01.098.032z"/>
        <path class="st3" d="M85.48 41.2a4.79 4.79 0 0 0-.11-.85 7.97 7.97 0 0 0-.236-1.133 10.14 10.14 0 0 0-1.24-2.847 10.275 10.275 0 0 0-2.696-2.91c-1.143-.864-2.674-1.478-4.227-1.715a9.024 9.024 0 0 0-5.05.82c-1.64.765-3.07 2.07-4.094 3.697a10.29 10.29 0 0 0-1.024 2.103 7.28 7.28 0 0 0-.183.54c-.054.172-.108.344-.14.527-.16.625-.26 1.272-.3 1.952-.01.14-.024.28-.034.43 0 .217 0 .432.01.648.02.776.11 1.553.29 2.307.27.96.603 1.89 1.11 2.73l.01.02c3.376 3.31 6.363 1.995 6.837 1.758-.84-.873-1.456-1.995-1.833-3.17a9.99 9.99 0 0 1-.464-2.933 7.202 7.202 0 0 1 .02-1.09c0-.118.013-.236.024-.355.065-.54.162-1.08.302-1.608a9.813 9.813 0 0 1 1.024-2.567c.715-1.27 1.728-2.37 2.968-3.05 1.23-.68 2.72-.85 3.95-.473 1.273.368 2.233 1.198 2.923 2.07.69.885 1.1 1.834 1.36 2.697s.388 1.64.42 2.275c.044.645.033 1.152.01 1.5-.03.342-.04.525-.04.525H85c.03 0 .042.183-.023.518-.01.106-.032.224-.054.365.076.042.163.11.238.172a6.01 6.01 0 0 0 .14-.67 7.37 7.37 0 0 0 .11-.85c0-.486.17-.745.13-.745a8.694 8.694 0 0 1-.05-.703zm-14.01 5.76c-4.227-5.673.12-9.436.507-9.748-2.794 3.882-.68 9.327-.508 9.747z"/>
        <path class="st4" d="M98.946 60.556a8.44 8.44 0 0 0-.086-.927c-.043-.49-.237-.72-.194-.73v-.02s-.054-.26-.15-.758a7.364 7.364 0 0 0-.227-.896 7.832 7.832 0 0 0-.43-1.186 11.543 11.543 0 0 0-1.737-2.933 11.17 11.17 0 0 0-3.43-2.844 9.506 9.506 0 0 0-3.19-1.047 7.296 7.296 0 0 0-1.306-.12 7.9 7.9 0 0 0-.72 0c-.067 0-.12 0-.185.01h-.043a9.73 9.73 0 0 0-.777.096h-.01c-.334.053-.68.13-1.014.215a7.752 7.752 0 0 0-1.08.337 9.29 9.29 0 0 0-1.33.624 7.413 7.413 0 0 0-1.12.732c-.41.313-.81.658-1.174 1.024l-.01.01a11.212 11.212 0 0 0-2.513 4.045c-.388 1.015-.56 2.093-.658 3.17-.087 1.07.03 2.22.204 3.203.042.216.096.43.16.647.323-.073.636-.16.938-.26-.03-.17-.064-.34-.096-.514-.13-1.058-.186-1.985-.057-2.977.13-.96.326-1.92.715-2.804.7-1.79 1.886-3.342 3.352-4.377a9.135 9.135 0 0 1 2.403-1.25 8.89 8.89 0 0 1 1.067-.29 8.177 8.177 0 0 1 1.36-.184c.453-.01.906.01 1.36.065.42.035.84.11 1.25.208a8.36 8.36 0 0 1 1.856.655 10.178 10.178 0 0 1 3.184 2.372A10.2 10.2 0 0 1 97 56.432c.194.388.345.755.442 1.078.128.317.215.586.258.82.108.4.162.628.183.68.045-.01-.084.27 0 .747.045.248.056.54.045.863.022.322.01.7-.032 1.142a10.35 10.35 0 0 1-.712 3.01c-.075.17-.15.357-.225.54a10.52 10.52 0 0 1-1.88 2.825c-.997 1.068-2.34 1.93-3.92 2.48-.376.12-.82.226-1.196.302-.453.06-.927.15-1.326.15-.85.05-1.778-.06-2.66-.29-1.79-.448-3.496-1.53-4.78-3.01a7.175 7.175 0 0 1-.73-.98c-.27.08-.55.17-.83.242.29.442.616.863.96 1.262 1.37 1.595 3.17 2.802 5.11 3.43.97.3 1.954.483 2.98.483.53.024.97-.04 1.433-.084.518-.077.96-.184 1.423-.314A9.79 9.79 0 0 0 96.02 69a11.184 11.184 0 0 0 2.932-7.17c.03-.474.03-.895-.004-1.27z"/>
        <path class="st4" d="M87.743 61.117a1.032 1.032 0 0 1-.032-.108 2.55 2.55 0 0 0-.8-1.31 1.91 1.91 0 0 0-.614-.36 1.956 1.956 0 0 0-.464-.12 2.038 2.038 0 0 0-.83.075 1.42 1.42 0 0 0-.442.183c-.398.216-.732.57-.948.98l-.13.26c.27-.194.53-.4.765-.604a2.403 2.403 0 0 1 1.563-.12h.01c.032 0 .075.012.097.033.11.02.163.042.163.042.14.04.27.117.366.192.182.14.312.29.41.453.14.192.215.386.258.55.024.084.034.15.045.214v.01c.01.042.02.075.02.11v.01c.01.073.01.12.01.12l.075-.014c-.024.01-.056.022-.067.032-.022.03-.01.064-.022.107 0 .043 0 .097-.01.162-.012.452-.12 1.13-.583 1.627-.013 0-.024.01-.024.01-.304.237-.617.464-.94.68.13-.01.215-.023.312-.033a2.14 2.14 0 0 0 1.047-.527 2.65 2.65 0 0 0 .71-1.11c-.01-.013-.01-.013 0-.013.03-.12.05-.226.072-.323.032-.183.043-.377.043-.453-.01-.054 0-.086-.01-.11-.025-.03-.09-.04-.09-.04l.097-.01s.01-.23-.066-.618z"/>
        <path class="st5" d="M75.17 64.9v-.085a6.688 6.688 0 0 0-.118-1.067v-.022c-.13-.873-.388-1.93-.927-3.03a10.56 10.56 0 0 0-2.394-3.246c-1.06-1.003-2.54-1.8-4.08-2.22a9.198 9.198 0 0 0-5.22.258c-1.71.57-3.3 1.714-4.514 3.224a6.884 6.884 0 0 1 1.758-1.208c1.295-.636 2.794-.744 4.044-.377 1.305.367 2.33 1.164 3.05 2.05.745.872 1.198 1.832 1.49 2.705.215.69.355 1.337.43 1.898l.03.442c.024.237.034.453.024.647.023.35.01.65-.01.88-.032.35-.043.54-.043.54h-.058c.02 0 .042.19-.033.54 0 .02 0 .04-.01.06a7.08 7.08 0 0 1-.237 1.07c-.03.12-.064.234-.11.353-.18.635-.504 1.38-.98 2.166a8.44 8.44 0 0 1-.95 1.283c.53.387 3.81 2.587 7-.583.01 0 .01-.01.01-.01.466-.7.8-1.39 1.037-2.005.172-.41.29-.774.377-1.1.023-.052.033-.106.044-.16.08-.26.14-.485.165-.69a1.76 1.76 0 0 1 .098-.42c.056-.163.12-.26.12-.29.01-.013.01-.024 0-.024 0-.073.01-.32.03-.71a5.87 5.87 0 0 0-.01-.87zm-6.145 5.306s2.803-5.542.183-9.79c.173.15 4.572 4.302-.183 9.79z"/>
        <path class="st6" d="M85.08 41.083c-.032-.636-.162-1.413-.42-2.275s-.67-1.81-1.36-2.696c-.69-.873-1.65-1.704-2.922-2.07-1.23-.377-2.717-.205-3.946.474-1.24.68-2.254 1.78-2.965 3.05a9.905 9.905 0 0 0-1.025 2.567 11.78 11.78 0 0 0-.302 1.607c-.01.12-.022.237-.022.356a7.473 7.473 0 0 0-.022 1.09 9.99 9.99 0 0 0 .464 2.932c.377 1.175.992 2.297 1.833 3.17-.474.237-3.46 1.553-6.836-1.758 1.003 1.682 2.48 3.04 4.15 3.806.82.388 1.715.658 2.556.755.4.09.884.08 1.337.1.377 0 .84-.03 1.24-.07 1.64-.26 3.127-.872 4.292-1.735a9.945 9.945 0 0 0 2.027-2.006.4.4 0 0 0-.08-.065 3.26 3.26 0 0 0-.29-.27c-.95-.886-2.05-1.66-3.29-2.33h-.01a.534.534 0 0 1-.14.02c-.12.01-.21.01-.35 0a2.385 2.385 0 0 1-.29-.053 1.983 1.983 0 0 1-.607-.313 2.15 2.15 0 0 1-.518-.56 2.77 2.77 0 0 1-.25-.508 2.728 2.728 0 0 1-.172-.81 3.9 3.9 0 0 1 0-.508c.043-.376.183-.883.42-1.23.055-.084.11-.16.163-.235.216-.28.474-.518.787-.67a.984.984 0 0 1 .25-.1 1.7 1.7 0 0 1 1.014-.03 1.936 1.936 0 0 1 1.186.95 22.325 22.325 0 0 1 3.594 2.08h.01c.11.074.218.16.325.246.022-.14.043-.258.054-.366.064-.336.053-.52.02-.52h.055s.01-.183.04-.528c.023-.342.034-.848-.01-1.495z"/>
        <path class="st7" d="M71.98 37.212c-2.794 3.882-.68 9.327-.508 9.747-4.226-5.68.12-9.44.507-9.75z"/>
        <path class="st8" d="M69.025 70.206s2.803-5.542.183-9.79c.173.15 4.572 4.302-.183 9.79z"/>
        <path class="st9" d="M66.307 71.77c.377-.42.69-.852.95-1.283.473-.787.797-1.53.98-2.167.043-.12.075-.237.108-.356.13-.43.205-.81.237-1.068.01-.022.01-.043.01-.065.077-.34.055-.53.033-.53h.054s.01-.182.04-.54c.02-.224.03-.526.01-.882.01-.194 0-.41-.02-.647-.01-.14-.03-.29-.04-.442a11.78 11.78 0 0 0-.43-1.897c-.29-.873-.745-1.833-1.49-2.706-.72-.883-1.746-1.68-3.05-2.05-1.25-.365-2.75-.257-4.043.38a6.92 6.92 0 0 0-1.76 1.207l-.032.03c-.01.01-.01.01-.01.02-.624.758-1.1 1.63-1.51 2.537-.064.14-.12.28-.172.43.053.013.096.013.14.024 1.023.183 2.037.377 3.04.56.302.055.604.11.906.163a1.92 1.92 0 0 1 1.24-.12c.386.1.677.28.893.52a.335.335 0 0 1 .087.086c.335.39.497.79.56 1.122.034.13.045.24.056.35.03.376 0 .592 0 .592h-.087s.04.023.063.044c.022.033 0 .066 0 .11 0 .076-.032.26-.075.43-.056.173-.12.378-.24.594-.13.248-.322.518-.614.755a1.45 1.45 0 0 1-.305.194c-.216.13-.474.215-.755.247a1.4 1.4 0 0 1-.623-.064 1.722 1.722 0 0 1-.615-.29 1.73 1.73 0 0 1-.335-.306 313.25 313.25 0 0 1-3.417-.67c-.224-.04-.44-.084-.67-.127-.01.27 0 .55.025.82.024.215.045.42.077.624.022.195.054.39.097.583.042.195.085.4.14.594.042.16.085.32.14.474v.023a7.2 7.2 0 0 0 .4 1.057 10.007 10.007 0 0 0 2.133 3.083c0 .01 0 .01.01.01a8.69 8.69 0 0 0 1.63 1.263c.787.482 1.66.86 2.5 1.054.4.13.886.172 1.34.247.39.034.853.067 1.263.056 1.693-.066 3.267-.52 4.55-1.263 1.294-.743 2.286-1.713 3.04-2.662a9.68 9.68 0 0 0 .53-.71c-3.193 3.17-6.47.97-7 .583z"/>
        <path class="st10" d="M86.33 41.945v-.022s0-.27-.01-.766c.01-.248-.022-.56-.065-.927a8.713 8.713 0 0 0-.194-1.24 11.407 11.407 0 0 0-1.18-3.192 11.314 11.314 0 0 0-2.843-3.43 10.09 10.09 0 0 0-4.93-2.08c-1.82-.237-3.98.022-5.82.98-1.866.928-3.484 2.46-4.56 4.325-.51.84-.854 1.758-1.134 2.696-.032.09-.054.2-.086.3a9.19 9.19 0 0 0-.164.76c-.078.43-.13.87-.164 1.303-.023.226-.033.453-.044.67-.01.16-.01.322-.01.484.01.194.024.4.045.593.14 1.95.7 3.86 1.693 5.51 1.058 1.82 2.61 3.33 4.41 4.29.907.486 1.834.84 2.848 1.015.508.13.96.14 1.414.183.53.01.98 0 1.47-.052a9.964 9.964 0 0 0 3.75-1.196l.01-.01c.368-.367.767-.712 1.176-1.024a7.61 7.61 0 0 1 1.12-.734c.357-.345.67-.712.96-1.078a9.545 9.545 0 0 0-.614-.7l-.238-.24a9.945 9.945 0 0 1-2.027 2.005c-1.164.862-2.652 1.476-4.29 1.735-.4.043-.86.076-1.24.076-.45-.02-.937-.01-1.336-.096a8.382 8.382 0 0 1-2.556-.756c-1.67-.768-3.15-2.126-4.15-3.808l-.013-.02c-.505-.84-.84-1.78-1.11-2.74-.182-.755-.27-1.53-.29-2.307-.01-.216-.01-.43-.01-.647l.03-.43c.044-.68.14-1.328.303-1.954.033-.183.087-.356.14-.528a9.24 9.24 0 0 1 .184-.54 10.34 10.34 0 0 1 1.026-2.103c1.025-1.627 2.46-2.932 4.098-3.697a9.024 9.024 0 0 1 5.058-.82c1.554.237 3.085.852 4.228 1.714a10.318 10.318 0 0 1 2.696 2.91 10.14 10.14 0 0 1 1.24 2.85c.12.42.194.795.237 1.13a4.8 4.8 0 0 1 .11.85c.02.39.04.626.052.7.043 0-.13.26-.13.746a7.16 7.16 0 0 1-.107.852 6.51 6.51 0 0 1-.14.67c.313.234.625.493.917.763 0-.02.01-.04.01-.063a8.64 8.64 0 0 0 .227-1.25 6.72 6.72 0 0 0 .074-.93c.056-.477-.095-.747-.052-.747z"/>
        <path class="st10" d="M78.093 42.592a2.29 2.29 0 0 1 .183-.442.99.99 0 0 1 .248-.313c0-.01.01-.022.022-.032h.01c.012-.01.023-.022.033-.032.01-.032.03-.043.05-.054a.6.6 0 0 1 .08-.08c.3-.27.81-.58 1.39-.38.01 0 .01.01.022.01.29.13.57.25.85.39a1.927 1.927 0 0 0-1.185-.95 1.73 1.73 0 0 0-1.014.03 1.023 1.023 0 0 0-.248.097c-.315.15-.57.39-.79.67-.054.075-.11.15-.162.236-.238.346-.378.853-.42 1.23a3.9 3.9 0 0 0 0 .507c.01.27.074.54.17.81.065.183.15.345.248.507a2.114 2.114 0 0 0 1.123.874c.128.034.215.045.29.056.14.01.226.01.345 0 .053 0 .096-.01.14-.02a12.43 12.43 0 0 0-.67-.348c-.01.01-.01 0-.02-.01-.498-.324-.68-1.07-.746-1.457v-.055l-.01-.01c0-.03 0-.055-.01-.076-.01-.033-.01-.066-.01-.098a1.735 1.735 0 0 1-.024-.57c.024-.214.035-.333.09-.495z"/>
        <path class="st11" d="M61.844 38.03a.82.82 0 0 1 .022.163h.302a26.294 26.294 0 0 0-.15-.593 4.547 4.547 0 0 0-.25-.787 7.63 7.63 0 0 0-.43-1.035 9.733 9.733 0 0 0-1.66-2.48c-.767-.863-1.802-1.67-3.052-2.286-1.24-.615-2.793-.927-4.302-.884a8.705 8.705 0 0 0-4.647 1.65c-1.412 1.003-2.545 2.502-3.224 4.216-.29.658-.464 1.36-.593 2.07l-.097.636c-.022.15-.032.29-.043.43-.054.723-.022 1.414.065 2.19l.032.237c.054.28.108.56.183.852.15.63.345 1.28.615 1.87.42.85.895 1.68 1.53 2.39.195.215.39.42.594.614 1.29.712 3.11 1.132 5.05-.226-.84-.766-1.51-1.758-1.96-2.825a9.4 9.4 0 0 1-.55-1.693 9.457 9.457 0 0 1-.198-1.078 12.278 12.278 0 0 1-.098-1.543c0-.194.01-.388.02-.58.032-.357.065-.72.12-1.08.15-.905.4-1.81.775-2.63.603-1.337 1.51-2.523 2.684-3.32 1.154-.796 2.62-1.1 3.87-.84 1.316.24 2.352.96 3.117 1.77.778.82 1.285 1.724 1.63 2.554.33.83.536 1.595.634 2.23zM48.43 44.545c-4.227-5.672.12-9.435.507-9.747-2.793 3.88-.68 9.326-.507 9.747zm12.702-.27c-.13.29-.28.592-.453.894.16-.22.35-.47.53-.73 0-.01.01-.01.02-.02a8.16 8.16 0 0 0 .28-.64c.205-.507.356-.992.453-1.456-.076-.01-.15-.01-.227-.01-.108.57-.313 1.23-.615 1.95z"/>
        <path class="st12" d="M76.012 63.618v-.01a11.183 11.183 0 0 0-.83-3.376c-.507-1.24-1.294-2.6-2.502-3.785-1.197-1.208-2.782-2.178-4.744-2.674-1.822-.453-4.033-.43-6.006.323-1.995.733-3.806 2.103-5.11 3.86-.67.873-1.165 1.876-1.575 2.9a6.827 6.827 0 0 0-.226.67c.27.043.53.086.79.14.13.022.25.043.365.065.054-.15.11-.29.173-.43.41-.9.884-1.78 1.51-2.53 0-.01 0-.01.01-.02l.033-.03c1.218-1.51 2.803-2.652 4.518-3.223a9.198 9.198 0 0 1 5.22-.26c1.54.42 3.02 1.22 4.088 2.22a10.56 10.56 0 0 1 2.394 3.248c.54 1.1.8 2.157.928 3.03v.023c.076.386.11.742.12 1.065v.087c.02.347.03.64.01.875-.02.387-.03.635-.03.71.01 0 .01.01 0 .023 0 .03-.066.13-.12.29a1.763 1.763 0 0 0-.097.42 4.15 4.15 0 0 1-.16.69.883.883 0 0 1-.042.163 8.62 8.62 0 0 1-.38 1.1 10.4 10.4 0 0 1-1.034 2.007s0 .01-.01.01a10.93 10.93 0 0 1-.53.71c-.755.95-1.747 1.92-3.04 2.665-1.284.744-2.858 1.197-4.55 1.26-.41.01-.874-.023-1.263-.055-.45-.075-.936-.12-1.335-.248-.84-.195-1.713-.57-2.5-1.058a8.648 8.648 0 0 1-1.63-1.265c-.01 0-.01 0-.01-.01a10.007 10.007 0 0 1-2.135-3.085 7.31 7.31 0 0 1-.4-1.055v-.022c-.054-.15-.097-.312-.14-.473a3.86 3.86 0 0 1-.14-.594 5.606 5.606 0 0 1-.097-.582l-.034-.162a3.16 3.16 0 0 1-.04-.464 7.096 7.096 0 0 1-.046-.83 7.796 7.796 0 0 0-.495-.088 5.97 5.97 0 0 0-.43-.085 12.45 12.45 0 0 0 1.064 4.7c.872 1.963 2.263 3.667 3.98 4.842.86.59 1.756 1.054 2.76 1.36.505.17.96.244 1.42.34.53.06.993.094 1.478.105a9.954 9.954 0 0 0 5.188-1.422c1.447-.864 2.58-1.953 3.366-3.04a11.51 11.51 0 0 0 1.618-3.086c.172-.454.29-.874.367-1.25a6.96 6.96 0 0 0 .13-.52c.02-.15.044-.28.066-.41a1.68 1.68 0 0 0 .02-.69c0-.043 0-.065.012-.065v-.02s.02-.27.075-.786c0-.02 0-.03.01-.055a9.1 9.1 0 0 0 .034-.885v-.18a7.058 7.058 0 0 0-.068-1.08z"/>
        <path class="st12" d="M60.733 66.95c-.41-.075-.81-.14-1.208-.216.097.12.216.216.334.302.18.14.37.226.61.29.13.044.21.055.29.066.14.01.222.01.33 0 .28-.032.54-.12.754-.248a1.5 1.5 0 0 0 .302-.194 2.41 2.41 0 0 0 .614-.755 3 3 0 0 0 .238-.593 2.43 2.43 0 0 0 .075-.43c0-.044.02-.076 0-.11a.414.414 0 0 0-.066-.042h.086s.034-.216 0-.593a2.196 2.196 0 0 0-.052-.345 2.427 2.427 0 0 0-.56-1.12.335.335 0 0 0-.086-.087 1.76 1.76 0 0 0-.896-.518 1.913 1.913 0 0 0-1.24.12c.27.053.55.096.82.15h.014c.69.226 1.09.97 1.24 1.326h-.022c.1.205.14.4.164.55.042.29.02.464.02.464h.087s-.054.01-.086.022c-.01.02-.01.06-.02.1-.01.084-.033.17-.066.31-.01 0-.01.01-.01.02a2.29 2.29 0 0 1-.357.66h.01c-.212.278-.72.84-1.323.86z"/>
        <path d="M55.633 67.964c.043.194.086.4.14.593a3.86 3.86 0 0 1-.14-.593zm-.173-1.208c.022.216.043.42.075.625l-.032-.16c-.02-.15-.043-.3-.043-.46zm-.02-.82c-.012.27 0 .55.02.82a7.096 7.096 0 0 1-.042-.83c.01 0 .01.01.02.01z"/>
        <path class="st13" d="M52.797 17.566c.173-.42 2.286-5.855-.507-9.747.388.31 4.734 4.07.507 9.74z"/>
        <path class="st14" d="M49.454 20.37l.29-.292c.788-.798 1.306-1.704 1.65-2.523.346-.83.562-1.574.66-2.21v-.022c.064-.41.118-.766.14-1.057.01-.173.02-.313.02-.43.033-.335-.01-.52-.03-.52l.053-.01s-.01-.183-.022-.528c0-.075 0-.162-.01-.248-.012-.29-.055-.647-.12-1.078l-.032-.162c-.097-.636-.313-1.39-.658-2.22-.345-.83-.863-1.737-1.64-2.535-.775-.81-1.82-1.52-3.137-1.747-1.262-.248-2.717.076-3.87.884-1.165.798-2.06 1.995-2.643 3.332-.485 1.057-.755 2.232-.852 3.418a6.95 6.95 0 0 1 .507-.086 57.613 57.613 0 0 1 3.655-.485 2.47 2.47 0 0 1 .57-.51c.368-.235.864-.32 1.23-.25.453.078.776.28 1.014.53.34.346.52.71.62 1.036.04.13.06.26.08.367.054.366.043.58.043.58l-.087.01s.054.01.075.033c.01.034 0 .067.01.11 0 .076-.01.26-.04.43-.01.066-.033.14-.044.227a2.652 2.652 0 0 1-.602 1.13l-.054.052a1.95 1.95 0 0 1-1.003.53 1.502 1.502 0 0 1-.335.03c-.076 0-.163 0-.303-.03a1.843 1.843 0 0 1-.627-.25c-.043-.03-.086-.053-.13-.096a44.03 44.03 0 0 0-3.697.592 3.36 3.36 0 0 0-.464.097c.11.387.25.775.42 1.142.346.797.8 1.53 1.36 2.177a9.527 9.527 0 0 1-.67-.66c.195.28.4.55.626.81 1.23 1.42 2.867 2.465 4.592 2.9.852.213 1.736.32 2.555.27.388.01.84-.08 1.272-.14.366-.08.786-.175 1.164-.29 1.5-.53 2.804-1.36 3.764-2.4a9.597 9.597 0 0 0 1.585-2.284c-3.36 3.872-6.477 2.568-6.9 2.373z"/>
        <path class="st15" d="M51.6 61.537c-.01-.065-.022-.28-.054-.615 0-.032-.01-.065-.01-.108a10.16 10.16 0 0 0-.13-.884 7.54 7.54 0 0 0-.28-1.165 10.74 10.74 0 0 0-1.337-2.922 10.827 10.827 0 0 0-2.86-2.943c-1.21-.874-2.8-1.478-4.41-1.683a9.28 9.28 0 0 0-5.22.96c-1.49.733-2.82 1.92-3.81 3.386.67-.744 1.453-1.348 2.34-1.747 1.302-.636 2.81-.733 4.073-.367 1.305.36 2.34 1.14 3.084 2.02a8.098 8.098 0 0 1 1.51 2.714 8.94 8.94 0 0 1 .42 1.78c.033.193.055.387.066.56.01.194.024.367.024.53.024.42.01.754-.01 1.013-.03.356-.042.55-.042.55H44.9c.023 0 .044.173-.02.485 0 .02-.01.03-.01.052a9.104 9.104 0 0 1-.206 1.003c-.044.15-.098.325-.152.498-.183.636-.518 1.38-1.003 2.167-.3.484-.67.98-1.13 1.455.29.344 2.643 2.943 6.01 1.067a11.416 11.416 0 0 0 1.55-2.05c.462-.764.785-1.53 1-2.22a8.13 8.13 0 0 0 .217-.743c.032-.11.054-.205.065-.302.086-.31.13-.59.162-.85a7.6 7.6 0 0 0 .097-.884c0-.12 0-.215.023-.3.028-.313.125-.464.093-.464zm-6.027 4.852s2.6-5.64-.172-9.78c.37.32 4.62 4.23.18 9.78z"/>
        <path class="st16" d="M61.746 42.323h-.517c-1.19 0-2.4.022-3.58.054a1.843 1.843 0 0 1-1.1.366c-.08-.01-.17-.01-.31-.032a2.1 2.1 0 0 1-.627-.24c-.02-.01-.03-.02-.054-.03a2.32 2.32 0 0 1-.81-.96c-.01-.03-.03-.064-.04-.096a2.825 2.825 0 0 1-.25-1.21 3.02 3.02 0 0 1 .29-1.26c.12-.25.28-.486.487-.67a1.86 1.86 0 0 1 .386-.313 1.84 1.84 0 0 1 1.23-.26 1.9 1.9 0 0 1 1.015.53c.862 0 1.713-.012 2.565-.012.347 0 .69 0 1.05.01.12-.01.246 0 .375 0a.734.734 0 0 0-.02-.16 10.24 10.24 0 0 0-.636-2.233c-.345-.83-.852-1.735-1.628-2.554-.768-.81-1.8-1.53-3.118-1.767-1.25-.26-2.72.043-3.87.84-1.178.8-2.084 1.985-2.688 3.322-.377.82-.625 1.724-.776 2.63-.052.356-.084.722-.12 1.08-.01.192-.02.386-.02.58a11.732 11.732 0 0 0 .292 2.622 9.4 9.4 0 0 0 .55 1.693c.453 1.07 1.12 2.06 1.962 2.824-1.94 1.36-3.763.94-5.057.227 1.144 1.114 2.535 1.92 4 2.29.853.214 1.75.32 2.556.27.39.01.853-.077 1.284-.14a12.73 12.73 0 0 0 1.155-.29c1.51-.53 2.805-1.36 3.765-2.397a9.24 9.24 0 0 0 1.726-2.578c-.183.26-.377.508-.54.723a9.8 9.8 0 0 0 .454-.897c.304-.72.51-1.38.616-1.95z"/>
        <path class="st17" d="M48.937 34.797c-2.793 3.882-.68 9.327-.507 9.747-4.227-5.672.12-9.435.507-9.747z"/>
        <path class="st18" d="M45.4 56.61c2.77 4.14.172 9.78.172 9.78 4.443-5.543.195-9.457-.172-9.78z"/>
        <path class="st19" d="M58.49 12.994c0-.054-.01-.097-.01-.14a8.414 8.414 0 0 0-.077-.744c-.01-.14-.032-.26-.065-.356-.065-.226-.15-.334-.12-.345v-.02l-.15-.734a5.245 5.245 0 0 0-.216-.863 10.317 10.317 0 0 0-.4-1.13 11.148 11.148 0 0 0-1.67-2.827c-.81-.98-1.887-1.993-3.3-2.74a9.657 9.657 0 0 0-5.024-1.12c-1.768.1-3.763.714-5.337 1.94-1.6 1.2-2.86 2.936-3.56 4.888-.366.97-.53 2.016-.624 3.05-.022.27-.022.54-.022.81.357-.076.723-.14 1.09-.205.01-.17.02-.334.043-.507.12-.94.31-1.858.68-2.71.676-1.713 1.82-3.212 3.232-4.215a8.65 8.65 0 0 1 4.636-1.65c1.52-.04 3.07.27 4.3.884a10.014 10.014 0 0 1 3.06 2.286 10.06 10.06 0 0 1 1.66 2.48c.185.38.325.724.42 1.037.12.303.207.56.26.788.11.43.174.667.174.667 0 .033-.01.087-.023.163-.01.13-.02.312.023.54.02.16.03.343.03.55.01.084.01.18.01.28.01.31 0 .677-.042 1.1-.01.106-.022.203-.032.31-.03.335-.096.69-.182 1.07a8.005 8.005 0 0 1-.465 1.51 8.29 8.29 0 0 1-.43.95 9.617 9.617 0 0 1-1.59 2.284c-.966 1.03-2.27 1.86-3.77 2.39a12.76 12.76 0 0 1-1.165.29c-.43.063-.884.15-1.27.14-.82.052-1.706-.056-2.557-.27-1.727-.43-3.366-1.48-4.595-2.9a8.992 8.992 0 0 1-.623-.81 12.867 12.867 0 0 1-.906-1.587 8.73 8.73 0 0 1-.384-1.03 8.46 8.46 0 0 0-.863.182 11.592 11.592 0 0 0 2.19 3.753c1.324 1.543 3.05 2.697 4.915 3.3.938.29 1.887.474 2.868.464.507.02.938-.038 1.38-.08a10.76 10.76 0 0 0 1.37-.3 9.505 9.505 0 0 0 4.3-2.71 10.86 10.86 0 0 0 2.21-3.665 11.37 11.37 0 0 0 .475-1.846 10.4 10.4 0 0 0 .12-1.067c.01-.108.02-.216.02-.323.01-.12.01-.235.01-.343.013-.326 0-.617-.01-.887z"/>
        <path class="st19" d="M46.942 13.016c-.022-.108-.043-.237-.086-.367a2.443 2.443 0 0 0-.625-1.04 1.76 1.76 0 0 0-1.01-.53c-.36-.08-.86.01-1.23.25a2.34 2.34 0 0 0-.57.52c.49-.06.97-.1 1.47-.14.15.02.28.06.4.13.02.01.04.01.066.02.02.01.054.02.076.03.12.063.226.14.323.224h.01c.023.02.044.03.055.064.13.11.227.237.292.367.02.054.052.11.073.15a.75.75 0 0 1 .076.184c.01.022.01.032.01.043l.01.01c.023.076.044.14.055.194.067.29.067.463.067.463l.087-.013s-.055.01-.087.032c-.01.02 0 .05-.01.083v.022a3.432 3.432 0 0 1-.053.333 1.29 1.29 0 0 1-.087.29s0 .01-.01.022a.2.2 0 0 1-.023.075v.01h-.01c0 .024-.013.034-.024.056-.023.056-.055.1-.076.15v.014c-.15.312-.453.754-.96.96h-.01c-.432.042-.864.085-1.284.14.043.042.086.064.13.096.193.12.398.205.624.248.14.032.226.032.302.032.14 0 .223-.01.33-.032a1.95 1.95 0 0 0 1.004-.528l.056-.054a2.65 2.65 0 0 0 .604-1.13c.01-.086.03-.162.042-.226a2.97 2.97 0 0 0 .042-.43c-.01-.044 0-.077-.01-.11-.023-.02-.076-.03-.076-.03l.085-.012c0-.002.01-.218-.044-.584z"/>
        <path class="st20" d="M42.38 68.287c.465-.474.83-.97 1.133-1.456.485-.78.82-1.53 1.003-2.16.054-.17.108-.342.15-.493.11-.42.173-.766.206-1.003 0-.022.01-.032.01-.054.066-.313.044-.485.023-.485h.054s.01-.193.04-.55a7.11 7.11 0 0 0 .01-1.013c0-.162-.01-.334-.02-.53a5.468 5.468 0 0 0-.07-.56 8.94 8.94 0 0 0-.42-1.78 8.08 8.08 0 0 0-1.51-2.716c-.748-.885-1.78-1.66-3.088-2.03-1.26-.365-2.77-.27-4.076.37-.884.4-1.67 1-2.34 1.745a8.89 8.89 0 0 0-.334.53c-.537.84-.893 1.79-1.184 2.76a3.94 3.94 0 0 0-.15.624c.03-.01.052-.01.084-.01a63.188 63.188 0 0 1 3.55-.1c.224 0 .45 0 .68.01a1.36 1.36 0 0 1 .32-.224 1.92 1.92 0 0 1 1.25-.195 1.855 1.855 0 0 1 1.013.56c.325.347.498.724.595 1.037.043.15.065.28.086.4.044.376.023.59.023.59l-.086.01s.053.01.075.044c.01.023 0 .055 0 .098 0 .076-.02.26-.065.44a2.27 2.27 0 0 1-.13.444 2.48 2.48 0 0 1-.65.94 1.13 1.13 0 0 1-.12.1 1.85 1.85 0 0 1-.915.386c-.107.02-.193.02-.333.02-.086-.01-.16-.01-.3-.043a1.796 1.796 0 0 1-.626-.27 2.267 2.267 0 0 1-.246-.182c-.4-.02-.798-.02-1.197-.02a60.79 60.79 0 0 0-3.17.086c.043.442.13.895.25 1.326.074.24.15.486.235.723.033.108.076.216.13.323a9.31 9.31 0 0 0 .84 1.757c.357.582.777 1.12 1.24 1.617.907.97 1.985 1.76 3.14 2.254.872.376 1.8.646 2.673.72.41.074.904.064 1.38.074a13.57 13.57 0 0 0 1.28-.12c1.684-.29 3.215-.96 4.4-1.885.42-.322.81-.67 1.155-1.034-3.36 1.88-5.71-.72-6.002-1.068z"/>
        <path class="st21" d="M61.973 42.333c-.097.464-.248.95-.453 1.456a8.26 8.26 0 0 1-.28.63c-.01.01-.022.01-.022.02a9.24 9.24 0 0 1-1.725 2.575c-.96 1.035-2.254 1.865-3.763 2.394-.367.12-.798.216-1.154.29-.43.066-.895.152-1.283.14-.81.055-1.704-.053-2.555-.27-1.466-.366-2.857-1.174-4-2.285-.205-.194-.4-.4-.593-.615-.636-.71-1.11-1.54-1.53-2.392a10.3 10.3 0 0 1-.615-1.87c-.078-.29-.13-.57-.185-.852l-.032-.237c-.086-.78-.12-1.47-.065-2.19.01-.14.02-.28.042-.43.032-.22.065-.425.097-.64.128-.71.3-1.41.592-2.07.68-1.71 1.81-3.21 3.22-4.21a8.716 8.716 0 0 1 4.642-1.65c1.51-.044 3.06.27 4.3.883 1.25.616 2.287 1.424 3.05 2.287a9.76 9.76 0 0 1 1.663 2.48c.194.377.323.72.43 1.035.12.304.206.56.25.79.075.29.13.494.15.59.26 0 .52.01.776.01-.01-.03-.01-.052 0-.052v-.012s-.054-.26-.14-.73a7.098 7.098 0 0 0-.226-.865 7.234 7.234 0 0 0-.4-1.133 10.83 10.83 0 0 0-1.67-2.823c-.81-.98-1.888-1.997-3.3-2.74a9.66 9.66 0 0 0-5.025-1.12c-1.77.095-3.764.71-5.338 1.94-1.607 1.196-2.868 2.932-3.558 4.883a9.803 9.803 0 0 0-.55 2.416c-.033.214-.055.42-.076.634-.01.14-.025.294-.025.445-.01.43 0 .863.045 1.294.024.31.067.612.11.903.02.15.043.302.065.442.042.225.096.44.16.657.485 1.81 1.337 3.46 2.534 4.84.33.39.69.746 1.064 1.08.56.507 1.178.938 1.825 1.315.32.184.656.357.99.508.334.15.68.28 1.035.4.936.29 1.885.473 2.866.463.52.023.94-.03 1.38-.075a9.505 9.505 0 0 0 5.67-3.01 10.86 10.86 0 0 0 2.21-3.664 9.572 9.572 0 0 0 .476-1.854c-.355-.01-.722-.01-1.1-.01z"/>
        <path class="st21" d="M55.46 39.304c.01-.022.01-.032.022-.054a1.47 1.47 0 0 1 .14-.26c.032-.042.065-.085.097-.14.17-.258.42-.517.77-.635h.02c.45-.01.904-.01 1.36-.022a1.897 1.897 0 0 0-1.017-.528 1.83 1.83 0 0 0-1.23.26 1.65 1.65 0 0 0-.387.312 2.11 2.11 0 0 0-.485.67c-.066.128-.12.27-.163.42a3.02 3.02 0 0 0-.13.84c0 .443.077.83.25 1.21.01.03.03.064.042.096.17.377.45.722.81.96.02.01.03.022.05.032.195.12.4.194.626.248.14.022.227.022.303.032a1.843 1.843 0 0 0 1.1-.366c-.218 0-.43.01-.638.02h-.022c-.634-.13-1.055-.61-1.26-.92-.01-.01-.022-.02-.022-.03-.01-.01-.02-.03-.03-.047a.282.282 0 0 1-.053-.067 3.672 3.672 0 0 1-.065-.12.228.228 0 0 1-.064-.106 1.72 1.72 0 0 1-.174-.614c-.012-.11-.023-.206-.023-.3a2.254 2.254 0 0 1 .163-.9z"/>
        <path class="st22" d="M41.303 36.522a9.927 9.927 0 0 0-.84-2.857 10.155 10.155 0 0 0-2.255-3.073c-1.014-.938-2.394-1.714-3.85-2.135a1.66 1.66 0 0 0-.312-.065 7.796 7.796 0 0 0-1.585-.226 9.32 9.32 0 0 0-3.05.367c-.02.01-.04.01-.06.022-1.02.29-2.002.798-2.89 1.456 0 0 0 .02-.01.02l-.13.098v.01a3.36 3.36 0 0 0-.363.29c-.173.14-.334.293-.485.444-.14.13-.27.27-.4.41-.042.043-.074.086-.12.13-.366.41-.7.86-.99 1.347a15 15 0 0 0-.55.97c-.023.032-.033.076-.044.11-.386.83-.623 1.64-.82 2.61-.116.892-.18 1.884-.073 2.822.14.936.357 1.874.745 2.74.248.55.54 1.075.884 1.57 3.02 2.78 5.38 1.9 5.93 1.63-.8-.907-1.37-2.05-1.703-3.247-.36-1.24-.433-2.553-.304-3.86.01-.18.03-.354.054-.54.032-.202.075-.41.12-.622.15-.7.366-1.41.646-2.08a10.2 10.2 0 0 1 .486-.97 3.57 3.57 0 0 1 .26-.44c.774-1.23 1.83-2.287 3.103-2.91 1.26-.627 2.75-.735 3.955-.304 1.262.42 2.2 1.282 2.847 2.19.647.904 1.024 1.874 1.25 2.737.217.874.324 1.66.324 2.308 0 .11.01.228.01.325.11.023.217.033.314.044.01-.065 0-.13 0-.194 0-.326-.02-.693-.084-1.113zm-14.33 4.733c-3.29-6.383 1.78-9.37 2.103-9.543-3.527 3.505-2.103 9.543-2.103 9.543z"/>
        <path class="st23" d="M57.498 12.78c0-.206-.01-.39-.032-.55a1.952 1.952 0 0 1-.022-.54c.01-.076.022-.13.022-.162 0 0-.065-.237-.173-.67a5.99 5.99 0 0 0-.26-.786 7.46 7.46 0 0 0-.42-1.035 10.033 10.033 0 0 0-1.66-2.48A10.03 10.03 0 0 0 51.89 4.27c-1.227-.613-2.78-.925-4.3-.882a8.638 8.638 0 0 0-4.636 1.65C41.54 6.04 40.398 7.54 39.718 9.253c-.367.852-.56 1.768-.68 2.706-.02.17-.03.33-.042.5.086-.02.172-.03.26-.046.096-1.186.366-2.36.85-3.418.583-1.338 1.478-2.535 2.643-3.333 1.15-.81 2.6-1.13 3.87-.882 1.31.226 2.36.938 3.13 1.747a8.063 8.063 0 0 1 1.64 2.534c.343.83.56 1.586.656 2.22l.032.164a10.477 10.477 0 0 1 .13 1.33c.01.344.02.527.02.527l-.054.01c.022 0 .065.185.032.52 0 .12-.01.26-.023.43a14 14 0 0 1-.14 1.058v.022c-.094.636-.31 1.38-.655 2.21-.345.82-.863 1.725-1.65 2.523l-.29.29c.42.192 3.536 1.5 6.9-2.374.172-.323.313-.636.43-.95a7.983 7.983 0 0 0 .465-1.51 8.62 8.62 0 0 0 .18-1.067c.01-.11.023-.207.033-.315a8.08 8.08 0 0 0 .043-1.1c0-.096 0-.193-.01-.28zm-4.7 4.786c.172-.42 2.285-5.855-.508-9.747.388.31 4.734 4.07.507 9.74zm-13.113-1.1a.38.38 0 0 0-.183.043c.108.35.237.7.388 1.03.27.55.56 1.08.906 1.58a9.3 9.3 0 0 0 .67.657 8.396 8.396 0 0 1-1.36-2.178 7.26 7.26 0 0 1-.42-1.145z"/>
        <path d="M38.5 62.54c.053-.097.107-.194.15-.29a1.26 1.26 0 0 1-.14.29h-.01z"/>
        <path class="st24" d="M35.91 20.305a7.427 7.427 0 0 0-.096-1.09 3.88 3.88 0 0 0-.15-.808c-.12-.377-.076-.636-.087-.7l-.01-.023c-.012-.032-.033-.075-.066-.15a12.71 12.71 0 0 0-.19-.465 3.51 3.51 0 0 0-.23-.53 4.28 4.28 0 0 0-.12-.23 7.376 7.376 0 0 0-.57-.95c-.12-.17-.248-.36-.388-.55a10.145 10.145 0 0 0-.81-.91 7.907 7.907 0 0 0-.83-.744 10.13 10.13 0 0 0-3.385-1.747c-1.325-.4-2.91-.475-4.41-.206a9.226 9.226 0 0 0-4.43 2.23c-1.295 1.155-2.276 2.75-2.77 4.53-.27.884-.37 1.82-.38 2.76 0 .96.15 1.833.41 2.825.28.862.67 1.78 1.176 2.576.54.786 1.154 1.52 1.887 2.123.3.25.624.484.948.69-.01-.01-.01-.02-.01-.044a8.86 8.86 0 0 1-1.22-.99c-1.076-1.034-1.874-2.382-2.37-3.816-.464-1.422-.647-3-.4-4.474.217-1.478.83-2.89 1.79-3.97a6.16 6.16 0 0 1 3.538-2.005 6.353 6.353 0 0 1 3.635.455 7.62 7.62 0 0 1 2.47 1.66.67.67 0 0 1 .085.077 8.4 8.4 0 0 1 .7.787 8.1 8.1 0 0 1 .747 1.09c.127.212.235.42.332.61.15.3.26.56.334.766.032.086.065.162.086.216.076.194.11.29.11.29l-.055.023c.03 0 .13.16.203.494.096.324.225.853.29 1.51.1.65.11 1.457-.02 2.373a9.04 9.04 0 0 1-.476 1.857c.766.075 3.202-.022 4.69-4.054a8.98 8.98 0 0 0 .054-1.5zm-2.9 2.383s-.064-6.232-4.377-8.766c0 0 5.5.528 4.378 8.766z"/>
        <path d="M34.434 37.557c-.032.022-.054.054-.086.086.022-.022.043-.054.075-.086h.01z"/>
        <path class="st25" d="M52.43 61.56v-.012s-.01-.162-.022-.474c0-.097-.01-.205-.01-.323 0-.25-.033-.58-.087-.96a8.335 8.335 0 0 0-.23-1.27 11.47 11.47 0 0 0-1.28-3.29c-.68-1.17-1.66-2.43-3.03-3.47a11.146 11.146 0 0 0-1.013-.69 10.85 10.85 0 0 0-2.653-1.09 10.92 10.92 0 0 0-1.477-.27c-1.89-.2-4.11.11-5.997 1.14-1.92 1.015-3.548 2.63-4.627 4.584-.56.97-.93 2.038-1.21 3.127a7.66 7.66 0 0 0-.175 1.015 9.42 9.42 0 0 1 .766-.053c.155-.02.295-.03.446-.03a4.27 4.27 0 0 1 .15-.625c.29-.97.647-1.92 1.186-2.76a9.08 9.08 0 0 1 .335-.53c.995-1.465 2.32-2.652 3.81-3.385a9.273 9.273 0 0 1 5.22-.96c1.616.204 3.2.81 4.41 1.68a10.836 10.836 0 0 1 2.856 2.945 10.74 10.74 0 0 1 1.338 2.924c.14.43.226.82.28 1.164.065.344.108.646.13.883 0 .044.01.077.01.11.032.333.043.55.054.614.034 0-.063.15-.095.466-.02.087-.02.184-.02.303a7.6 7.6 0 0 1-.096.883c-.03.26-.075.54-.16.853a1.66 1.66 0 0 1-.066.3 8.13 8.13 0 0 1-.214.745 10.2 10.2 0 0 1-1 2.22 11.42 11.42 0 0 1-1.556 2.05 9.607 9.607 0 0 1-1.16 1.037c-1.187.927-2.718 1.596-4.4 1.887-.42.066-.895.098-1.283.12-.474-.01-.97 0-1.38-.075-.873-.076-1.8-.345-2.674-.72-1.153-.498-2.23-1.285-3.137-2.256a10.053 10.053 0 0 1-1.24-1.617 9.375 9.375 0 0 1-.84-1.757 2.013 2.013 0 0 1-.13-.324 2.113 2.113 0 0 1-.108-.28 3.35 3.35 0 0 1-.13-.442 7.02 7.02 0 0 1-.29-1.315c-.162 0-.334.01-.496.03-.14 0-.29.01-.43.023.29 1.617.86 3.138 1.712 4.507 1.142 1.867 2.78 3.388 4.657 4.347.95.472 1.92.817 2.967.98.54.12 1 .13 1.465.16.55 0 1.015-.032 1.52-.086a10.273 10.273 0 0 0 5.026-2.132 11.697 11.697 0 0 0 4.033-6.146c.065-.235.12-.472.16-.69.034-.13.056-.26.067-.375a4.01 4.01 0 0 0 .11-.744c.01-.065.02-.13.02-.183.056-.4.078-.71.067-.96 0-.054.01-.108.01-.16.004-.407-.115-.62-.072-.62z"/>
        <path class="st25" d="M38.812 61.656c-.01.097-.032.183-.065.334a3.718 3.718 0 0 1-.086.248l-.01.01a1.26 1.26 0 0 1-.14.292c-.2.345-.6.863-1.28 1.014-.4-.01-.81-.022-1.19-.022.076.065.162.13.25.183.192.13.386.216.623.27.14.032.216.032.3.043.14 0 .227 0 .335-.022.355-.043.668-.194.916-.388.04-.032.085-.065.12-.097.33-.3.526-.63.645-.93a2.21 2.21 0 0 0 .13-.44 2.47 2.47 0 0 0 .063-.44c0-.044.01-.076 0-.1-.024-.03-.078-.042-.078-.042l.09-.01s.02-.217-.024-.594c-.02-.12-.042-.25-.085-.4a2.646 2.646 0 0 0-.668-1.11 1.855 1.855 0 0 0-.937-.485 1.93 1.93 0 0 0-1.25.194 1.34 1.34 0 0 0-.325.224c.466 0 .93.01 1.39.023.4.13.725.527.92.86.02.01.03.025.03.046 0 .01.01.01.01.02.057.066.09.14.12.195h-.01c.098.19.15.387.184.54.052.29.04.46.04.46h.087s-.054 0-.076.025-.01.063-.02.106z"/>
        <path class="st26" d="M28.633 13.922c4.313 2.534 4.378 8.766 4.378 8.766 1.13-8.238-4.37-8.766-4.37-8.766z"/>
        <path d="M31.91 64.923c.076.237.152.485.238.722-.043-.086-.075-.183-.108-.28a3.51 3.51 0 0 1-.13-.442zm-.247-1.326c.043.442.13.895.248 1.326a7.02 7.02 0 0 1-.29-1.315c.01-.01.04-.01.05-.01z"/>
        <path class="st27" d="M31.167 25.858a9.024 9.024 0 0 0 .474-1.855c.13-.917.12-1.725.03-2.372a8.144 8.144 0 0 0-.29-1.51c-.074-.33-.17-.49-.204-.49l.054-.02s-.03-.095-.108-.29c-.022-.053-.054-.13-.086-.215a7.682 7.682 0 0 0-.334-.766 9.256 9.256 0 0 0-.336-.615 8.146 8.146 0 0 0-.742-1.09 9.184 9.184 0 0 0-.7-.788.593.593 0 0 0-.087-.076 7.646 7.646 0 0 0-2.47-1.66 6.352 6.352 0 0 0-3.633-.454 6.155 6.155 0 0 0-3.537 2.006c-.96 1.08-1.576 2.49-1.79 3.97-.25 1.476-.067 3.05.4 4.474.493 1.433 1.29 2.78 2.37 3.816.376.366.786.7 1.22.99a10.46 10.46 0 0 1-.08-.646c-.084-1.17.013-2.422.325-3.75.14-.58.314-1.152.54-1.702v-.01a1.487 1.487 0 0 1 0-.314 2.43 2.43 0 0 1 .12-.69c.14-.45.4-.87.754-1.173.14-.13.313-.24.485-.304a1.91 1.91 0 0 1 .73-.183c.28-.01.52.023.735.098.163.043.303.108.43.194.627.376.93.916 1.08 1.282.01.01.01.03.01.044.14.356.163.56.163.56l-.086.023s.056.01.088.023c.022.02.022.063.032.106.01.086.04.28.04.464 0 .14-.01.29-.03.476a2.805 2.805 0 0 1-.474 1.12c-.056.064-.1.13-.164.193a6.96 6.96 0 0 0-.43 2.005c-.044.7.03 1.412.204 2.103A10.635 10.635 0 0 1 29 27.2a7.42 7.42 0 0 1 1.185-.29 3.1 3.1 0 0 1 .528-.09 9.745 9.745 0 0 1 3.02.075c.053-.065.107-.14.16-.205a10.06 10.06 0 0 0 1.672-3.43 9.79 9.79 0 0 0 .29-1.455c-1.485 4.033-3.922 4.13-4.688 4.055z"/>
        <path class="st28" d="M33.227 37.794c.086-.194.183-.367.302-.528l.06-.097a2.49 2.49 0 0 1 .912-.74c.075-.046.162-.08.237-.1a2.182 2.182 0 0 1 2.35.657c.044.043.077.097.11.14 1.163.26 2.34.453 3.503.604.12.023.25.033.37.044 0-.097-.01-.216-.01-.323 0-.645-.11-1.432-.325-2.305-.227-.864-.605-1.834-1.25-2.74-.65-.906-1.587-1.768-2.85-2.19-1.207-.43-2.695-.322-3.956.303-1.273.625-2.33 1.682-3.106 2.91a3.7 3.7 0 0 0-.26.443 10.32 10.32 0 0 0-.484.97 12 12 0 0 0-.647 2.08c-.043.218-.086.42-.12.627-.02.182-.04.355-.053.54-.13 1.303-.054 2.62.302 3.86.333 1.195.905 2.34 1.703 3.244-.55.27-2.91 1.155-5.93-1.627.71 1.034 1.616 1.92 2.65 2.544.756.45 1.575.83 2.36 1.034.38.13.83.185 1.264.26.37.044.81.087 1.2.098a10.535 10.535 0 0 0 2.95-.452 9.33 9.33 0 0 0 1.39-.56c1.264-.636 2.245-1.5 3-2.36a8.51 8.51 0 0 0 1.048-1.43c.03-.04.04-.074.064-.117.01-.02.023-.03.033-.054.01-.027.023-.037.023-.06.065-.14.13-.29.183-.42a5.224 5.224 0 0 1-.39-.054 39.295 39.295 0 0 1-3.705-.69 2.14 2.14 0 0 1-.884.192c-.12 0-.205 0-.345-.023-.086-.02-.172-.03-.302-.082a2.095 2.095 0 0 1-.634-.323 2.295 2.295 0 0 1-.474-.494 2.4 2.4 0 0 1-.355-.656 2.607 2.607 0 0 1-.15-.638 2.934 2.934 0 0 1 .01-.81 3 3 0 0 1 .2-.68z"/>
        <path class="st29" d="M29.075 31.713c-.323.172-5.39 3.16-2.103 9.543 0 0-1.423-6.04 2.103-9.543z"/>
        <path d="M26.444 30.02l-.13.097c-.01-.022-.02-.043-.03-.075a.89.89 0 0 0 .16-.022z"/>
        <path class="st30" d="M17.57 57.343c4.604 1.91 5.596 8.022 5.596 8.022.594-7.052-5.09-7.957-5.596-8.022zm8.82 6.243c.043 0-.086.226-.086.636 0 .043.01.086.01.13.012.258 0 .56-.03.894a7.747 7.747 0 0 1-.163 1.165c-.02.14-.05.28-.08.43-1.44 3.387-3.87 3.268-4.69 3.117a8.7 8.7 0 0 0 .338-1.725c.086-.96.03-1.81-.097-2.502-.022-.107-.032-.225-.054-.322a7.968 7.968 0 0 0-.27-1.045 2.082 2.082 0 0 0-.065-.194c-.097-.345-.194-.507-.237-.507l.055-.03s-.074-.187-.225-.52c-.076-.16-.163-.358-.29-.58-.13-.25-.293-.53-.487-.83a.812.812 0 0 0-.086-.13c-.36-.56-.876-1.168-1.545-1.78a8.545 8.545 0 0 0-2.78-1.68 6.76 6.76 0 0 0-3.85-.27c-1.326.3-2.685 1.085-3.61 2.282-.95 1.174-1.533 2.695-1.684 4.26-.03.29-.05.58-.06.87-.03-1.1.02-2.06.236-3.06.227-.98.53-1.953 1.004-2.826.895-1.77 2.275-3.257 3.882-4.185a9.294 9.294 0 0 1 5.144-1.296c1.628.096 3.256.592 4.518 1.38a11.008 11.008 0 0 1 3.04 2.76c.572.754.982 1.51 1.273 2.2.097.215.173.42.25.624.052.14.095.27.14.4.095.27.16.517.214.754.09.335.15.626.186.864.01.096.03.182.042.26.03.245.064.407.074.46z"/>
        <path d="M24.956 29.578l.032.097c-.032 0-.075 0-.12-.01a.333.333 0 0 1 .088-.087zm-.486-8.68v.01h-.01v-.01h.01z"/>
        <path class="st31" d="M42.208 36.425a10.357 10.357 0 0 0-.744-3.192c-.485-1.175-1.218-2.458-2.35-3.58a9.92 9.92 0 0 0-4.088-2.458c-.12-.043-.248-.076-.367-.108a6.453 6.453 0 0 0-.93-.194 9.714 9.714 0 0 0-3.02-.075 3.09 3.09 0 0 0-.53.086 7.77 7.77 0 0 0-1.19.29 10.64 10.64 0 0 0-3.14 1.63 9.69 9.69 0 0 0-.905.754l.032.097c-.033 0-.077 0-.12-.01-.14.128-.28.258-.42.41-.03.042-.076.085-.108.128-.12.12-.238.26-.346.388l-.01.02c-.085.12-.17.227-.25.346-.16.194-.3.41-.43.625a9.174 9.174 0 0 0-.645 1.143l-.26.55c-.41.95-.67 2.04-.81 2.988-.236 2.114.077 4.195.907 6.06a10.994 10.994 0 0 0 3.73 4.594c.81.55 1.65 1.015 2.59 1.306.474.182.895.26 1.326.355.496.073.927.12 1.39.15a9.94 9.94 0 0 0 4.94-1.13c1.4-.747 2.522-1.717 3.32-2.71A10.778 10.778 0 0 0 41.38 42.2a18.847 18.847 0 0 1-1.078-.13c-.077.13-.14.27-.238.41 0 .024-.01.034-.022.056-.01.02-.022.03-.032.053-.022.04-.032.072-.065.12a8.46 8.46 0 0 1-1.047 1.43c-.756.86-1.737 1.722-3 2.36a9.33 9.33 0 0 1-1.39.56c-.918.28-1.92.44-2.955.452-.388-.01-.83-.05-1.197-.093-.43-.075-.883-.13-1.26-.26-.787-.203-1.607-.58-2.36-1.033-1.036-.624-1.94-1.51-2.653-2.544a9.806 9.806 0 0 1-.88-1.58c-.39-.86-.605-1.8-.745-2.737-.108-.938-.043-1.93.076-2.825.192-.97.43-1.78.82-2.61.01-.03.02-.073.04-.105.173-.333.356-.657.55-.97a8.79 8.79 0 0 1 .992-1.347c.044-.045.077-.088.12-.13.13-.14.26-.28.4-.41.15-.15.313-.3.485-.44.12-.11.24-.208.37-.294v-.01c-.01-.022-.023-.043-.033-.076a.75.75 0 0 0 .163-.022c.01 0 .01-.01.01-.01.886-.655 1.867-1.16 2.89-1.453.024-.01.045-.01.067-.023a9.322 9.322 0 0 1 3.05-.366c.54.022 1.07.097 1.584.226.11.01.208.032.316.065 1.454.42 2.834 1.196 3.847 2.134a10.19 10.19 0 0 1 2.255 3.073 9.927 9.927 0 0 1 .84 2.857 7 7 0 0 1 .086 1.11c0 .066.01.13 0 .195l.84.1c.01-.098.01-.195.01-.29a7.81 7.81 0 0 0-.03-1.21z"/>
        <path class="st31" d="M34.046 38.14c.054-.13.12-.26.205-.378l.05-.054a.233.233 0 0 1 .057-.065c.02-.022.043-.054.075-.086a.83.83 0 0 1 .173-.162c.033-.032.066-.065.098-.086h.01c.024-.03.056-.05.077-.05.313-.24.776-.42 1.4-.37.12.042.25.064.37.096.215.054.43.097.657.14-.03-.043-.064-.097-.107-.14a2.185 2.185 0 0 0-2.35-.658 1.128 1.128 0 0 0-.24.096 2.5 2.5 0 0 0-.916.733l-.064.096c-.12.165-.216.337-.302.53a3.184 3.184 0 0 0-.205.68c-.04.28-.04.55-.01.81.023.217.076.43.15.637.09.237.207.464.36.658a2.073 2.073 0 0 0 1.11.82c.13.055.215.066.3.087.14.02.227.02.346.02.32 0 .623-.072.882-.19a21.375 21.375 0 0 1-1.133-.29h-.01a2.555 2.555 0 0 1-.895-1.09 1.068 1.068 0 0 1-.076-.15l-.065-.153c0-.01-.012-.022-.012-.032a.31.31 0 0 1-.02-.097c-.01-.065-.02-.108-.02-.108a1.89 1.89 0 0 1-.034-.608c0-.053.01-.096.01-.14.045-.225.07-.343.142-.505z"/>
        <path class="st32" d="M36.936 20.25a7.754 7.754 0 0 0-.15-1.217 5.818 5.818 0 0 0-.206-.873c-.097-.464-.313-.658-.27-.67v-.02s-.022-.055-.054-.163l-.194-.54a4.2 4.2 0 0 0-.173-.463 18.45 18.45 0 0 0-.18-.367c-.01-.043-.03-.075-.056-.12-.12-.29-.3-.603-.507-.948-.065-.11-.14-.23-.205-.35a12.17 12.17 0 0 0-.71-.96 10.3 10.3 0 0 0-1.178-1.23c-.96-.84-2.19-1.66-3.71-2.17a10.243 10.243 0 0 0-5.132-.335c-1.724.345-3.61 1.21-5.045 2.59a10.84 10.84 0 0 0-3.03 5.24c-.246 1.013-.31 2.07-.28 3.104.045 1.035.29 2.135.595 3.05.71 2.007 1.907 3.732 3.492 5.047.507.43 1.057.81 1.64 1.132a7.818 7.818 0 0 1-.195-1.047 9.746 9.746 0 0 1-.95-.69c-.73-.606-1.347-1.34-1.886-2.126-.508-.797-.896-1.713-1.176-2.576-.26-.992-.41-1.865-.41-2.825.01-.94.11-1.877.38-2.76.495-1.78 1.476-3.376 2.77-4.53 1.294-1.164 2.814-1.92 4.432-2.23 1.5-.27 3.085-.196 4.41.203a10.13 10.13 0 0 1 3.387 1.75c.3.235.58.483.83.742.3.3.57.603.81.905.14.194.27.377.386.55.236.345.43.66.57.95.043.075.086.16.12.225a3.6 3.6 0 0 1 .236.528c.086.195.15.357.194.465.033.075.055.12.066.15l.01.022c.013.064-.03.322.088.7.078.226.12.496.15.81.057.3.09.67.1 1.09a8.86 8.86 0 0 1-.052 1.497 9.93 9.93 0 0 1-.29 1.456 10.09 10.09 0 0 1-1.674 3.428c-.054.066-.108.14-.162.206.324.042.626.107.928.193.12.03.25.064.37.107a10.475 10.475 0 0 0 1.91-6.944z"/>
        <path class="st32" d="M26.682 22.353a1.375 1.375 0 0 0-.086-.022l.086-.02s-.022-.2-.162-.56c0-.01 0-.03-.01-.04a2.644 2.644 0 0 0-1.08-1.28 1.45 1.45 0 0 0-.43-.193 1.958 1.958 0 0 0-.733-.097 1.968 1.968 0 0 0-.733.183 1.523 1.523 0 0 0-.485.3 2.518 2.518 0 0 0-.76 1.176 2.465 2.465 0 0 0-.12.69c-.01.096-.01.204 0 .312.16-.41.34-.81.55-1.188.54-.73 1.37-.742 1.732-.71h.01v.01a1.534 1.534 0 0 1 .605.16c.216.12.4.28.54.444a2.6 2.6 0 0 1 .29.453c.097.207.13.358.15.42v.036l.012.01.053-.01c-.01.01-.03.023-.043.033v.107c.075.368.225 1.306.075 2.007-.03.054-.043.097-.065.15.064-.064.107-.13.16-.193.28-.39.41-.79.475-1.12a3.81 3.81 0 0 0 .033-.475c0-.183-.03-.377-.04-.464-.01-.044-.01-.087-.033-.11z"/>
        <path class="st33" d="M17.57 57.343c.507.065 6.19.97 5.596 8.022 0 0-.99-6.114-5.596-8.022z"/>
        <path class="st34" d="M22.54 83.21c.13.453.217.863.27 1.218a8.39 8.39 0 0 0-1.207-2.63 6.826 6.826 0 0 0-2.976-2.45c-1.262-.527-2.825-.668-4.27-.225-1.466.4-2.814 1.305-3.85 2.49-.258.28-.495.583-.71.896a7.72 7.72 0 0 0-.583.98 10.31 10.31 0 0 0-.733 1.75l-.16.56c-.04.205-.08.4-.13.604-.24 1.37-.24 2.782.09 4.13.21.863.53 1.693.98 2.437-.73.464-3.552 1.876-6.02-1.65a12.065 12.065 0 0 1-.744-2.04c-.27-1.022-.345-2.133-.345-3.15.055-1.15.184-2.132.497-3.156.324-.98.7-1.95 1.26-2.8 0-.01.01-.03.02-.043.26-.42.54-.82.867-1.196a10.73 10.73 0 0 1 2.275-2.09 9.43 9.43 0 0 1 1.207-.68c.01-.01.022-.02.032-.02a9.652 9.652 0 0 1 3.642-.97 8.9 8.9 0 0 1 1.78.052c1.187.172 2.35.55 3.376 1.1h.01c.42.204.82.452 1.176.72a11.198 11.198 0 0 1 2.91 3.106 10.93 10.93 0 0 1 1.348 3.05zM6.444 90.165c-.065-.496-.84-6.265 2.793-9.38 0 0-5.694 2.587-2.793 9.38z"/>
        <path class="st35" d="M21.344 69.948a8.7 8.7 0 0 0 .334-1.725c.086-.96.032-1.81-.097-2.502-.02-.1-.03-.22-.05-.32a7.813 7.813 0 0 0-.27-1.04 1.986 1.986 0 0 0-.06-.193c-.096-.345-.193-.507-.236-.507l.054-.03s-.076-.185-.226-.52c-.075-.16-.16-.356-.29-.58a9.94 9.94 0 0 0-.485-.83.684.684 0 0 0-.084-.13c-.353-.56-.87-1.166-1.54-1.78a8.545 8.545 0 0 0-2.78-1.68 6.77 6.77 0 0 0-3.85-.27c-1.326.3-2.685 1.087-3.61 2.284-.95 1.176-1.533 2.697-1.684 4.26-.033.29-.055.58-.066.873v.062c.075.96.237 1.993.57 2.93.076.218.163.42.26.627.086-.096.17-.193.27-.29 1.283-1.36 2.793-2.512 4.378-3.494.12-.205.27-.39.44-.54a1.912 1.912 0 0 1 1.176-.484c.066 0 .13 0 .195.01.365.023.656.14.915.303.13.085.25.182.346.27.358.333.54.7.65.97.13.366.15.58.15.58l-.074.023s.055 0 .076.022c.02.02.02.053.03.096.01.05.02.16.03.29v.01c0 .053.01.096.01.14 0 .31-.03.754-.28 1.217a1.97 1.97 0 0 1-1.055 1.025c-.106.033-.192.066-.32.087-.085.01-.17.03-.3.03-.054 0-.108 0-.16-.01-1.533 1.036-2.74 2.136-3.657 3.33.03.035.075.068.107.1.465.41.96.776 1.5 1.068a10.72 10.72 0 0 1 4.83.712c.226.083.44.18.658.29.235.095.462.214.677.343l.528-.096c1.67-.41 3.148-1.175 4.27-2.167 1.143-1 1.94-2.165 2.502-3.254a9.823 9.823 0 0 0 .926-2.62c-1.443 3.382-3.87 3.264-4.69 3.113z"/>
        <path class="st36" d="M82.34 16.95c-9.207-1.26-15.925-2.522-23.84-3.072 0 .108 0 .226-.01.345 0 .108-.01.216-.022.323a171 171 0 0 1 2.857.26c3.32.333 6.674.786 9.92 1.228 1.143.162 2.286.313 3.43.464.56.075 1.142.162 1.757.237 2.836.4 6.06.852 8.993.852 1.197 0 2.275-.075 3.192-.226 2.05-.33 3.547-1.22 4.227-2.51a3.2 3.2 0 0 0 .345-1.05c-1.17 1.52-4.18 4.077-10.85 3.16zm-9.326-12.4c.658.378 2.318.465 3.31.52.237.01.453.02.625.03a26.1 26.1 0 0 1 11.26 3.473c1.82 1.067 3.642 2.987 2.962 5.003.96-1.164.28-2.642.28-2.642-3.99-6.232-15.83-6.718-18.708-6.75a.47.47 0 0 0 .26.367zM87.15 61.494a1.664 1.664 0 0 0-.302-.766 1.58 1.58 0 0 0-.41-.453 1.162 1.162 0 0 0-.367-.194s-.05-.02-.16-.04a.378.378 0 0 0-.11-.02 7.06 7.06 0 0 1-.72.79c.34.045.81.196 1.07.69-1.29 1.23-4.18 3.18-10.1 4.27-.01.02-.01.03-.01.056a36.3 36.3 0 0 0-.075.787v.02c-.01 0-.01.02-.01.066a24.226 24.226 0 0 0 3.115-.636c.27-.076.55-.15.82-.237.02-.01.053-.01.075-.02.16-.054.323-.11.485-.173 1.337-.445 2.642-1.017 3.84-1.75.26-.14.517-.314.765-.486.453-.3.884-.635 1.294-.99.28-.238.56-.497.82-.767v-.01c-.015-.055-.015-.087-.015-.12v-.01zm-7.828-19.387c-.12-.054-.237-.097-.367-.15-.14-.055-.26-.11-.4-.152l-.03.032a.99.99 0 0 0-.25.313c-.074.14-.14.29-.182.442-.054.162-.065.28-.086.496-.022.172-.022.377.022.57 0 .033 0 .066.01.098.01.022.01.043.01.075h.01c.28.11.55.23.82.37.36.16.72.35 1.07.54.225.11.43.24.646.36a16.492 16.492 0 0 1 2.8 2.035c.095.077.192.164.28.26a.32.32 0 0 1 .106.098c.13.12.26.25.388.378.163.173.324.346.475.52.29.333.56.68.803 1.045.334-.086.68-.162 1.014-.216-2.156-3.495-6.08-4.94-7.71-5.414h-.01c-.14-.575-.098-1.24.57-1.696zM62.48 64.502a1.926 1.926 0 0 0-.162-.55l-.852-.162c.237.367.4.884.162 1.51-2.19-.302-6.48-.97-9.22-1.822-.01.226-.042.474-.107.744.74.14 1.46.27 2.18.42l.51.098.49.097h.023c.28.054.55.108.82.162.86.17 1.724.34 2.598.5.304.062.606.12.908.17.475.085.95.182 1.435.26.27.052.53.106.8.15a2.24 2.24 0 0 0 .353-.66c0-.01 0-.022.01-.022.032-.14.054-.226.065-.313.01-.043.01-.086.023-.108.033-.01.087-.023.087-.023h-.09c-.004 0 .02-.17-.025-.46zm-6.168-25.21c-.248 0-.485.01-.733.01h-.12a2.254 2.254 0 0 0-.17.896c0 .098.01.195.02.303.02.22.076.44.173.62a.21.21 0 0 0 .064.11l.065.12c.312 0 .624-.01.937-.02.377-.01.755-.01 1.143-.02.25-.012.508-.023.756-.023.924-.022 1.852-.032 2.77-.032h.32c.13 0 .248 0 .367.01a.935.935 0 0 1 .25 0c.355 0 .7 0 1.034.013.67.01 1.306.03 1.93.063.01-.216.023-.442.044-.67l-9.12-.15c-.13-.486.04-.917.256-1.22zm-9.985-26.158c-.01-.054-.032-.12-.054-.194l-.01-.01c0-.012 0-.023-.012-.044a.704.704 0 0 0-.07-.183c-.27.022-.53.032-.783.054.12.237.226.57.216 1.035-2.19.27-6.955.917-9.942 2.027.023.04.044.07.055.11.067.13.12.25.174.366a29.332 29.332 0 0 1 2.412-.647c.3-.076.604-.14.917-.205.065-.02.14-.03.205-.044.16-.043.322-.076.484-.097a46.84 46.84 0 0 1 3.16-.53c.28-.03.56-.074.85-.096a32.84 32.84 0 0 1 1.556-.162c.24-.032.476-.043.724-.065h.01v-.01a.2.2 0 0 0 .022-.074c.01-.01.01-.02.01-.02.043-.11.076-.207.086-.29a3.71 3.71 0 0 0 .054-.337v-.02c.01-.03 0-.066.01-.087a.265.265 0 0 1 .088-.034l-.085.01a1.96 1.96 0 0 0-.063-.46zM34.445 38.937c-.01-.7.377-1.035.69-1.186a36.294 36.294 0 0 1-.7-.19c-.033.02-.055.06-.087.09a.282.282 0 0 0-.054.067.197.197 0 0 0-.043.054c-.08.12-.15.248-.2.377-.07.16-.092.28-.14.507 0 .044-.01.087-.01.14a1.89 1.89 0 0 0 .03.605l.028.11c.01.03.02.063.043.095v.01a39.97 39.97 0 0 0 2.404.66c.26.065.528.12.787.173 1.024.226 2.05.4 3.06.54.12.02.25.03.368.042.043.01.097.02.14.02.334.04.67.073 1.003.11.345.04.69.07 1.035.092-.042-.29-.085-.594-.107-.907-2.145.106-6.318-.908-8.237-1.404zm4.335 22.126a2.257 2.257 0 0 0-.183-.54 15.27 15.27 0 0 0-1.003-.03c.29.258.56.646.442 1.164-2.47-.022-8.583 0-10.966.615.032.173.054.334.065.474.01.086.022.162.022.237a46.65 46.65 0 0 1 3.386-.377c.15-.022.313-.032.485-.043.162-.01.334-.022.518-.032h.022a53.252 53.252 0 0 1 3.267-.09c.162 0 .323 0 .496.01.3-.01.6 0 .9.01.43.01.878.02 1.32.047.314 0 .637.02.96.043.055-.098.11-.195.15-.29l.01-.013c.034-.085.067-.17.088-.247.03-.15.054-.238.065-.335.01-.044 0-.087.02-.11s.078-.02.078-.02h-.085c-.004-.003.007-.175-.047-.466zM33.852 95.07c-.248-.538-.776-.83-1.596-.473a1.03 1.03 0 0 0-.582.604c-.485-3.21-4.14-4.96-6.254-5.44-1.876-.43-7.15-1.03-9.262-1.27 0-.58.313-.97.593-1.194-.35-.076-.71-.15-1.06-.25a.296.296 0 0 1-.05.066l-.108.16c-.043.077-.065.15-.097.218a2.34 2.34 0 0 0-.14.496c-.022.13-.032.27-.022.41 0 0 0 .074.01.203.304.075.606.15.92.215a30.53 30.53 0 0 0 1.693.3l.67.096c.342.054.676.097 1.01.14.896.12 1.79.237 2.697.4.02 0 .04 0 .052.01.13.02.26.043.39.076.246.044.483.087.72.15.27.056.526.12.785.185 1.445.376 3.29.97 4.798 2.2.12.096 1.973 2.34 2.61 3.784v.01c.03.067.064.13.085.196 0 .01.01.02.01.03.863-.15 1.64-.315 1.984-.638.066-.065.227-.216.15-.67v-.013zm-8.41-72.975a16.1 16.1 0 0 0-.55 2.77c.043-.118.086-.247.13-.376a9.048 9.048 0 0 1 1.034-2.07v-.04c-.022-.068-.054-.22-.15-.42a2.67 2.67 0 0 0-.292-.457 2.002 2.002 0 0 0-.54-.44 1.45 1.45 0 0 0-.42-.14s-.065-.01-.183-.024h-.01a8.06 8.06 0 0 0-.43.636c.41-.076.91.01 1.42.55zm-2.815 7.483c0 .022 0 .032.01.043.077.36.174.69.303 1.03.097.317.226.63.367.93.13-.215.27-.43.43-.624.077-.12.163-.226.25-.345-.745-.26-1.263-1.596-1.597-2.803.01.41.043.81.12 1.198.02.204.063.398.117.582zM15.21 66.292l-.055.01s-.01-.053-.043-.14a2.892 2.892 0 0 0-.108-.3 1.927 1.927 0 0 0-.755-.874 13.4 13.4 0 0 0-.9.485c.44.12.89.41 1.16 1.003-1.985 1.09-6.76 4.065-6.72 7.666.097-.248.226-.496.356-.744.14-.26.29-.518.453-.776a8.52 8.52 0 0 1 .344-.507c.053-.075.096-.15.15-.216.065-.08.12-.16.183-.23.84-1.09 1.92-2.11 3.237-3.03a7.3 7.3 0 0 1 .69-.49 20.857 20.857 0 0 1 1.52-.94c.14-.086.28-.162.42-.25.012-.063.023-.14.023-.192.01-.16 0-.248-.01-.345 0-.044-.01-.077 0-.11.01-.01.032-.02.043-.032z"/>
        <path class="st37" d="M22.983 86.1a12.37 12.37 0 0 1-.054-.755 7.134 7.134 0 0 0-.12-.917 8.39 8.39 0 0 0-1.21-2.63 6.826 6.826 0 0 0-2.98-2.45c-1.26-.527-2.828-.668-4.27-.225-1.47.4-2.817 1.305-3.85 2.49-.26.28-.498.583-.71.896s-.41.63-.586.98a10.31 10.31 0 0 0-.733 1.75c-.054.182-.11.376-.162.56-.043.205-.086.4-.13.604-.247 1.37-.247 2.782.087 4.13.205.863.53 1.693.98 2.437-.73.464-3.557 1.876-6.026-1.65.13.313.29.604.463.895 1.09 1.81 2.673 3.28 4.485 4.087.893.41 1.853.7 2.76.81.43.074.947.074 1.432.084.41 0 .905-.03 1.325-.097a11.46 11.46 0 0 0 3.116-.97 9.4 9.4 0 0 0 1.5-.918c.52-.39.98-.81 1.39-1.24a12.075 12.075 0 0 0 1.458-1.92c.28-.44.51-.873.704-1.294a65.9 65.9 0 0 0-2.44-.358c-.517-.077-1.034-.14-1.562-.227a1.4 1.4 0 0 1-.28.225 2.01 2.01 0 0 1-1.1.334c-.11 0-.194-.01-.334-.032-.086-.02-.162-.03-.29-.085a2.03 2.03 0 0 1-.594-.346 2.178 2.178 0 0 1-.56-.72 2.59 2.59 0 0 1-.163-.41 2.78 2.78 0 0 1-.126-.79c0-.18.01-.374.042-.57.054-.3.194-.68.377-.98a1.89 1.89 0 0 1 .17-.236 2.46 2.46 0 0 1 .713-.625 1.3 1.3 0 0 1 .356-.17 1.922 1.922 0 0 1 2.21.655c.01.01.02.03.03.042.876.15 1.77.27 2.677.386.57.078 1.152.15 1.723.24.045.01.078.01.12.022.01-.085.02-.16.02-.236-.01-.52.186-.79.13-.79z"/>
        <path class="st38" d="M27.34 64.32c0-.098 0-.184-.023-.27-.032-.324-.14-.497-.108-.497v-.022l-.06-.55a1.7 1.7 0 0 0-.02-.23 4.363 4.363 0 0 0-.07-.47c-.02-.15-.054-.3-.086-.474a6.71 6.71 0 0 0-.15-.7 6.285 6.285 0 0 0-.163-.562 4.18 4.18 0 0 0-.162-.484c-.28-.83-.7-1.76-1.337-2.708-.765-1.132-1.82-2.32-3.255-3.267a10.467 10.467 0 0 0-5.26-1.714c-1.9-.075-4.1.378-5.91 1.53-1.84 1.135-3.37 2.86-4.32 4.877-.5 1.004-.79 2.093-.995 3.193-.183 1.1-.173 2.295-.086 3.33.186 1.53.596 2.987 1.254 4.324.15-.194.315-.388.487-.582.04-.053.095-.107.14-.16a6.573 6.573 0 0 1-.26-.624c-.335-.937-.497-1.972-.57-2.932v-.062c-.034-1.1.02-2.06.235-3.062.227-.98.53-1.95 1.004-2.823.892-1.77 2.272-3.258 3.88-4.186a9.294 9.294 0 0 1 5.14-1.294c1.63.097 3.257.593 4.52 1.38a11.008 11.008 0 0 1 3.04 2.76c.572.755.982 1.51 1.273 2.2.096.216.172.42.25.625.054.14.1.27.14.4.1.27.162.518.22.755.082.332.15.623.18.86.01.1.032.185.043.26.032.25.065.41.076.465.042 0-.087.227-.087.637 0 .042.01.085.01.13.01.257 0 .56-.03.893a7.72 7.72 0 0 1-.164 1.164c-.02.14-.053.28-.085.42a9.858 9.858 0 0 1-.926 2.62c-.56 1.09-1.36 2.252-2.503 3.254-1.12.99-2.6 1.76-4.27 2.168l-.527.1a10.113 10.113 0 0 1 1.487 1.02 10.268 10.268 0 0 0 4.187-2.31 11.464 11.464 0 0 0 2.74-3.7c.594-1.25.874-2.426 1.004-3.396.077-.486.11-.928.12-1.316.02-.39.02-.714 0-.962z"/>
        <path class="st38" d="M15.802 66.627a3.822 3.822 0 0 0-.032-.29c-.01-.044-.01-.077-.032-.098-.022-.03-.075-.03-.075-.03l.075-.02s-.022-.22-.15-.58a2.646 2.646 0 0 0-.648-.97 3.376 3.376 0 0 0-.345-.27 1.89 1.89 0 0 0-.917-.3c-.065-.01-.13-.01-.194-.01a1.91 1.91 0 0 0-1.175.48 2.08 2.08 0 0 0-.45.54c.203-.13.41-.25.613-.358.884-.334 1.52.032 1.78.248l-.01.01c.4.24.634.606.753.875.054.13.086.224.11.3a1.1 1.1 0 0 1 .042.14l.053-.01c-.01.01-.033.02-.044.03-.01.033 0 .066 0 .11.01.096.022.182.01.344 0 .053-.01.13-.02.193h.01c-.03.333-.183 1.077-.71 1.66 0 .01-.01.01-.02.022-.26.15-.51.313-.746.474a.86.86 0 0 0 .16.01c.13 0 .217-.02.303-.03.13-.02.214-.054.32-.086a1.964 1.964 0 0 0 1.058-1.026 2.51 2.51 0 0 0 .28-1.22c0-.044-.01-.087-.01-.14v-.01zm-5.77 5.833c-.053.065-.107.14-.15.216-.054.065-.11.13-.15.205a6.986 6.986 0 0 0-.323.52c.18.19.35.34.55.49.28-.073.56-.13.84-.17.13-.01.26-.03.39-.053.15-.01.3-.032.45-.032a8.067 8.067 0 0 1-1.5-1.067c-.03-.034-.08-.067-.11-.1z"/>
        <path class="st39" d="M91.96 10.277c.83 3.05-1.015 4.54-1.597 4.928 3.483-1.833 1.596-4.928 1.596-4.928zm-13.576 5.165c-4.885-.712-14.912-1.66-18.007-1.94 3.364.387 14.988 1.908 19.96 2.522 5.81.722 8.884-.13 8.884-.13s-5.03.39-10.83-.452zm2.19 28.078c2.943 1.078 5.865 4.583 6.684 5.596h.043c-2.39-4.367-6.25-5.478-6.72-5.596zM73.76 3.504c1.725.073 10.996.672 17.078 5.263-.268-.3-4.717-5.062-17.077-5.263z"/>
        <path class="st39" d="M73.76 3.504a13.15 13.15 0 0 0-.282-.01c.098.002.186.01.283.01zM85.425 61.3c-1.93 1.92-9.09 3.742-9.09 3.742 6.254-.777 8.8-3.418 9.09-3.742zM56.71 39.918l8.357.065s-3.59-.852-8.356-.065zm4.573 24.152l-8.463-1.55c.387.14 3.632 1.262 8.463 1.553zM35.75 14.784s5.812-1.046 8.95-1.37c0 0-3.796-.258-8.95 1.37zm6.6 24.606s-5.38-.582-7.16-1.154c.27.15 2.727 1.467 7.16 1.154zM27.22 61.365l10.32-.604s-5.208-.41-10.32.61zM25.657 88.98c-4.42-.788-8.702-1.295-8.702-1.295s3.04.69 8.055 1.38c4.238.582 6.61 3.817 7.246 4.82-.614-1.003-2.868-4.248-6.6-4.906zm-1.434-66.206c-.356.54-2.22 3.742-.615 6.243 0 0-.636-3.892.615-6.243zm-17.22 51.8c0-.896.356-4.918 6.34-8.69-.388.182-6.857 3.31-6.34 8.69z"/>
        <path class="st40" d="M93.544 9.975c-1.014-2.156-3.105-3.914-6.21-5.23-4.67-1.96-9.89-2.468-14.504-2.92l-.345-.033-.172.313c-.356.625-.56 1.197-.625 1.682-.097.766.194 1.37.798 1.714.873.49 2.555.58 3.785.64l.61.05a24.82 24.82 0 0 1 10.807 3.33c1.208.7 3.073 2.307 2.437 3.84-.345.83-2.016 1.304-4.572 1.304-.506 0-.96-.022-1.336-.043-4.99-.29-9.8-.927-14.46-1.542-3.88-.516-7.62-1.012-11.406-1.313.033.098.055.217.066.357.03.195.052.44.074.745 3.69.3 7.346.786 11.13 1.28 4.67.626 9.51 1.26 14.536 1.554.4.02.874.043 1.403.043 3.147 0 5.024-.657 5.563-1.96.034-.066.056-.13.078-.195.68-2.016-1.142-3.936-2.964-5.003A26.13 26.13 0 0 0 76.95 5.1c-.173-.01-.388-.02-.625-.03-.992-.055-2.653-.14-3.31-.52a.47.47 0 0 1-.26-.366 1.1 1.1 0 0 1 0-.27c.033-.27.152-.604.335-.98 4.442.43 9.424.948 13.823 2.813 2.857 1.197 4.755 2.77 5.66 4.68.583 1.24.788 2.372.616 3.364a3.204 3.204 0 0 1-.35 1.06c-.68 1.29-2.18 2.18-4.23 2.51-.92.15-1.997.23-3.19.23-2.936 0-6.16-.45-8.996-.85-.615-.072-1.197-.16-1.758-.234-1.144-.15-2.287-.302-3.43-.464-3.246-.442-6.6-.895-9.92-1.23a171 171 0 0 0-2.857-.26 9.87 9.87 0 0 1-.12 1.07c.93.075 1.877.16 2.87.26 3.3.332 6.64.785 9.876 1.227 1.142.162 2.296.313 3.44.464.56.078 1.142.164 1.746.24 2.88.41 6.135.863 9.144.863 1.274 0 2.374-.086 3.377-.25 2.382-.386 4.15-1.475 4.99-3.07.788-1.498.713-3.353-.247-5.37zm-7.472 34.957c-.29-.27-.604-.528-.917-.766a1.693 1.693 0 0 0-.237-.173c-.108-.086-.216-.172-.323-.248h-.01a22.238 22.238 0 0 0-3.592-2.08c-.28-.14-.56-.26-.852-.39-.01 0-.01-.01-.02-.01-.58-.205-1.09.108-1.39.377a.602.602 0 0 0-.08.076l-.053.054-.032.032c.14.043.26.097.4.15.13.055.248.098.367.152.474.194.927.388 1.37.615.215.1.43.2.646.32a19.37 19.37 0 0 1 2.985 1.868l.324.226c.065.065.13.108.194.17.316.25.618.51.898.79a13.61 13.61 0 0 1 1.435 1.53c.39.474.733.97 1.035 1.49a7.3 7.3 0 0 1 1.306.117 14.204 14.204 0 0 0-1.495-2.286c-.57-.71-1.22-1.39-1.94-2.004zm1.1 16.692h-.01v.01c-.26.27-.54.53-.82.767-.41.36-.84.69-1.294 1a8.12 8.12 0 0 1-.766.487c-1.197.733-2.502 1.305-3.84 1.747-.16.065-.322.12-.484.173-.022.01-.054.01-.076.02-.27.086-.55.162-.82.237a24.37 24.37 0 0 1-3.115.634 1.66 1.66 0 0 1-.022.69c-.022.13-.043.26-.065.41 1.24-.162 2.512-.41 3.774-.755.28-.08.56-.164.83-.25.043-.01.075-.02.108-.03.173-.056.334-.12.496-.175 1.617-.56 3.18-1.294 4.55-2.232.323-.216.636-.442.938-.68 0 0 .01-.01.022-.01.464-.496.57-1.175.582-1.628.01-.065.01-.12.01-.162.012-.043 0-.076.023-.108.01-.01.043-.022.065-.032l-.075.01s0-.044-.01-.12zm-9.112-17.75v.023c.065.388.248 1.132.744 1.456.01.01.01.022.022.01.226.11.453.227.67.346h.01a15.64 15.64 0 0 1 3.29 2.32c.096.075.193.172.29.27a.4.4 0 0 1 .076.064l.237.237c.21.226.42.453.61.7.13.15.25.303.362.454a7.82 7.82 0 0 1 1.08-.332 10.764 10.764 0 0 0-.81-1.047c-.15-.17-.314-.344-.475-.517-.13-.13-.26-.26-.388-.377a.3.3 0 0 0-.11-.097 2.123 2.123 0 0 0-.28-.26 16.452 16.452 0 0 0-2.79-2.033c-.215-.12-.42-.247-.646-.355a14.637 14.637 0 0 0-1.08-.54 8.07 8.07 0 0 0-.82-.367h-.01l.01.01v.032zM76.012 63.62c.054.4.075.755.065 1.078.755-.108 1.488-.26 2.19-.442.3-.076.603-.162.883-.248.022 0 .032-.01.043-.022a3.17 3.17 0 0 0 .485-.162 16.695 16.695 0 0 0 3.634-1.693c.183-.11.367-.22.55-.34a4.65 4.65 0 0 0 .29-.215c.335-.237.648-.496.928-.766.27-.248.507-.518.722-.787v-.01a2.396 2.396 0 0 0-1.563.12c-.24.204-.5.41-.77.603a2.92 2.92 0 0 1-.22.16 16.353 16.353 0 0 1-4.348 2.06c-.01 0-.02.01-.03.01a12.75 12.75 0 0 1-.94.26c-.614.16-1.26.29-1.93.4zm-10.88-22.29a55.394 55.394 0 0 0-1.93-.064c-.334-.01-.68-.01-1.035-.01a.935.935 0 0 0-.248 0c-.12-.012-.24-.012-.37-.012h-.33c-.918 0-1.845.01-2.77.032-.25 0-.508.01-.756.022-.388.01-.766.01-1.143.022-.312.01-.624.022-.937.022.01.022.03.043.053.065.01.01.02.032.03.043 0 .01.01.022.023.032.206.313.626.787 1.263.917h.02a8.78 8.78 0 0 1 .637-.03c1.188-.03 2.396-.056 3.58-.056h.52c.074 0 .15 0 .224.01.38 0 .746 0 1.1.012.724.01 1.425.03 2.094.064-.023-.194-.033-.4-.044-.593 0-.162 0-.324.01-.485zm-2.965-3.137h-.302c-.13 0-.26-.01-.377 0-.356-.01-.7-.01-1.046-.01-.852 0-1.704.01-2.566.01-.453.01-.906.01-1.36.022h-.02c-.357.12-.605.377-.777.636a1.16 1.16 0 0 1-.1.14 1.47 1.47 0 0 0-.14.26c-.01.03-.01.04-.02.06h.11c.247 0 .484-.01.732-.01.506-.01 1.013-.01 1.51-.02h.68c.645-.01 1.292-.01 1.94-.01.387 0 .775 0 1.174.01h.367c.076 0 .15 0 .226.01.323-.01.647 0 .97.01a68.5 68.5 0 0 1 2.157.067c.045-.26.1-.506.164-.765.03-.097.054-.205.086-.302a107.36 107.36 0 0 0-2.64-.086c-.26 0-.52-.01-.78-.01zM61.1 62.626h-.01c-.27-.054-.55-.097-.82-.15-.302-.055-.604-.11-.906-.163-1.003-.183-2.016-.377-3.04-.56-.044-.012-.087-.012-.14-.023l-.368-.065c-.26-.054-.528-.097-.798-.14a99.95 99.95 0 0 0-2.61-.453c.012.313.023.474.023.474v.01c-.04 0 .08.217.08.616.75.12 1.49.26 2.25.388.226.043.453.076.69.12.13.03.27.053.41.074.022.01.054.01.086.01 1.067.206 2.146.4 3.235.605.033.01.077.01.11.02.29.05.58.11.87.16.44.07.874.16 1.316.23l.85.16h.02c-.15-.353-.55-1.1-1.24-1.324zm.15 3.31c-.485-.074-.96-.17-1.434-.26a28.855 28.855 0 0 1-.906-.17c-.873-.162-1.736-.334-2.6-.507a59.08 59.08 0 0 0-.818-.17h-.022l-.485-.1c-.173-.032-.334-.065-.507-.097-.722-.15-1.445-.28-2.178-.42-.01.117-.032.246-.065.375-.043.215-.097.452-.162.69.81.14 1.607.3 2.415.463.14.023.29.055.43.087.163.02.335.053.497.085.01 0 .01.01.022.01.226.044.442.087.67.13 1.13.226 2.274.453 3.417.67.4.075.798.14 1.208.215.604-.02 1.11-.58 1.326-.86h-.01c-.27-.044-.528-.1-.798-.15zm-17.327-51.25c-.29.023-.57.066-.852.098a46.84 46.84 0 0 0-3.15.528 3.964 3.964 0 0 0-.484.097c-.065.01-.14.02-.205.04a24.2 24.2 0 0 0-.917.2 29.6 29.6 0 0 0-2.414.645c.076.172.13.323.173.464l.193.54a33.905 33.905 0 0 1 2.384-.616c.29-.077.57-.14.862-.184a.386.386 0 0 1 .185-.042 3.45 3.45 0 0 1 .465-.097 44.163 44.163 0 0 1 3.7-.59 45.3 45.3 0 0 1 1.28-.14h.013c.506-.206.81-.648.96-.96v-.01c.02-.056.053-.1.074-.15.01-.02.02-.03.02-.055-.25.022-.487.032-.724.065a33.49 33.49 0 0 0-1.552.162zm-1.133 26.56a17.2 17.2 0 0 1-1.034-.098 31.02 31.02 0 0 1-1.003-.108.618.618 0 0 1-.14-.022 4.124 4.124 0 0 1-.367-.043 38.852 38.852 0 0 1-3.062-.54c-.26-.053-.528-.107-.787-.172a39.566 39.566 0 0 1-2.404-.658v-.01h-.022c0 .01.02.02.02.03.02.055.044.11.066.152a.97.97 0 0 0 .076.15c.15.346.43.777.895 1.09h.01c.378.108.756.205 1.133.29 1.252.292 2.492.53 3.71.69.13.023.26.044.388.055.023 0 .033.01.055.01.356.055.72.098 1.078.13.55.065 1.09.108 1.63.15a6.384 6.384 0 0 1-.16-.657 26.9 26.9 0 0 1-.067-.44zm-1.768-2.374l.334.032c.26.032.518.065.776.086.173.022.345.043.507.054 0-.15.01-.302.02-.442.02-.216.04-.42.07-.636-.17-.01-.337-.032-.51-.043l-.84-.097a3.538 3.538 0 0 1-.314-.043 4.124 4.124 0 0 1-.367-.043 39.616 39.616 0 0 1-3.503-.604 11.75 11.75 0 0 1-.658-.14c-.12-.032-.25-.054-.37-.097-.625-.06-1.09.12-1.402.36-.025 0-.057.02-.078.04h-.01a.75.75 0 0 0-.1.085.856.856 0 0 0-.172.162h.013c.227.064.465.13.7.193a94.2 94.2 0 0 0 1.166.29c.204.056.41.1.624.14.248.056.496.11.755.15a35.56 35.56 0 0 0 2.986.488v.01c.12.013.24.024.358.045zm-2.544 21.436c0-.022-.01-.032-.032-.043-.194-.334-.518-.733-.917-.863-.47-.01-.93-.022-1.4-.022-.227-.01-.454-.01-.68-.01-1.208 0-2.394.03-3.547.096-.03 0-.054 0-.086.01-.15 0-.29.012-.44.033-.26.01-.51.02-.768.05-1.403.11-2.76.27-4.11.48a4 4 0 0 1 .16.484c.066.194.12.377.163.56a49.8 49.8 0 0 1 3.677-.44c.206-.023.42-.033.637-.044a3.59 3.59 0 0 1 .485-.032c.01-.01.023-.01.044-.01a58.762 58.762 0 0 1 3.697-.12h.086c.27 0 .535 0 .805.01.445 0 .887.012 1.33.033.333 0 .67.01 1.002.034h.01c-.03-.056-.063-.13-.117-.196 0-.01-.01-.01-.01-.02zm-.938 2.19c-.442-.023-.884-.033-1.315-.044-.302-.01-.604-.022-.895-.01-.173-.012-.334-.012-.496-.012-1.12 0-2.21.032-3.267.097h-.022l-.518.03a5.7 5.7 0 0 0-.485.04 46.71 46.71 0 0 0-3.386.372c.043.367.054.55.054.55v.022c-.032 0 .076.172.108.495a53.42 53.42 0 0 1 3.375-.39c.14-.01.29-.02.43-.02a3.47 3.47 0 0 1 .497-.034c.01-.01.032-.01.043-.01a60.79 60.79 0 0 1 3.17-.087c.4 0 .798 0 1.197.02.388 0 .798.01 1.197.023.68-.15 1.078-.67 1.283-1.014h-.01a14.3 14.3 0 0 0-.96-.045zm.43-48.718c.335-.075.67-.14 1.015-.204a2.4 2.4 0 0 0 .237-.043c.162-.022.323-.054.496-.086a63.587 63.587 0 0 1 3.17-.453c.28-.032.57-.065.863-.086.54-.054 1.08-.108 1.64-.15.26-.023.52-.033.79-.055-.02-.043-.05-.097-.07-.15a2.683 2.683 0 0 0-.29-.368c-.01-.032-.032-.043-.054-.065h-.01a1.73 1.73 0 0 0-.324-.226l-.076-.032c-.024-.01-.045-.01-.067-.022a1.142 1.142 0 0 0-.4-.13c-.496.044-.98.087-1.466.14-1.27.13-2.49.292-3.654.486a7.536 7.536 0 0 0-.507.086c-.086.01-.173.022-.26.043-.366.065-.732.13-1.09.205-1.294.26-2.523.56-3.666.895.27.323.508.658.713.96.948-.28 1.96-.528 3.018-.744zM23.89 87.286c-.26-.043-.52-.086-.777-.12a2.462 2.462 0 0 0-.28-.042c-.043-.01-.075-.01-.12-.022-.57-.086-1.153-.162-1.724-.237-.91-.12-1.81-.237-2.68-.388a28.04 28.04 0 0 1-1.298-.226 1.59 1.59 0 0 0-.863.35c-.086.07-.173.13-.248.2-.087.065-.174.15-.25.25h.023c.355.095.71.17 1.066.246.434.097.876.17 1.318.248.225.033.452.077.69.11.69.107 1.39.193 2.09.29.603.086 1.196.162 1.79.26.01-.01.02-.01.03 0 .12.01.238.03.368.053.247.03.484.073.732.12 3.958.655 7.495 1.8 9.608 5.55.29.517.42.894.476 1.153v.01c.077.453-.085.604-.15.67-.345.322-1.12.484-1.984.635 0-.01-.01-.024-.01-.034a1.75 1.75 0 0 0-.086-.192v-.01c-.635-1.445-2.49-3.69-2.61-3.785-1.51-1.23-3.35-1.822-4.796-2.2a16.77 16.77 0 0 0-.786-.183 7.63 7.63 0 0 0-.722-.15c-.13-.034-.26-.056-.388-.078-.01-.01-.032-.01-.054-.01-.905-.164-1.8-.28-2.695-.4-.333-.044-.67-.087-1.013-.14a96.49 96.49 0 0 0-.666-.098 30.35 30.35 0 0 1-1.692-.304 22.71 22.71 0 0 1-.915-.216c0 .068.01.154.032.25a.2.2 0 0 0 .022.077v.01c.063.335.246.734.656.94l.173.03c.01 0 .03 0 .052.01a.29.29 0 0 0 .098.02c.08.01.165.03.24.04h.01c.43.088.874.15 1.306.218.53.085 1.047.15 1.564.225.797.11 1.616.218 2.436.358.023 0 .055.01.087.02.13.02.27.044.4.076.243.032.48.086.73.15.29.055.57.12.85.195 1.994.518 3.342 1.143 4.4 1.984.332.303 1.572 2.028 2.144 3.04 0 0 .01.013.023.045.076.183.41.97.52 1.337l.29-.065h.012l.324-.054c1.176-.207 2.19-.38 2.804-.96 1.066-1.026.16-2.62-.13-3.15-2.35-4.163-6.286-5.414-10.426-6.104zm1.972-58.463a6.96 6.96 0 0 1-.205-2.103 6.96 6.96 0 0 1 .43-2.006c.023-.054.033-.097.066-.15.15-.702 0-1.64-.076-2.007v-.107c.01-.012.032-.023.043-.033l-.054.01-.01-.01a9.088 9.088 0 0 0-1.036 2.07c-.043.13-.086.26-.13.377-.042.172-.085.334-.118.496-.108.43-.172.863-.194 1.294a8.2 8.2 0 0 0 .377 2.922c.293-.268.594-.527.907-.753zm-4.475.087c0 .02 0 .03.01.042.044.367.11.712.195 1.046.237.96.593 1.865 1.068 2.717.194-.4.4-.776.647-1.143a7.597 7.597 0 0 1-.367-.927 6.702 6.702 0 0 1-.302-1.024c-.01-.01-.01-.02-.01-.04a3.295 3.295 0 0 1-.12-.58 7.226 7.226 0 0 1-.12-1.192v-.022c-.053-.95.044-1.96.292-3.02l.097-.354a8.08 8.08 0 0 1 .377-1.132 11.3 11.3 0 0 1 .873-1.724c.13-.217.28-.43.43-.637v-.02c-.366-.032-1.196-.022-1.735.712a10.78 10.78 0 0 0-.55 1.184v.01c-.226.55-.4 1.122-.54 1.705-.312 1.33-.41 2.58-.322 3.76.023.225.045.44.077.645zm-6.652 38.31c-.237.13-.474.27-.7.41-.28.173-.55.345-.82.528a7.3 7.3 0 0 0-.69.485c-1.316.927-2.395 1.94-3.236 3.03-.07.076-.12.15-.19.226-.057.06-.1.14-.15.21-.12.16-.24.33-.35.503-.162.26-.313.52-.453.776-.13.25-.26.496-.356.744a8.56 8.56 0 0 0-.257.65c.02-.013.03-.024.053-.034.086-.04.162-.084.25-.12a9.363 9.363 0 0 1 1.13-.47l.13-.26c.086-.17.183-.345.29-.507h.01a7.34 7.34 0 0 1 .325-.518c.044-.077.098-.14.15-.207a1.67 1.67 0 0 1 .153-.217c.916-1.196 2.123-2.296 3.654-3.33.238-.16.486-.32.745-.473.012-.01.023-.01.023-.02.53-.58.68-1.326.71-1.66h-.01c-.14.087-.28.162-.42.25zm-7.02 2.717c.086-.097.162-.194.248-.28 1.035-1.175 2.243-2.19 3.547-3.062.28-.194.56-.377.852-.55.323-.194.658-.388.992-.57.29-.174.593-.335.895-.486l.01-.02c-.26-.217-.9-.58-1.78-.25a8.44 8.44 0 0 0-.62.356c-1.588.98-3.098 2.135-4.38 3.494-.098.097-.184.194-.27.29-.044.055-.098.11-.14.163a11.32 11.32 0 0 0-.486.58c-1.434 1.79-2.47 3.904-2.847 6.384a11.8 11.8 0 0 0-.13 2.094c.335-.44.713-.862 1.112-1.25.02-.216.053-.442.085-.67.064-.43.15-.85.27-1.26.41-1.595 1.13-3.007 2.07-4.26.13-.18.27-.365.42-.537l.14-.174z"/>
        <path class="st41" d="M9.235 80.784s-5.693 2.588-2.793 9.38c-.064-.495-.84-6.264 2.793-9.38z"/>
        <path class="st42" d="M92.574 10.428c-.906-1.91-2.803-3.483-5.66-4.68-4.4-1.865-9.382-2.383-13.824-2.814-.183.377-.302.712-.334.98a1.1 1.1 0 0 0 0 .27c2.88.033 14.718.52 18.708 6.75 0 0 .68 1.478-.28 2.643-.022.065-.043.13-.076.194-.54 1.31-2.415 1.97-5.564 1.97-.528 0-1.003-.02-1.402-.04-5.025-.29-9.866-.927-14.535-1.553-3.785-.495-7.44-.98-11.128-1.282 0 .044.01.087.01.14.01.27.02.56.01.885 7.91.55 14.63 1.81 23.84 3.072 6.67.92 9.68-1.637 10.84-3.157.172-.993-.03-2.125-.615-3.365zM73.76 3.504c12.36.2 16.81 4.964 17.078 5.263-6.083-4.59-15.353-5.19-17.077-5.263zm6.576 12.52c-4.97-.615-16.594-2.135-19.96-2.523 3.096.28 13.123 1.23 18.008 1.95 5.8.84 10.836.454 10.836.454s-3.073.85-8.884.13zm10.027-.82c.582-.387 2.426-1.875 1.596-4.927 0 0 1.88 3.095-1.6 4.928zm-4.625 30.882c-.28-.28-.582-.54-.895-.787-.065-.07-.13-.11-.194-.18l-.33-.228c-.898-.69-1.9-1.305-2.99-1.865a8.698 8.698 0 0 0-.648-.313 18.35 18.35 0 0 0-1.37-.616c-.67.453-.71 1.12-.57 1.693h.01c1.63.477 5.553 1.92 7.71 5.416h.01c.26-.044.52-.076.777-.098-.82-1.014-3.74-4.518-6.685-5.596.473.12 4.334 1.23 6.727 5.596.066-.01.12-.01.184-.01a7.9 7.9 0 0 1 .722 0 11.458 11.458 0 0 0-1.037-1.49 13.82 13.82 0 0 0-1.433-1.53zm1.422 15.538h.012v-.01c0-.033-.01-.066-.022-.11 0 .033 0 .066.01.12zm-2.08-.82a8.17 8.17 0 0 1-.927.766c-.097.076-.194.15-.29.216-.184.12-.368.237-.55.345a16.66 16.66 0 0 1-3.635 1.7 3.17 3.17 0 0 1-.485.16c-.01.01-.022.02-.043.02a20.554 20.554 0 0 1-3.074.69v.18c0 .36-.01.65-.03.89 5.92-1.09 8.808-3.04 10.102-4.27-.26-.496-.734-.65-1.068-.69zm-8.745 4.238s7.16-1.822 9.09-3.742c-.29.324-2.836 2.965-9.09 3.742zm2.19-23.204l.03-.032h-.01c-.01.01-.02.02-.02.032zM62.21 39.282c-.076-.01-.15-.01-.226-.01h-.367c-.4-.012-.787-.012-1.175-.012-.647 0-1.294 0-1.94.01h-.68c-.496.012-1.003.012-1.51.023-.216.302-.388.733-.26 1.218l9.123.16c.032-.43.086-.872.162-1.304a75.032 75.032 0 0 0-2.157-.065c-.323-.01-.646-.02-.97-.01zm-5.5.636c4.767-.787 8.357.065 8.357.065l-8.356-.065zm3.44 23.636l-.872-.162c-.032-.01-.076-.01-.108-.022-1.09-.205-2.167-.4-3.235-.604-.032 0-.065 0-.086-.01-.14-.023-.28-.044-.41-.076-.24-.043-.47-.076-.69-.12-.76-.128-1.5-.27-2.25-.387 0 .054-.01.108-.01.162.01.248-.01.56-.07.96 0 .054-.01.12-.022.183 2.74.852 7.03 1.52 9.22 1.822a1.618 1.618 0 0 0-.163-1.51c-.44-.075-.87-.16-1.314-.236zm-7.33-1.036l8.463 1.553c-4.83-.29-8.076-1.41-8.464-1.55zm-9.07-49.61c-.29.022-.582.054-.863.086-1.1.13-2.157.28-3.17.453-.172.032-.334.065-.496.086-.08.022-.16.032-.23.043-.342.065-.68.13-1.01.205-1.057.22-2.07.47-3.02.75.066.12.14.24.206.35.205.345.388.66.507.95 2.987-1.11 7.753-1.76 9.94-2.028a2.14 2.14 0 0 0-.215-1.035c-.56.044-1.1.098-1.64.15zm-8 1.876c5.154-1.628 8.95-1.37 8.95-1.37-3.138.324-8.95 1.37-8.95 1.37zm6.383 24.206a20.22 20.22 0 0 1-.776-.085 37.7 37.7 0 0 0-.334-.032c-.12-.022-.237-.032-.356-.043v-.01a35.98 35.98 0 0 1-2.987-.486c-.26-.043-.507-.097-.755-.15a10.24 10.24 0 0 1-.625-.14c-.4-.098-.787-.195-1.164-.292-.313.15-.7.485-.69 1.186 1.92.496 6.092 1.51 8.238 1.402-.043-.43-.054-.863-.043-1.294a9.816 9.816 0 0 1-.5-.055zm-6.944-.754c1.77.57 7.16 1.154 7.16 1.154-4.44.313-6.89-1.003-7.16-1.154zm1.07 22.224c-.27-.012-.54-.012-.81-.012h-.087c-1.26 0-2.49.043-3.698.12-.023 0-.033 0-.044.01-.16 0-.32.01-.483.032-.217.01-.43.022-.637.043a49.8 49.8 0 0 0-3.673.442c.064.248.12.485.15.7.032.174.065.324.086.475 2.383-.615 8.497-.636 10.966-.615.12-.518-.15-.906-.445-1.165a29.41 29.41 0 0 0-1.328-.03zm-9.048.905c5.112-1.014 10.32-.604 10.32-.604l-10.32.61zm6.77-21.77c-.02-.032-.03-.065-.042-.097 0 .032.01.065.02.097h.02zm-10.22 48.77c-.248-.044-.485-.087-.733-.12-.13-.02-.248-.043-.367-.054-.01-.01-.022-.01-.032 0-.592-.09-1.185-.17-1.79-.25-.7-.096-1.4-.182-2.09-.29-.238-.032-.465-.076-.69-.11-.443-.074-.885-.15-1.316-.246-.28.226-.59.615-.59 1.197 2.113.237 7.386.84 9.26 1.27 2.115.486 5.77 2.23 6.256 5.446.1-.25.27-.474.584-.604.82-.356 1.347-.065 1.595.474-.055-.26-.184-.638-.475-1.156-2.115-3.75-5.65-4.893-9.61-5.55zm1.24.7c-5.014-.69-8.055-1.38-8.055-1.38s4.28.507 8.702 1.294c3.73.65 5.983 3.9 6.6 4.9-.638-1.007-3.01-4.24-7.248-4.82zM23.986 30.6l.01-.01c.11-.13.227-.27.346-.39.032-.042.076-.085.108-.128.14-.15.28-.28.42-.41a.317.317 0 0 1 .086-.086 8.2 8.2 0 0 1-.377-2.922c.02-.43.08-.863.19-1.294.03-.162.07-.323.12-.496a16.1 16.1 0 0 1 .55-2.77c-.51-.54-1.01-.626-1.42-.55a11.08 11.08 0 0 0-.873 1.724 8.21 8.21 0 0 0-.377 1.132l-.097.356c-.25 1.057-.346 2.07-.29 3.02v.02c.33 1.208.85 2.545 1.592 2.804zm.237-7.828c-1.25 2.35-.615 6.243-.615 6.243-1.606-2.5.26-5.704.615-6.243zM15.65 87.06a.08.08 0 0 0-.02.043.282.282 0 0 0 .053-.065h-.022c.01.01.01.01-.01.022zm-2.296-21.587c-.334.183-.67.377-.992.57-.29.173-.57.357-.852.55-1.305.874-2.512 1.888-3.547 3.063-.086.086-.162.183-.248.28l-.14.172c-.15.173-.29.356-.42.54-.938 1.25-1.66 2.662-2.07 4.258-.12.41-.205.83-.27 1.262-.032.226-.065.453-.086.67a7.16 7.16 0 0 1 .51-.475c.7-.625 1.475-1.165 2.295-1.574a7.82 7.82 0 0 1 .26-.65c-.044-3.6 4.733-6.58 6.717-7.67a1.752 1.752 0 0 0-1.167-1.006zm-6.35 9.1c-.52-5.38 5.95-8.507 6.34-8.69-5.985 3.773-6.34 7.795-6.34 8.69z"/>
        <path class="st43" d="M23.846 86.132v-.01s-.01-.292-.022-.83c.01-.27-.022-.605-.075-.993a8.878 8.878 0 0 0-.22-1.34 11.884 11.884 0 0 0-1.29-3.42c-.67-1.21-1.617-2.48-2.954-3.55-.043-.045-.086-.077-.14-.12a10.26 10.26 0 0 0-1.348-.907 5.09 5.09 0 0 0-.68-.345 10.408 10.408 0 0 0-3.28-.96 10.72 10.72 0 0 0-2.21-.043c-.15 0-.3.02-.45.03a4.82 4.82 0 0 1-.39.055 7.59 7.59 0 0 0-.84.17 8.397 8.397 0 0 0-.98.28c-.377.13-.766.29-1.132.475-.086.033-.16.077-.248.12-.023.01-.033.02-.055.03-.82.41-1.597.95-2.298 1.576-.184.15-.357.315-.52.476-.4.39-.776.81-1.11 1.25a12.99 12.99 0 0 0-.896 1.35c-.595.992-.98 2.103-1.285 3.224-.29 1.12-.378 2.36-.39 3.43.087 2.37.723 4.623 1.9 6.574 1.16 1.963 2.83 3.57 4.77 4.594.97.506 1.973.883 3.062 1.077.55.12 1.035.14 1.53.185.562.01 1.047-.01 1.564-.065 2.028-.236 3.86-1.045 5.263-2.134s2.444-2.36 3.144-3.61c.323-.58.593-1.143.798-1.693a5.782 5.782 0 0 0-.733-.15c-.13-.032-.27-.054-.4-.075a.328.328 0 0 0-.085-.023c-.194.42-.42.852-.7 1.294a11.956 11.956 0 0 1-1.457 1.92c-.41.43-.873.852-1.39 1.24a9.44 9.44 0 0 1-1.5.917 11.34 11.34 0 0 1-3.116.97 9.25 9.25 0 0 1-1.327.1c-.484-.01-1.002-.01-1.433-.084-.907-.11-1.866-.4-2.76-.81-1.813-.81-3.398-2.275-4.487-4.087a7.154 7.154 0 0 1-.463-.897 12.065 12.065 0 0 1-.744-2.037c-.27-1.025-.345-2.136-.345-3.15.056-1.153.185-2.134.498-3.158.32-.98.7-1.955 1.26-2.806a.07.07 0 0 1 .022-.043c.26-.42.54-.82.862-1.196a10.73 10.73 0 0 1 2.275-2.09 9.51 9.51 0 0 1 1.21-.68c.01-.01.02-.02.03-.02a9.647 9.647 0 0 1 3.645-.97 8.9 8.9 0 0 1 1.78.053c1.184.173 2.35.55 3.373 1.1h.01c.422.205.82.453 1.176.72a11.198 11.198 0 0 1 2.91 3.106c.7 1.09 1.1 2.156 1.35 3.05.13.454.215.864.27 1.22a7.7 7.7 0 0 1 .12.916c.02.42.042.68.053.754.053 0-.14.27-.13.79 0 .075-.01.15-.02.236.095.01.18.024.28.045.26.03.516.074.774.12.01-.13.01-.24.01-.347.054-.517-.108-.808-.054-.808z"/>
        <path class="st43" d="M15.425 87.48c.032-.065.054-.14.097-.216l.108-.162c0-.01.01-.032.022-.043s.01-.02.01-.03a1.36 1.36 0 0 1 .25-.25c.074-.066.16-.13.247-.195a1.57 1.57 0 0 1 .86-.345c.43.087.86.163 1.29.227-.01-.01-.02-.03-.03-.043a1.922 1.922 0 0 0-2.21-.658 1.35 1.35 0 0 0-.36.172 2.45 2.45 0 0 0-.71.623 1.66 1.66 0 0 0-.17.24 3.09 3.09 0 0 0-.378.98 3.52 3.52 0 0 0-.043.57c.01.27.045.53.13.79.044.14.1.28.16.41.14.28.326.528.564.72.183.15.367.26.593.347.128.055.204.066.29.087.14.024.226.034.334.034.42 0 .81-.14 1.1-.334.11-.063.197-.14.28-.224-.43-.066-.87-.13-1.302-.217h-.055c-.054-.013-.14-.024-.172-.034-.01 0-.01 0-.02-.01a.257.257 0 0 1-.095-.025c-.022-.01-.043-.01-.054-.01l-.173-.033c-.41-.205-.596-.604-.66-.938v-.01a.2.2 0 0 1-.025-.078 1.167 1.167 0 0 1-.032-.248c-.01-.13-.01-.206-.01-.206-.012-.14 0-.28.02-.41a2.51 2.51 0 0 1 .14-.494z"/>
    </g>
</svg>