<svg xmlns="http://www.w3.org/2000/svg" class="Layer_2" x="0px" y="0px" viewBox="-10 -10 399.47749196838436 399.1" enable-background="new 0 0 387 387" xml:space="preserve" height="100%" width="100%" id="yui_3_14_0_1_1508756192488_928">
	 <defs>
		<linearGradient id="hourBorder" gradientUnits="userSpaceOnUse" x1="0%" y1="0%" x2="0%" y2="100%">
			<stop stop-color="#FFFFFF" offset="0.85"></stop>
			<stop stop-color="#DDDDDD" offset="1"></stop>
		</linearGradient>
		<filter id="f1" x="-50%" y="-50%" width="200%" height="200%">
			<feGaussianBlur in="SourceGraphic" stdDeviation="1"></feGaussianBlur>
		</filter>
		<clipPath id="myClip">
            <rect x="20" y="20" width="60" height="60"></rect>
		</clipPath>
	 </defs>
<circle class="clockBoundary" fill="none" stroke="#F7B2E6" stroke-width="14.2909" stroke-miterlimit="10" cx="193.2" cy="193.1" r="186" id="yui_3_14_0_1_1508756192488_946"></circle>
<g class="Fourth_qtr">
	<g class="mark45">
		<rect x="21" y="189.2" fill="#7A8391" width="7.5" height="7.5"></rect>
	</g>
	<g class="mark46">
		<circle fill="#7A8391" cx="25.8" cy="175.4" r="2.3"></circle>
	</g>
	<g class="mark47">
		<circle fill="#7A8391" cx="28.6" cy="158" r="2.3"></circle>
	</g>
	<g class="mark48">
		<circle fill="#7A8391" cx="33.4" cy="141.1" r="2.3"></circle>
	</g>
	<g class="mark49">
		<path fill="#7A8391" d="M40.6,122.6c-1.2-0.5-2.5,0-3.1,1.2c-0.5,1.2,0,2.5,1.2,3.1c1.2,0.5,2.5,0,3.1-1.2
			C42.3,124.5,41.8,123.1,40.6,122.6z"></path>
	</g>
	<g class="mark50">

			<rect x="43.6" y="105.2" transform="matrix(0.4999 -0.8661 0.8661 0.4999 -70.705 95.5458)" fill="#7A8391" width="7.5" height="7.5"></rect>
	</g>
	<g class="mark51">
		<path fill="#7A8391" d="M58.5,92.3c-1-0.8-2.5-0.5-3.2,0.5c-0.8,1-0.5,2.5,0.5,3.2c1,0.8,2.5,0.5,3.2-0.5
			C59.8,94.5,59.5,93.1,58.5,92.3z"></path>
	</g>
	<g class="mark52">
		<circle fill="#7A8391" cx="68.3" cy="80.6" r="2.3"></circle>
	</g>
	<g class="mark53">
		<circle fill="#7A8391" cx="80.7" cy="68.2" r="2.3"></circle>
	</g>
	<g class="mark54">
		<path fill="#7A8391" d="M96.3,55.6c-0.8-1-2.2-1.3-3.2-0.5c-1,0.8-1.3,2.2-0.5,3.2c0.8,1,2.2,1.3,3.2,0.5
			C96.8,58.1,97,56.7,96.3,55.6z"></path>
	</g>
	<g class="mark55">
		<rect x="105.5" y="43.6" transform="matrix(0.866 -0.5 0.5 0.866 -9.0315 60.9524)" fill="#7A8391" width="7.5" height="7.5"></rect>
	</g>
	<g class="mark56">
		<circle fill="#7A8391" cx="124.8" cy="39.5" r="2.3"></circle>
	</g>
	<g class="mark57">
		<circle fill="#7A8391" cx="141.1" cy="33.3" r="2.3"></circle>
	</g>
	<g class="mark58">
		<circle fill="#7A8391" cx="158.2" cy="28.6" r="2.3"></circle>
	</g>
	<g class="mark59">
		<circle fill="#7A8391" cx="175.6" cy="25.9" r="2.3"></circle>
	</g>
</g>
<g class="Third_qtr">
	<g class="mark45">
		<rect x="21" y="189.3" fill="#7A8391" width="7.5" height="7.5"></rect>
	</g>
	<g class="mark44">
		<circle fill="#7A8391" cx="25.8" cy="210.7" r="2.3"></circle>
	</g>
	<g class="mark43">
		<circle fill="#7A8391" cx="28.6" cy="228.1" r="2.3"></circle>
	</g>
	<g class="mark42">
		<circle fill="#7A8391" cx="33.4" cy="245" r="2.3"></circle>
	</g>
	<g class="mark41">
		<path fill="#7A8391" d="M40.6,263.4c-1.2,0.5-2.5,0-3.1-1.2c-0.5-1.2,0-2.5,1.2-3.1c1.2-0.5,2.5,0,3.1,1.2
			C42.3,261.5,41.8,262.9,40.6,263.4z"></path>
	</g>
	<g class="mark40">

			<rect x="43.6" y="273.3" transform="matrix(0.4999 0.8661 -0.8661 0.4999 263.6294 97.4966)" fill="#7A8391" width="7.5" height="7.5"></rect>
	</g>
	<g class="mark39">
		<path fill="#7A8391" d="M58.5,293.7c-1,0.8-2.5,0.5-3.2-0.5c-0.8-1-0.5-2.5,0.5-3.2c1-0.8,2.5-0.5,3.2,0.5
			C59.8,291.5,59.5,293,58.5,293.7z"></path>
	</g>
	<g class="mark38">
		<circle fill="#7A8391" cx="68.3" cy="305.4" r="2.3"></circle>
	</g>
	<g class="mark37">
		<circle fill="#7A8391" cx="80.7" cy="317.8" r="2.3"></circle>
	</g>
	<g class="mark36">
		<path fill="#7A8391" d="M96.3,330.4c-0.8,1-2.2,1.3-3.2,0.5c-1-0.8-1.3-2.2-0.5-3.2c0.8-1,2.2-1.3,3.2-0.5
			C96.8,327.9,97,329.4,96.3,330.4z"></path>
	</g>
	<g class="mark35">
		<rect x="105.5" y="335" transform="matrix(0.866 0.5 -0.5 0.866 183.9876 -9.2336)" fill="#7A8391" width="7.5" height="7.5"></rect>
	</g>
	<g class="mark34">
		<circle fill="#7A8391" cx="124.8" cy="346.6" r="2.3"></circle>
	</g>
	<g class="mark33">
		<circle fill="#7A8391" cx="141.1" cy="352.7" r="2.3"></circle>
	</g>
	<g class="mark32">
		<circle fill="#7A8391" cx="158.2" cy="357.4" r="2.3"></circle>
	</g>
	<g class="mark31">
		<circle fill="#7A8391" cx="175.6" cy="360.2" r="2.3"></circle>
	</g>
</g>
<g class="Second_qtr">
	<g class="mark16">
		<circle fill="#7A8391" cx="360.5" cy="210.7" r="2.3"></circle>
	</g>
	<g class="mark17">
		<circle fill="#7A8391" cx="357.7" cy="228.1" r="2.3"></circle>
	</g>
	<g class="mark18">
		<circle fill="#7A8391" cx="352.9" cy="245" r="2.3"></circle>
	</g>
	<g class="mark19">
		<path fill="#7A8391" d="M345.7,263.4c1.2,0.5,2.5,0,3.1-1.2c0.5-1.2,0-2.5-1.2-3.1c-1.2-0.5-2.5,0-3.1,1.2
			C344,261.5,344.5,262.9,345.7,263.4z"></path>
	</g>
	<g class="mark20">

			<rect x="335.1" y="273.3" transform="matrix(-0.4999 0.8661 -0.8661 -0.4999 748.2562 122.0441)" fill="#7A8391" width="7.5" height="7.5"></rect>
	</g>
	<g class="mark21">
		<path fill="#7A8391" d="M327.8,293.7c1,0.8,2.5,0.5,3.2-0.5c0.8-1,0.5-2.5-0.5-3.2c-1-0.8-2.5-0.5-3.2,0.5
			C326.5,291.5,326.7,293,327.8,293.7z"></path>
	</g>
	<g class="mark22">
		<circle fill="#7A8391" cx="318" cy="305.4" r="2.3"></circle>
	</g>
	<g class="mark23">
		<circle fill="#7A8391" cx="305.6" cy="317.8" r="2.3"></circle>
	</g>
	<g class="mark24">
		<path fill="#7A8391" d="M290,330.4c0.8,1,2.2,1.3,3.2,0.5c1-0.8,1.3-2.2,0.5-3.2c-0.8-1-2.2-1.3-3.2-0.5
			C289.5,327.9,289.3,329.4,290,330.4z"></path>
	</g>
	<g class="mark25">
		<rect x="273.3" y="335" transform="matrix(-0.866 0.5 -0.5 -0.866 686.3503 493.5194)" fill="#7A8391" width="7.5" height="7.5"></rect>
	</g>
	<g class="mark26">
		<circle fill="#7A8391" cx="261.5" cy="346.6" r="2.3"></circle>
	</g>
	<g class="mark27">
		<circle fill="#7A8391" cx="245.1" cy="352.7" r="2.3"></circle>
	</g>
	<g class="mark28">
		<circle fill="#7A8391" cx="228.1" cy="357.4" r="2.3"></circle>
	</g>
	<g class="mark29">
		<circle fill="#7A8391" cx="210.7" cy="360.2" r="2.3"></circle>
	</g>
	<g class="mark30">
		<rect x="189.5" y="357.9" fill="#7A8391" width="7.5" height="7.5"></rect>
	</g>
</g>
<g class="First_qtr">
	<g class="mark15">
		<rect x="357.8" y="189.2" fill="#7A8391" width="7.5" height="7.5"></rect>
	</g>
	<g class="mark14">
		<circle fill="#7A8391" cx="360.5" cy="175.4" r="2.3"></circle>
	</g>
	<g class="mark13">
		<circle fill="#7A8391" cx="357.7" cy="158" r="2.3"></circle>
	</g>
	<g class="mark12">
		<circle fill="#7A8391" cx="352.9" cy="141.1" r="2.3"></circle>
	</g>
	<g class="mark11">
		<path fill="#7A8391" d="M345.7,122.6c1.2-0.5,2.5,0,3.1,1.2c0.5,1.2,0,2.5-1.2,3.1c-1.2,0.5-2.5,0-3.1-1.2
			C344,124.5,344.5,123.1,345.7,122.6z"></path>
	</g>
	<g class="mark10">

			<rect x="335.1" y="105.2" transform="matrix(-0.4999 -0.8661 0.8661 -0.4999 413.9218 456.9969)" fill="#7A8391" width="7.5" height="7.5"></rect>
	</g>
	<g class="mark9">
		<path fill="#7A8391" d="M327.8,92.3c1-0.8,2.5-0.5,3.2,0.5c0.8,1,0.5,2.5-0.5,3.2c-1,0.8-2.5,0.5-3.2-0.5
			C326.5,94.5,326.7,93.1,327.8,92.3z"></path>
	</g>
	<g class="mark8">
		<circle fill="#7A8391" cx="318" cy="80.6" r="2.3"></circle>
	</g>
	<g class="mark7">
		<circle fill="#7A8391" cx="305.6" cy="68.2" r="2.3"></circle>
	</g>
	<g class="mark6">
		<path fill="#7A8391" d="M290,55.6c0.8-1,2.2-1.3,3.2-0.5c1,0.8,1.3,2.2,0.5,3.2c-0.8,1-2.2,1.3-3.2,0.5
			C289.5,58.1,289.3,56.7,290,55.6z"></path>
	</g>
	<g class="mark5">

			<rect x="273.3" y="43.6" transform="matrix(-0.866 -0.5 0.5 -0.866 493.3311 226.8452)" fill="#7A8391" width="7.5" height="7.5"></rect>
	</g>
	<g class="mark4">
		<circle fill="#7A8391" cx="261.5" cy="39.5" r="2.3"></circle>
	</g>
	<g class="mark3">
		<circle fill="#7A8391" cx="245.1" cy="33.3" r="2.3"></circle>
	</g>
	<g class="mark2">
		<circle fill="#7A8391" cx="228.1" cy="28.6" r="2.3"></circle>
	</g>
	<g class="mark1">
		<circle fill="#7A8391" cx="210.7" cy="25.9" r="2.3"></circle>
	</g>
	<g class="mark0">
		<rect x="189.5" y="21.6" fill="#7A8391" width="7.5" height="7.5"></rect>
	</g>
</g>
<g class="numbers" id="yui_3_14_0_1_1508756192488_927">
	<g class="number12">
		<path fill="#231F20" d="M179.5,49.4h-5.6l2.7-4.6h7.8v32.4h-4.9V49.4z"></path>
		<path fill="#231F20" d="M201.8,72.6h12.1v4.6h-21.8l11.3-13.6c1.1-1.4,2-2.5,2.8-3.5c0.7-1,1.3-1.8,1.7-2.5
			c0.8-1.3,1.2-2.5,1.2-3.5c0-1.5-0.5-2.8-1.6-3.8c-1.1-1-2.4-1.5-3.9-1.5c-3.3,0-5.2,1.9-5.6,5.8H193c0.8-6.8,4.2-10.2,10.4-10.2
			c3,0,5.4,0.9,7.4,2.8c2,1.9,3,4.2,3,7c0,1.8-0.5,3.5-1.4,5.2c-0.5,0.9-1.2,1.9-2.1,3.1c-0.9,1.2-2.1,2.6-3.5,4.3L201.8,72.6z"></path>
	</g>
	<g class="number1" id="yui_3_14_0_1_1508756192488_926">
		<path fill="#231F20" d="M262.4,69.7h-5.6l2.7-4.6h7.8v32.4h-4.9V69.7z" id="yui_3_14_0_1_1508756192488_925"></path>
	</g>
	<g class="number2">
		<path fill="#231F20" d="M308.2,138.6h12.1v4.6h-21.8l11.3-13.6c1.1-1.4,2-2.5,2.8-3.5c0.7-1,1.3-1.8,1.7-2.5
			c0.8-1.3,1.2-2.5,1.2-3.5c0-1.5-0.5-2.8-1.6-3.8c-1.1-1-2.4-1.5-3.9-1.5c-3.3,0-5.2,1.9-5.6,5.8h-4.9c0.8-6.8,4.2-10.2,10.4-10.2
			c3,0,5.4,0.9,7.4,2.8c2,1.9,3,4.2,3,7c0,1.8-0.5,3.5-1.4,5.2c-0.5,0.9-1.2,1.9-2.1,3.1c-0.9,1.2-2.1,2.6-3.5,4.3L308.2,138.6z"></path>
	</g>
	<g class="number3">
		<path fill="#231F20" d="M329.5,194.8v-4.2c2.1,0,3.5-0.2,4.2-0.7c1.3-0.8,1.9-2.1,1.9-3.9c0-1.4-0.5-2.5-1.4-3.4
			c-0.9-0.9-2.1-1.3-3.5-1.3c-1.4,0-2.4,0.3-3.1,1c-0.7,0.7-1.2,1.8-1.6,3.4h-4.9c0.5-3.1,1.5-5.3,3.1-6.7c1.6-1.4,3.8-2.1,6.6-2.1
			c2.8,0,5.2,0.8,6.9,2.5c1.8,1.7,2.7,3.8,2.7,6.4c0,3-1.2,5.3-3.5,6.9c2.7,1.6,4.1,4.1,4.1,7.7c0,2.9-1,5.3-3,7.1s-4.5,2.8-7.5,2.8
			c-3.9,0-6.8-1.4-8.7-4.3c-0.8-1.2-1.3-2.9-1.5-5h4.7c0.3,1.6,0.9,2.8,1.8,3.6c1,0.8,2.2,1.2,3.8,1.2c1.6,0,2.9-0.5,3.9-1.6
			c1-1.1,1.6-2.4,1.6-4.1c0-2.2-0.8-3.7-2.3-4.7C332.9,195.1,331.4,194.8,329.5,194.8z"></path>
	</g>
	<g class="number9">
		<path fill="#231F20" d="M53.7,211l-3.6-2.7l7.7-10.6c-0.4,0.1-0.8,0.1-1.1,0.1s-0.5,0-0.7,0c-2.6,0-4.9-1-6.8-3
			c-1.9-2-2.9-4.4-2.9-7.2c0-3,1.1-5.5,3.2-7.6c2.1-2.1,4.7-3.2,7.6-3.2c3,0,5.5,1,7.7,3.1c2.2,2.1,3.3,4.5,3.3,7.4
			c0,2.5-1.1,5.2-3.2,8.2L53.7,211z M51.2,187.4c0,1.8,0.6,3.2,1.8,4.4c1.2,1.2,2.7,1.8,4.3,1.8c1.7,0,3.1-0.6,4.3-1.8
			c1.2-1.2,1.8-2.7,1.8-4.3c0-1.7-0.6-3.1-1.8-4.3c-1.2-1.2-2.6-1.8-4.3-1.8c-1.7,0-3.1,0.6-4.3,1.8
			C51.8,184.3,51.2,185.7,51.2,187.4z"></path>
	</g>
	<g class="number8">
		<path fill="#231F20" d="M73.6,260.3c-2.4-1.7-3.6-4-3.6-6.9c0-2.6,0.9-4.8,2.7-6.6c1.8-1.8,4.1-2.6,6.8-2.6c2.7,0,4.9,0.9,6.7,2.6
			c1.8,1.8,2.7,4,2.7,6.6c0,2.8-1.2,5.1-3.5,6.8c1.3,0.7,2.3,1.7,3.1,3.1c0.8,1.3,1.2,2.9,1.2,4.5c0,2.9-0.9,5.2-2.8,7.1
			c-1.9,1.8-4.3,2.8-7.2,2.8c-3,0-5.5-0.9-7.4-2.8c-2-1.8-2.9-4.2-2.9-7C69.2,264.3,70.6,261.8,73.6,260.3z M74,267.8
			c0,1.5,0.5,2.8,1.6,3.9c1,1.1,2.3,1.6,3.8,1.6c1.5,0,2.7-0.5,3.8-1.6c1-1.1,1.6-2.3,1.6-3.8c0-1.5-0.5-2.8-1.6-3.8
			s-2.3-1.6-3.8-1.6c-1.5,0-2.7,0.5-3.8,1.6C74.5,265.1,74,266.4,74,267.8z M74.6,253.5c0,1.4,0.5,2.5,1.4,3.5c1,1,2.1,1.4,3.4,1.4
			c1.3,0,2.5-0.5,3.4-1.4s1.4-2.1,1.4-3.4c0-1.3-0.5-2.5-1.4-3.4s-2.1-1.4-3.4-1.4c-1.3,0-2.5,0.5-3.4,1.4S74.6,252.2,74.6,253.5z"></path>
	</g>
	<g class="number7">
		<path fill="#231F20" d="M135.3,292.7h-16v-4.6h24.2L123,321.6l-3.9-2.5L135.3,292.7z"></path>
	</g>
	<g class="number10">
		<path fill="#231F20" d="M59.1,118.7h-5.6l2.7-4.6H64v32.4h-4.9V118.7z"></path>
		<path fill="#231F20" d="M73.2,130.1c0-5.2,1.2-9.3,3.6-12.4c2.2-2.8,4.8-4.2,7.8-4.2s5.7,1.4,7.8,4.2c2.4,3.1,3.6,7.3,3.6,12.6
			c0,5.3-1.2,9.5-3.6,12.6c-2.2,2.8-4.8,4.2-7.8,4.2s-5.7-1.4-7.9-4.2C74.4,139.8,73.2,135.5,73.2,130.1z M78.1,130.1
			c0,3.6,0.6,6.6,1.9,9c1.2,2.3,2.8,3.5,4.8,3.5c1.9,0,3.5-1.2,4.8-3.5c1.3-2.3,1.9-5.3,1.9-8.8c0-3.5-0.6-6.5-1.9-8.8
			c-1.3-2.3-2.8-3.5-4.8-3.5c-1.9,0-3.5,1.2-4.7,3.5C78.7,123.8,78.1,126.7,78.1,130.1z"></path>
	</g>
	<g class="number11">
		<path fill="#231F20" d="M119.3,69.7h-5.6l2.7-4.6h7.8v32.4h-4.9V69.7z"></path>
		<path fill="#231F20" d="M139.5,69.7h-5.6l2.7-4.6h7.8v32.4h-4.9V69.7z"></path>
	</g>
	<g class="number4">
		<path fill="#231F20" d="M315.6,264.5h3.4v4.5h-3.4v4.6h-4.9v-4.6h-15.9l20.8-30.2V264.5z M310.7,264.5v-10.9l-7.5,10.9H310.7z"></path>
	</g>
	<g class="number5">
		<path fill="#231F20" d="M271,293.4h-10l-1.6,5.4c0.2,0,0.5,0,0.7-0.1c0.2,0,0.4,0,0.6,0c3.1,0,5.7,1.1,7.7,3.2c2,2.1,3,4.8,3,8.1
			c0,3.4-1.1,6.2-3.4,8.4c-2.3,2.2-5.2,3.3-8.7,3.3c-4.3,0-7.7-2-10.2-6l3.7-3.1c1,1.7,2,3,3.1,3.7c1,0.7,2.3,1,3.8,1
			c2,0,3.6-0.7,4.9-2.1c1.3-1.4,2-3.1,2-5.1c0-2.1-0.7-3.8-2-5.1c-1.3-1.4-3-2-4.9-2c-2.2,0-4.1,1-5.7,2.9h-1.6l5.1-17H271V293.4z"></path>
	</g>
	<g class="number6">
		<path fill="#231F20" d="M197.3,308.3l3.6,2.7l-7.7,10.5c0.4-0.1,0.8-0.1,1.1-0.1c0.3,0,0.5,0,0.7,0c2.6,0,4.9,1,6.8,3
			c1.9,2,2.9,4.4,2.9,7.2c0,3-1.1,5.5-3.2,7.6c-2.1,2.1-4.7,3.2-7.6,3.2c-2.9,0-5.5-1-7.7-3.1c-2.2-2.1-3.3-4.6-3.3-7.4
			c0-2.6,1.1-5.3,3.2-8.1L197.3,308.3z M199.8,331.9c0-1.7-0.6-3.2-1.8-4.4c-1.2-1.2-2.7-1.8-4.3-1.8c-1.7,0-3.2,0.6-4.3,1.8
			c-1.2,1.2-1.8,2.6-1.8,4.3c0,1.7,0.6,3.1,1.8,4.3c1.2,1.2,2.6,1.8,4.4,1.8c1.7,0,3.1-0.6,4.3-1.8
			C199.2,335,199.8,333.5,199.8,331.9z"></path>
	</g>
</g>
<desc>Created with Snap</desc></svg>