<?xml version="1.0" encoding="iso-8859-1"?>
<!-- Generator: Adobe Illustrator 19.0.0, SVG Export Plug-In . SVG Version: 6.00 Build 0)  -->
<svg version="1.1" id="Capa_1" xmlns="http://www.w3.org/2000/svg" xmlns:xlink="http://www.w3.org/1999/xlink" x="0px" y="0px"
	 viewBox="0 0 512.639 512.639" style="enable-background:new 0 0 512.639 512.639;" xml:space="preserve">
<path style="fill:#CED6E0;" d="M214.72,10.4c26.667-13.867,54.4-13.867,83.2,0l12.8,39.467l-9.6,54.4
	c-25.6,266.667-60.8,220.8-102.4,3.2C197.653,71.2,199.786,37.067,214.72,10.4z"/>
<path style="fill:#ADB3BA;" d="M310.72,49.867l-3.2,16l-7.467-27.733c-28.8-19.2-59.733-20.267-87.467,0L202.986,52l-2.133,55.467
	h-1.067l3.2-78.933L214.72,10.4c26.667-13.867,54.4-13.867,83.2,0L310.72,49.867z"/>
<path style="fill:#344A5E;" d="M118.72,58.4L118.72,58.4c-4.267,3.2-6.4,6.4-7.467,11.733c-27.733,138.667-28.8,278.4-9.6,420.267
	h46.933c-9.6-89.6-8.533-183.467,1.067-279.467l20.267-89.6L118.72,58.4z"/>
<path style="fill:#415A6B;" d="M179.52,41.333L118.72,58.4c0,0,24.533,66.133,29.867,152.533c0,0,29.867,86.4-6.4,276.267
	c0,0,17.067,13.867,51.2,23.467c35.2,9.6,69.333-17.067,69.333-53.333V283.467C253.12,267.467,202.986,21.067,179.52,41.333z"/>
<g>
	<path style="fill:#344A5E;" d="M214.72,10.4c0,0-28.8,25.6-35.2,30.933l13.867,12.8l-18.133,6.4
		c11.733,75.733,45.867,149.333,88.533,222.933C240.32,175.733,201.92,38.133,214.72,10.4z"/>
	<path style="fill:#344A5E;" d="M263.786,456.267v-172.8c-2.133-3.2-5.333-14.933-9.6-30.933c-4.267,14.933-9.6,29.867-9.6,29.867
		v174.933c0,11.733,3.2,23.467,9.6,32C259.52,479.733,263.786,469.067,263.786,456.267z"/>
	<path style="fill:#344A5E;" d="M393.92,58.4L393.92,58.4c4.267,3.2,6.4,6.4,7.467,11.733c27.733,138.667,28.8,278.4,9.6,420.267
		h-46.933c9.6-89.6,8.533-183.467-1.067-279.467l-20.267-89.6L393.92,58.4z"/>
</g>
<path style="fill:#415A6B;" d="M333.12,41.333l60.8,17.067c0,0-24.533,66.133-29.867,152.533c0,0-29.867,86.4,6.4,276.267
	c0,0-17.067,13.867-51.2,23.467c-35.2,9.6-69.333-17.067-69.333-53.333V283.467C259.52,267.467,309.653,21.067,333.12,41.333z"/>
<g>
	<path style="fill:#344A5E;" d="M297.92,10.4c0,0,28.8,25.6,35.2,30.933l-13.867,12.8l18.133,6.4
		c-11.733,75.733-45.867,149.333-88.533,222.933C272.32,175.733,310.72,38.133,297.92,10.4z"/>
	<circle style="fill:#344A5E;" cx="263.786" cy="309.067" r="6.4"/>
	<circle style="fill:#344A5E;" cx="263.786" cy="352.8" r="6.4"/>
	<circle style="fill:#344A5E;" cx="263.786" cy="396.533" r="6.4"/>
	<circle style="fill:#344A5E;" cx="263.786" cy="439.2" r="6.4"/>
</g>
<g>
</g>
<g>
</g>
<g>
</g>
<g>
</g>
<g>
</g>
<g>
</g>
<g>
</g>
<g>
</g>
<g>
</g>
<g>
</g>
<g>
</g>
<g>
</g>
<g>
</g>
<g>
</g>
<g>
</g>
</svg>
